%TF.GenerationSoftware,KiCad,Pcbnew,9.0.2+1*%
%TF.CreationDate,2025-09-15T00:12:34+02:00*%
%TF.ProjectId,first,66697273-742e-46b6-9963-61645f706362,rev?*%
%TF.SameCoordinates,Original*%
%TF.FileFunction,Legend,Bot*%
%TF.FilePolarity,Positive*%
%FSLAX46Y46*%
G04 Gerber Fmt 4.6, Leading zero omitted, Abs format (unit mm)*
G04 Created by KiCad (PCBNEW 9.0.2+1) date 2025-09-15 00:12:34*
%MOMM*%
%LPD*%
G01*
G04 APERTURE LIST*
%ADD10C,0.200000*%
%ADD11C,0.150000*%
%ADD12C,0.120000*%
G04 APERTURE END LIST*
D10*
X141933035Y131167780D02*
X142504463Y131167780D01*
X142218749Y131167780D02*
X142218749Y132167780D01*
X142218749Y132167780D02*
X142313987Y132024923D01*
X142313987Y132024923D02*
X142409225Y131929685D01*
X142409225Y131929685D02*
X142504463Y131882066D01*
X148096994Y128627780D02*
X147906518Y128627780D01*
X147906518Y128627780D02*
X147811280Y128675400D01*
X147811280Y128675400D02*
X147763661Y128723019D01*
X147763661Y128723019D02*
X147668423Y128865876D01*
X147668423Y128865876D02*
X147620804Y129056352D01*
X147620804Y129056352D02*
X147620804Y129437304D01*
X147620804Y129437304D02*
X147668423Y129532542D01*
X147668423Y129532542D02*
X147716042Y129580161D01*
X147716042Y129580161D02*
X147811280Y129627780D01*
X147811280Y129627780D02*
X148001756Y129627780D01*
X148001756Y129627780D02*
X148096994Y129580161D01*
X148096994Y129580161D02*
X148144613Y129532542D01*
X148144613Y129532542D02*
X148192232Y129437304D01*
X148192232Y129437304D02*
X148192232Y129199209D01*
X148192232Y129199209D02*
X148144613Y129103971D01*
X148144613Y129103971D02*
X148096994Y129056352D01*
X148096994Y129056352D02*
X148001756Y129008733D01*
X148001756Y129008733D02*
X147811280Y129008733D01*
X147811280Y129008733D02*
X147716042Y129056352D01*
X147716042Y129056352D02*
X147668423Y129103971D01*
X147668423Y129103971D02*
X147620804Y129199209D01*
X126085267Y138787780D02*
X126656695Y138787780D01*
X126370981Y138787780D02*
X126370981Y139787780D01*
X126370981Y139787780D02*
X126466219Y139644923D01*
X126466219Y139644923D02*
X126561457Y139549685D01*
X126561457Y139549685D02*
X126656695Y139502066D01*
X125513838Y139359209D02*
X125609076Y139406828D01*
X125609076Y139406828D02*
X125656695Y139454447D01*
X125656695Y139454447D02*
X125704314Y139549685D01*
X125704314Y139549685D02*
X125704314Y139597304D01*
X125704314Y139597304D02*
X125656695Y139692542D01*
X125656695Y139692542D02*
X125609076Y139740161D01*
X125609076Y139740161D02*
X125513838Y139787780D01*
X125513838Y139787780D02*
X125323362Y139787780D01*
X125323362Y139787780D02*
X125228124Y139740161D01*
X125228124Y139740161D02*
X125180505Y139692542D01*
X125180505Y139692542D02*
X125132886Y139597304D01*
X125132886Y139597304D02*
X125132886Y139549685D01*
X125132886Y139549685D02*
X125180505Y139454447D01*
X125180505Y139454447D02*
X125228124Y139406828D01*
X125228124Y139406828D02*
X125323362Y139359209D01*
X125323362Y139359209D02*
X125513838Y139359209D01*
X125513838Y139359209D02*
X125609076Y139311590D01*
X125609076Y139311590D02*
X125656695Y139263971D01*
X125656695Y139263971D02*
X125704314Y139168733D01*
X125704314Y139168733D02*
X125704314Y138978257D01*
X125704314Y138978257D02*
X125656695Y138883019D01*
X125656695Y138883019D02*
X125609076Y138835400D01*
X125609076Y138835400D02*
X125513838Y138787780D01*
X125513838Y138787780D02*
X125323362Y138787780D01*
X125323362Y138787780D02*
X125228124Y138835400D01*
X125228124Y138835400D02*
X125180505Y138883019D01*
X125180505Y138883019D02*
X125132886Y138978257D01*
X125132886Y138978257D02*
X125132886Y139168733D01*
X125132886Y139168733D02*
X125180505Y139263971D01*
X125180505Y139263971D02*
X125228124Y139311590D01*
X125228124Y139311590D02*
X125323362Y139359209D01*
X148239851Y134707780D02*
X147573185Y134707780D01*
X147573185Y134707780D02*
X148001756Y133707780D01*
X147668423Y139787780D02*
X148144613Y139787780D01*
X148144613Y139787780D02*
X148192232Y139311590D01*
X148192232Y139311590D02*
X148144613Y139359209D01*
X148144613Y139359209D02*
X148049375Y139406828D01*
X148049375Y139406828D02*
X147811280Y139406828D01*
X147811280Y139406828D02*
X147716042Y139359209D01*
X147716042Y139359209D02*
X147668423Y139311590D01*
X147668423Y139311590D02*
X147620804Y139216352D01*
X147620804Y139216352D02*
X147620804Y138978257D01*
X147620804Y138978257D02*
X147668423Y138883019D01*
X147668423Y138883019D02*
X147716042Y138835400D01*
X147716042Y138835400D02*
X147811280Y138787780D01*
X147811280Y138787780D02*
X148049375Y138787780D01*
X148049375Y138787780D02*
X148144613Y138835400D01*
X148144613Y138835400D02*
X148192232Y138883019D01*
X148192232Y147312542D02*
X148144613Y147360161D01*
X148144613Y147360161D02*
X148049375Y147407780D01*
X148049375Y147407780D02*
X147811280Y147407780D01*
X147811280Y147407780D02*
X147716042Y147360161D01*
X147716042Y147360161D02*
X147668423Y147312542D01*
X147668423Y147312542D02*
X147620804Y147217304D01*
X147620804Y147217304D02*
X147620804Y147122066D01*
X147620804Y147122066D02*
X147668423Y146979209D01*
X147668423Y146979209D02*
X148239851Y146407780D01*
X148239851Y146407780D02*
X147620804Y146407780D01*
X149716042Y149900161D02*
X149811280Y149947780D01*
X149811280Y149947780D02*
X149954137Y149947780D01*
X149954137Y149947780D02*
X150096994Y149900161D01*
X150096994Y149900161D02*
X150192232Y149804923D01*
X150192232Y149804923D02*
X150239851Y149709685D01*
X150239851Y149709685D02*
X150287470Y149519209D01*
X150287470Y149519209D02*
X150287470Y149376352D01*
X150287470Y149376352D02*
X150239851Y149185876D01*
X150239851Y149185876D02*
X150192232Y149090638D01*
X150192232Y149090638D02*
X150096994Y148995400D01*
X150096994Y148995400D02*
X149954137Y148947780D01*
X149954137Y148947780D02*
X149858899Y148947780D01*
X149858899Y148947780D02*
X149716042Y148995400D01*
X149716042Y148995400D02*
X149668423Y149043019D01*
X149668423Y149043019D02*
X149668423Y149376352D01*
X149668423Y149376352D02*
X149858899Y149376352D01*
X149239851Y148947780D02*
X149239851Y149947780D01*
X149239851Y149947780D02*
X148668423Y148947780D01*
X148668423Y148947780D02*
X148668423Y149947780D01*
X148192232Y148947780D02*
X148192232Y149947780D01*
X148192232Y149947780D02*
X147954137Y149947780D01*
X147954137Y149947780D02*
X147811280Y149900161D01*
X147811280Y149900161D02*
X147716042Y149804923D01*
X147716042Y149804923D02*
X147668423Y149709685D01*
X147668423Y149709685D02*
X147620804Y149519209D01*
X147620804Y149519209D02*
X147620804Y149376352D01*
X147620804Y149376352D02*
X147668423Y149185876D01*
X147668423Y149185876D02*
X147716042Y149090638D01*
X147716042Y149090638D02*
X147811280Y148995400D01*
X147811280Y148995400D02*
X147954137Y148947780D01*
X147954137Y148947780D02*
X148192232Y148947780D01*
X137472082Y132167782D02*
X136805416Y132167782D01*
X136805416Y132167782D02*
X137233987Y131167782D01*
X126275743Y157091590D02*
X126132886Y157043971D01*
X126132886Y157043971D02*
X126085267Y156996352D01*
X126085267Y156996352D02*
X126037648Y156901114D01*
X126037648Y156901114D02*
X126037648Y156758257D01*
X126037648Y156758257D02*
X126085267Y156663019D01*
X126085267Y156663019D02*
X126132886Y156615400D01*
X126132886Y156615400D02*
X126228124Y156567780D01*
X126228124Y156567780D02*
X126609076Y156567780D01*
X126609076Y156567780D02*
X126609076Y157567780D01*
X126609076Y157567780D02*
X126275743Y157567780D01*
X126275743Y157567780D02*
X126180505Y157520161D01*
X126180505Y157520161D02*
X126132886Y157472542D01*
X126132886Y157472542D02*
X126085267Y157377304D01*
X126085267Y157377304D02*
X126085267Y157282066D01*
X126085267Y157282066D02*
X126132886Y157186828D01*
X126132886Y157186828D02*
X126180505Y157139209D01*
X126180505Y157139209D02*
X126275743Y157091590D01*
X126275743Y157091590D02*
X126609076Y157091590D01*
X125609076Y156948733D02*
X124847172Y156948733D01*
X125228124Y156567780D02*
X125228124Y157329685D01*
X126704314Y149947780D02*
X126085267Y149947780D01*
X126085267Y149947780D02*
X126418600Y149566828D01*
X126418600Y149566828D02*
X126275743Y149566828D01*
X126275743Y149566828D02*
X126180505Y149519209D01*
X126180505Y149519209D02*
X126132886Y149471590D01*
X126132886Y149471590D02*
X126085267Y149376352D01*
X126085267Y149376352D02*
X126085267Y149138257D01*
X126085267Y149138257D02*
X126132886Y149043019D01*
X126132886Y149043019D02*
X126180505Y148995400D01*
X126180505Y148995400D02*
X126275743Y148947780D01*
X126275743Y148947780D02*
X126561457Y148947780D01*
X126561457Y148947780D02*
X126656695Y148995400D01*
X126656695Y148995400D02*
X126704314Y149043019D01*
X125656695Y149043019D02*
X125609076Y148995400D01*
X125609076Y148995400D02*
X125656695Y148947780D01*
X125656695Y148947780D02*
X125704314Y148995400D01*
X125704314Y148995400D02*
X125656695Y149043019D01*
X125656695Y149043019D02*
X125656695Y148947780D01*
X125275743Y149947780D02*
X124656696Y149947780D01*
X124656696Y149947780D02*
X124990029Y149566828D01*
X124990029Y149566828D02*
X124847172Y149566828D01*
X124847172Y149566828D02*
X124751934Y149519209D01*
X124751934Y149519209D02*
X124704315Y149471590D01*
X124704315Y149471590D02*
X124656696Y149376352D01*
X124656696Y149376352D02*
X124656696Y149138257D01*
X124656696Y149138257D02*
X124704315Y149043019D01*
X124704315Y149043019D02*
X124751934Y148995400D01*
X124751934Y148995400D02*
X124847172Y148947780D01*
X124847172Y148947780D02*
X125132886Y148947780D01*
X125132886Y148947780D02*
X125228124Y148995400D01*
X125228124Y148995400D02*
X125275743Y149043019D01*
X124323362Y149614447D02*
X124085267Y148947780D01*
X124085267Y148947780D02*
X123847172Y149614447D01*
X147716042Y141994447D02*
X147716042Y141327780D01*
X147954137Y142375400D02*
X148192232Y141661114D01*
X148192232Y141661114D02*
X147573185Y141661114D01*
X149716042Y152440161D02*
X149811280Y152487780D01*
X149811280Y152487780D02*
X149954137Y152487780D01*
X149954137Y152487780D02*
X150096994Y152440161D01*
X150096994Y152440161D02*
X150192232Y152344923D01*
X150192232Y152344923D02*
X150239851Y152249685D01*
X150239851Y152249685D02*
X150287470Y152059209D01*
X150287470Y152059209D02*
X150287470Y151916352D01*
X150287470Y151916352D02*
X150239851Y151725876D01*
X150239851Y151725876D02*
X150192232Y151630638D01*
X150192232Y151630638D02*
X150096994Y151535400D01*
X150096994Y151535400D02*
X149954137Y151487780D01*
X149954137Y151487780D02*
X149858899Y151487780D01*
X149858899Y151487780D02*
X149716042Y151535400D01*
X149716042Y151535400D02*
X149668423Y151583019D01*
X149668423Y151583019D02*
X149668423Y151916352D01*
X149668423Y151916352D02*
X149858899Y151916352D01*
X149239851Y151487780D02*
X149239851Y152487780D01*
X149239851Y152487780D02*
X148668423Y151487780D01*
X148668423Y151487780D02*
X148668423Y152487780D01*
X148192232Y151487780D02*
X148192232Y152487780D01*
X148192232Y152487780D02*
X147954137Y152487780D01*
X147954137Y152487780D02*
X147811280Y152440161D01*
X147811280Y152440161D02*
X147716042Y152344923D01*
X147716042Y152344923D02*
X147668423Y152249685D01*
X147668423Y152249685D02*
X147620804Y152059209D01*
X147620804Y152059209D02*
X147620804Y151916352D01*
X147620804Y151916352D02*
X147668423Y151725876D01*
X147668423Y151725876D02*
X147716042Y151630638D01*
X147716042Y151630638D02*
X147811280Y151535400D01*
X147811280Y151535400D02*
X147954137Y151487780D01*
X147954137Y151487780D02*
X148192232Y151487780D01*
X126037648Y151487780D02*
X126370981Y151963971D01*
X126609076Y151487780D02*
X126609076Y152487780D01*
X126609076Y152487780D02*
X126228124Y152487780D01*
X126228124Y152487780D02*
X126132886Y152440161D01*
X126132886Y152440161D02*
X126085267Y152392542D01*
X126085267Y152392542D02*
X126037648Y152297304D01*
X126037648Y152297304D02*
X126037648Y152154447D01*
X126037648Y152154447D02*
X126085267Y152059209D01*
X126085267Y152059209D02*
X126132886Y152011590D01*
X126132886Y152011590D02*
X126228124Y151963971D01*
X126228124Y151963971D02*
X126609076Y151963971D01*
X125656695Y151535400D02*
X125513838Y151487780D01*
X125513838Y151487780D02*
X125275743Y151487780D01*
X125275743Y151487780D02*
X125180505Y151535400D01*
X125180505Y151535400D02*
X125132886Y151583019D01*
X125132886Y151583019D02*
X125085267Y151678257D01*
X125085267Y151678257D02*
X125085267Y151773495D01*
X125085267Y151773495D02*
X125132886Y151868733D01*
X125132886Y151868733D02*
X125180505Y151916352D01*
X125180505Y151916352D02*
X125275743Y151963971D01*
X125275743Y151963971D02*
X125466219Y152011590D01*
X125466219Y152011590D02*
X125561457Y152059209D01*
X125561457Y152059209D02*
X125609076Y152106828D01*
X125609076Y152106828D02*
X125656695Y152202066D01*
X125656695Y152202066D02*
X125656695Y152297304D01*
X125656695Y152297304D02*
X125609076Y152392542D01*
X125609076Y152392542D02*
X125561457Y152440161D01*
X125561457Y152440161D02*
X125466219Y152487780D01*
X125466219Y152487780D02*
X125228124Y152487780D01*
X125228124Y152487780D02*
X125085267Y152440161D01*
X124799552Y152487780D02*
X124228124Y152487780D01*
X124513838Y151487780D02*
X124513838Y152487780D01*
X148239851Y144867780D02*
X147620804Y144867780D01*
X147620804Y144867780D02*
X147954137Y144486828D01*
X147954137Y144486828D02*
X147811280Y144486828D01*
X147811280Y144486828D02*
X147716042Y144439209D01*
X147716042Y144439209D02*
X147668423Y144391590D01*
X147668423Y144391590D02*
X147620804Y144296352D01*
X147620804Y144296352D02*
X147620804Y144058257D01*
X147620804Y144058257D02*
X147668423Y143963019D01*
X147668423Y143963019D02*
X147716042Y143915400D01*
X147716042Y143915400D02*
X147811280Y143867780D01*
X147811280Y143867780D02*
X148096994Y143867780D01*
X148096994Y143867780D02*
X148192232Y143915400D01*
X148192232Y143915400D02*
X148239851Y143963019D01*
X126085267Y128627780D02*
X126656695Y128627780D01*
X126370981Y128627780D02*
X126370981Y129627780D01*
X126370981Y129627780D02*
X126466219Y129484923D01*
X126466219Y129484923D02*
X126561457Y129389685D01*
X126561457Y129389685D02*
X126656695Y129342066D01*
X125466219Y129627780D02*
X125370981Y129627780D01*
X125370981Y129627780D02*
X125275743Y129580161D01*
X125275743Y129580161D02*
X125228124Y129532542D01*
X125228124Y129532542D02*
X125180505Y129437304D01*
X125180505Y129437304D02*
X125132886Y129246828D01*
X125132886Y129246828D02*
X125132886Y129008733D01*
X125132886Y129008733D02*
X125180505Y128818257D01*
X125180505Y128818257D02*
X125228124Y128723019D01*
X125228124Y128723019D02*
X125275743Y128675400D01*
X125275743Y128675400D02*
X125370981Y128627780D01*
X125370981Y128627780D02*
X125466219Y128627780D01*
X125466219Y128627780D02*
X125561457Y128675400D01*
X125561457Y128675400D02*
X125609076Y128723019D01*
X125609076Y128723019D02*
X125656695Y128818257D01*
X125656695Y128818257D02*
X125704314Y129008733D01*
X125704314Y129008733D02*
X125704314Y129246828D01*
X125704314Y129246828D02*
X125656695Y129437304D01*
X125656695Y129437304D02*
X125609076Y129532542D01*
X125609076Y129532542D02*
X125561457Y129580161D01*
X125561457Y129580161D02*
X125466219Y129627780D01*
X126085267Y133707780D02*
X126656695Y133707780D01*
X126370981Y133707780D02*
X126370981Y134707780D01*
X126370981Y134707780D02*
X126466219Y134564923D01*
X126466219Y134564923D02*
X126561457Y134469685D01*
X126561457Y134469685D02*
X126656695Y134422066D01*
X125228124Y134374447D02*
X125228124Y133707780D01*
X125466219Y134755400D02*
X125704314Y134041114D01*
X125704314Y134041114D02*
X125085267Y134041114D01*
X147954137Y155027780D02*
X147858899Y155027780D01*
X147858899Y155027780D02*
X147763661Y154980161D01*
X147763661Y154980161D02*
X147716042Y154932542D01*
X147716042Y154932542D02*
X147668423Y154837304D01*
X147668423Y154837304D02*
X147620804Y154646828D01*
X147620804Y154646828D02*
X147620804Y154408733D01*
X147620804Y154408733D02*
X147668423Y154218257D01*
X147668423Y154218257D02*
X147716042Y154123019D01*
X147716042Y154123019D02*
X147763661Y154075400D01*
X147763661Y154075400D02*
X147858899Y154027780D01*
X147858899Y154027780D02*
X147954137Y154027780D01*
X147954137Y154027780D02*
X148049375Y154075400D01*
X148049375Y154075400D02*
X148096994Y154123019D01*
X148096994Y154123019D02*
X148144613Y154218257D01*
X148144613Y154218257D02*
X148192232Y154408733D01*
X148192232Y154408733D02*
X148192232Y154646828D01*
X148192232Y154646828D02*
X148144613Y154837304D01*
X148144613Y154837304D02*
X148096994Y154932542D01*
X148096994Y154932542D02*
X148049375Y154980161D01*
X148049375Y154980161D02*
X147954137Y155027780D01*
X148001756Y131739209D02*
X148096994Y131786828D01*
X148096994Y131786828D02*
X148144613Y131834447D01*
X148144613Y131834447D02*
X148192232Y131929685D01*
X148192232Y131929685D02*
X148192232Y131977304D01*
X148192232Y131977304D02*
X148144613Y132072542D01*
X148144613Y132072542D02*
X148096994Y132120161D01*
X148096994Y132120161D02*
X148001756Y132167780D01*
X148001756Y132167780D02*
X147811280Y132167780D01*
X147811280Y132167780D02*
X147716042Y132120161D01*
X147716042Y132120161D02*
X147668423Y132072542D01*
X147668423Y132072542D02*
X147620804Y131977304D01*
X147620804Y131977304D02*
X147620804Y131929685D01*
X147620804Y131929685D02*
X147668423Y131834447D01*
X147668423Y131834447D02*
X147716042Y131786828D01*
X147716042Y131786828D02*
X147811280Y131739209D01*
X147811280Y131739209D02*
X148001756Y131739209D01*
X148001756Y131739209D02*
X148096994Y131691590D01*
X148096994Y131691590D02*
X148144613Y131643971D01*
X148144613Y131643971D02*
X148192232Y131548733D01*
X148192232Y131548733D02*
X148192232Y131358257D01*
X148192232Y131358257D02*
X148144613Y131263019D01*
X148144613Y131263019D02*
X148096994Y131215400D01*
X148096994Y131215400D02*
X148001756Y131167780D01*
X148001756Y131167780D02*
X147811280Y131167780D01*
X147811280Y131167780D02*
X147716042Y131215400D01*
X147716042Y131215400D02*
X147668423Y131263019D01*
X147668423Y131263019D02*
X147620804Y131358257D01*
X147620804Y131358257D02*
X147620804Y131548733D01*
X147620804Y131548733D02*
X147668423Y131643971D01*
X147668423Y131643971D02*
X147716042Y131691590D01*
X147716042Y131691590D02*
X147811280Y131739209D01*
X126085267Y154980161D02*
X126180505Y155027780D01*
X126180505Y155027780D02*
X126323362Y155027780D01*
X126323362Y155027780D02*
X126466219Y154980161D01*
X126466219Y154980161D02*
X126561457Y154884923D01*
X126561457Y154884923D02*
X126609076Y154789685D01*
X126609076Y154789685D02*
X126656695Y154599209D01*
X126656695Y154599209D02*
X126656695Y154456352D01*
X126656695Y154456352D02*
X126609076Y154265876D01*
X126609076Y154265876D02*
X126561457Y154170638D01*
X126561457Y154170638D02*
X126466219Y154075400D01*
X126466219Y154075400D02*
X126323362Y154027780D01*
X126323362Y154027780D02*
X126228124Y154027780D01*
X126228124Y154027780D02*
X126085267Y154075400D01*
X126085267Y154075400D02*
X126037648Y154123019D01*
X126037648Y154123019D02*
X126037648Y154456352D01*
X126037648Y154456352D02*
X126228124Y154456352D01*
X125609076Y154027780D02*
X125609076Y155027780D01*
X125609076Y155027780D02*
X125037648Y154027780D01*
X125037648Y154027780D02*
X125037648Y155027780D01*
X124561457Y154027780D02*
X124561457Y155027780D01*
X124561457Y155027780D02*
X124323362Y155027780D01*
X124323362Y155027780D02*
X124180505Y154980161D01*
X124180505Y154980161D02*
X124085267Y154884923D01*
X124085267Y154884923D02*
X124037648Y154789685D01*
X124037648Y154789685D02*
X123990029Y154599209D01*
X123990029Y154599209D02*
X123990029Y154456352D01*
X123990029Y154456352D02*
X124037648Y154265876D01*
X124037648Y154265876D02*
X124085267Y154170638D01*
X124085267Y154170638D02*
X124180505Y154075400D01*
X124180505Y154075400D02*
X124323362Y154027780D01*
X124323362Y154027780D02*
X124561457Y154027780D01*
X126085267Y141327780D02*
X126656695Y141327780D01*
X126370981Y141327780D02*
X126370981Y142327780D01*
X126370981Y142327780D02*
X126466219Y142184923D01*
X126466219Y142184923D02*
X126561457Y142089685D01*
X126561457Y142089685D02*
X126656695Y142042066D01*
X125609076Y141327780D02*
X125418600Y141327780D01*
X125418600Y141327780D02*
X125323362Y141375400D01*
X125323362Y141375400D02*
X125275743Y141423019D01*
X125275743Y141423019D02*
X125180505Y141565876D01*
X125180505Y141565876D02*
X125132886Y141756352D01*
X125132886Y141756352D02*
X125132886Y142137304D01*
X125132886Y142137304D02*
X125180505Y142232542D01*
X125180505Y142232542D02*
X125228124Y142280161D01*
X125228124Y142280161D02*
X125323362Y142327780D01*
X125323362Y142327780D02*
X125513838Y142327780D01*
X125513838Y142327780D02*
X125609076Y142280161D01*
X125609076Y142280161D02*
X125656695Y142232542D01*
X125656695Y142232542D02*
X125704314Y142137304D01*
X125704314Y142137304D02*
X125704314Y141899209D01*
X125704314Y141899209D02*
X125656695Y141803971D01*
X125656695Y141803971D02*
X125609076Y141756352D01*
X125609076Y141756352D02*
X125513838Y141708733D01*
X125513838Y141708733D02*
X125323362Y141708733D01*
X125323362Y141708733D02*
X125228124Y141756352D01*
X125228124Y141756352D02*
X125180505Y141803971D01*
X125180505Y141803971D02*
X125132886Y141899209D01*
X147716042Y137247780D02*
X147906518Y137247780D01*
X147906518Y137247780D02*
X148001756Y137200161D01*
X148001756Y137200161D02*
X148049375Y137152542D01*
X148049375Y137152542D02*
X148144613Y137009685D01*
X148144613Y137009685D02*
X148192232Y136819209D01*
X148192232Y136819209D02*
X148192232Y136438257D01*
X148192232Y136438257D02*
X148144613Y136343019D01*
X148144613Y136343019D02*
X148096994Y136295400D01*
X148096994Y136295400D02*
X148001756Y136247780D01*
X148001756Y136247780D02*
X147811280Y136247780D01*
X147811280Y136247780D02*
X147716042Y136295400D01*
X147716042Y136295400D02*
X147668423Y136343019D01*
X147668423Y136343019D02*
X147620804Y136438257D01*
X147620804Y136438257D02*
X147620804Y136676352D01*
X147620804Y136676352D02*
X147668423Y136771590D01*
X147668423Y136771590D02*
X147716042Y136819209D01*
X147716042Y136819209D02*
X147811280Y136866828D01*
X147811280Y136866828D02*
X148001756Y136866828D01*
X148001756Y136866828D02*
X148096994Y136819209D01*
X148096994Y136819209D02*
X148144613Y136771590D01*
X148144613Y136771590D02*
X148192232Y136676352D01*
X139964463Y132072542D02*
X139916844Y132120161D01*
X139916844Y132120161D02*
X139821606Y132167780D01*
X139821606Y132167780D02*
X139583511Y132167780D01*
X139583511Y132167780D02*
X139488273Y132120161D01*
X139488273Y132120161D02*
X139440654Y132072542D01*
X139440654Y132072542D02*
X139393035Y131977304D01*
X139393035Y131977304D02*
X139393035Y131882066D01*
X139393035Y131882066D02*
X139440654Y131739209D01*
X139440654Y131739209D02*
X140012082Y131167780D01*
X140012082Y131167780D02*
X139393035Y131167780D01*
X126656695Y147312542D02*
X126609076Y147360161D01*
X126609076Y147360161D02*
X126513838Y147407780D01*
X126513838Y147407780D02*
X126275743Y147407780D01*
X126275743Y147407780D02*
X126180505Y147360161D01*
X126180505Y147360161D02*
X126132886Y147312542D01*
X126132886Y147312542D02*
X126085267Y147217304D01*
X126085267Y147217304D02*
X126085267Y147122066D01*
X126085267Y147122066D02*
X126132886Y146979209D01*
X126132886Y146979209D02*
X126704314Y146407780D01*
X126704314Y146407780D02*
X126085267Y146407780D01*
X125132886Y146407780D02*
X125704314Y146407780D01*
X125418600Y146407780D02*
X125418600Y147407780D01*
X125418600Y147407780D02*
X125513838Y147264923D01*
X125513838Y147264923D02*
X125609076Y147169685D01*
X125609076Y147169685D02*
X125704314Y147122066D01*
X126656695Y144772542D02*
X126609076Y144820161D01*
X126609076Y144820161D02*
X126513838Y144867780D01*
X126513838Y144867780D02*
X126275743Y144867780D01*
X126275743Y144867780D02*
X126180505Y144820161D01*
X126180505Y144820161D02*
X126132886Y144772542D01*
X126132886Y144772542D02*
X126085267Y144677304D01*
X126085267Y144677304D02*
X126085267Y144582066D01*
X126085267Y144582066D02*
X126132886Y144439209D01*
X126132886Y144439209D02*
X126704314Y143867780D01*
X126704314Y143867780D02*
X126085267Y143867780D01*
X125466219Y144867780D02*
X125370981Y144867780D01*
X125370981Y144867780D02*
X125275743Y144820161D01*
X125275743Y144820161D02*
X125228124Y144772542D01*
X125228124Y144772542D02*
X125180505Y144677304D01*
X125180505Y144677304D02*
X125132886Y144486828D01*
X125132886Y144486828D02*
X125132886Y144248733D01*
X125132886Y144248733D02*
X125180505Y144058257D01*
X125180505Y144058257D02*
X125228124Y143963019D01*
X125228124Y143963019D02*
X125275743Y143915400D01*
X125275743Y143915400D02*
X125370981Y143867780D01*
X125370981Y143867780D02*
X125466219Y143867780D01*
X125466219Y143867780D02*
X125561457Y143915400D01*
X125561457Y143915400D02*
X125609076Y143963019D01*
X125609076Y143963019D02*
X125656695Y144058257D01*
X125656695Y144058257D02*
X125704314Y144248733D01*
X125704314Y144248733D02*
X125704314Y144486828D01*
X125704314Y144486828D02*
X125656695Y144677304D01*
X125656695Y144677304D02*
X125609076Y144772542D01*
X125609076Y144772542D02*
X125561457Y144820161D01*
X125561457Y144820161D02*
X125466219Y144867780D01*
X126085267Y136247780D02*
X126656695Y136247780D01*
X126370981Y136247780D02*
X126370981Y137247780D01*
X126370981Y137247780D02*
X126466219Y137104923D01*
X126466219Y137104923D02*
X126561457Y137009685D01*
X126561457Y137009685D02*
X126656695Y136962066D01*
X125180505Y137247780D02*
X125656695Y137247780D01*
X125656695Y137247780D02*
X125704314Y136771590D01*
X125704314Y136771590D02*
X125656695Y136819209D01*
X125656695Y136819209D02*
X125561457Y136866828D01*
X125561457Y136866828D02*
X125323362Y136866828D01*
X125323362Y136866828D02*
X125228124Y136819209D01*
X125228124Y136819209D02*
X125180505Y136771590D01*
X125180505Y136771590D02*
X125132886Y136676352D01*
X125132886Y136676352D02*
X125132886Y136438257D01*
X125132886Y136438257D02*
X125180505Y136343019D01*
X125180505Y136343019D02*
X125228124Y136295400D01*
X125228124Y136295400D02*
X125323362Y136247780D01*
X125323362Y136247780D02*
X125561457Y136247780D01*
X125561457Y136247780D02*
X125656695Y136295400D01*
X125656695Y136295400D02*
X125704314Y136343019D01*
X126085267Y131167780D02*
X126656695Y131167780D01*
X126370981Y131167780D02*
X126370981Y132167780D01*
X126370981Y132167780D02*
X126466219Y132024923D01*
X126466219Y132024923D02*
X126561457Y131929685D01*
X126561457Y131929685D02*
X126656695Y131882066D01*
X125228124Y132167780D02*
X125418600Y132167780D01*
X125418600Y132167780D02*
X125513838Y132120161D01*
X125513838Y132120161D02*
X125561457Y132072542D01*
X125561457Y132072542D02*
X125656695Y131929685D01*
X125656695Y131929685D02*
X125704314Y131739209D01*
X125704314Y131739209D02*
X125704314Y131358257D01*
X125704314Y131358257D02*
X125656695Y131263019D01*
X125656695Y131263019D02*
X125609076Y131215400D01*
X125609076Y131215400D02*
X125513838Y131167780D01*
X125513838Y131167780D02*
X125323362Y131167780D01*
X125323362Y131167780D02*
X125228124Y131215400D01*
X125228124Y131215400D02*
X125180505Y131263019D01*
X125180505Y131263019D02*
X125132886Y131358257D01*
X125132886Y131358257D02*
X125132886Y131596352D01*
X125132886Y131596352D02*
X125180505Y131691590D01*
X125180505Y131691590D02*
X125228124Y131739209D01*
X125228124Y131739209D02*
X125323362Y131786828D01*
X125323362Y131786828D02*
X125513838Y131786828D01*
X125513838Y131786828D02*
X125609076Y131739209D01*
X125609076Y131739209D02*
X125656695Y131691590D01*
X125656695Y131691590D02*
X125704314Y131596352D01*
X147620804Y156567780D02*
X148192232Y156567780D01*
X147906518Y156567780D02*
X147906518Y157567780D01*
X147906518Y157567780D02*
X148001756Y157424923D01*
X148001756Y157424923D02*
X148096994Y157329685D01*
X148096994Y157329685D02*
X148192232Y157282066D01*
D11*
X136910655Y159215180D02*
X137243988Y159691371D01*
X137482083Y159215180D02*
X137482083Y160215180D01*
X137482083Y160215180D02*
X137101131Y160215180D01*
X137101131Y160215180D02*
X137005893Y160167561D01*
X137005893Y160167561D02*
X136958274Y160119942D01*
X136958274Y160119942D02*
X136910655Y160024704D01*
X136910655Y160024704D02*
X136910655Y159881847D01*
X136910655Y159881847D02*
X136958274Y159786609D01*
X136958274Y159786609D02*
X137005893Y159738990D01*
X137005893Y159738990D02*
X137101131Y159691371D01*
X137101131Y159691371D02*
X137482083Y159691371D01*
X136529702Y159262800D02*
X136434464Y159215180D01*
X136434464Y159215180D02*
X136243988Y159215180D01*
X136243988Y159215180D02*
X136148750Y159262800D01*
X136148750Y159262800D02*
X136101131Y159358038D01*
X136101131Y159358038D02*
X136101131Y159405657D01*
X136101131Y159405657D02*
X136148750Y159500895D01*
X136148750Y159500895D02*
X136243988Y159548514D01*
X136243988Y159548514D02*
X136386845Y159548514D01*
X136386845Y159548514D02*
X136482083Y159596133D01*
X136482083Y159596133D02*
X136529702Y159691371D01*
X136529702Y159691371D02*
X136529702Y159738990D01*
X136529702Y159738990D02*
X136482083Y159834228D01*
X136482083Y159834228D02*
X136386845Y159881847D01*
X136386845Y159881847D02*
X136243988Y159881847D01*
X136243988Y159881847D02*
X136148750Y159834228D01*
X135815416Y159881847D02*
X135434464Y159881847D01*
X135672559Y160215180D02*
X135672559Y159358038D01*
X135672559Y159358038D02*
X135624940Y159262800D01*
X135624940Y159262800D02*
X135529702Y159215180D01*
X135529702Y159215180D02*
X135434464Y159215180D01*
X134624940Y159215180D02*
X135101130Y159215180D01*
X135101130Y159215180D02*
X135101130Y160215180D01*
X133767797Y159215180D02*
X134339225Y159215180D01*
X134053511Y159215180D02*
X134053511Y160215180D01*
X134053511Y160215180D02*
X134148749Y160072323D01*
X134148749Y160072323D02*
X134243987Y159977085D01*
X134243987Y159977085D02*
X134339225Y159929466D01*
D10*
X161562648Y151487780D02*
X161895981Y151963971D01*
X162134076Y151487780D02*
X162134076Y152487780D01*
X162134076Y152487780D02*
X161753124Y152487780D01*
X161753124Y152487780D02*
X161657886Y152440161D01*
X161657886Y152440161D02*
X161610267Y152392542D01*
X161610267Y152392542D02*
X161562648Y152297304D01*
X161562648Y152297304D02*
X161562648Y152154447D01*
X161562648Y152154447D02*
X161610267Y152059209D01*
X161610267Y152059209D02*
X161657886Y152011590D01*
X161657886Y152011590D02*
X161753124Y151963971D01*
X161753124Y151963971D02*
X162134076Y151963971D01*
X161181695Y151535400D02*
X161038838Y151487780D01*
X161038838Y151487780D02*
X160800743Y151487780D01*
X160800743Y151487780D02*
X160705505Y151535400D01*
X160705505Y151535400D02*
X160657886Y151583019D01*
X160657886Y151583019D02*
X160610267Y151678257D01*
X160610267Y151678257D02*
X160610267Y151773495D01*
X160610267Y151773495D02*
X160657886Y151868733D01*
X160657886Y151868733D02*
X160705505Y151916352D01*
X160705505Y151916352D02*
X160800743Y151963971D01*
X160800743Y151963971D02*
X160991219Y152011590D01*
X160991219Y152011590D02*
X161086457Y152059209D01*
X161086457Y152059209D02*
X161134076Y152106828D01*
X161134076Y152106828D02*
X161181695Y152202066D01*
X161181695Y152202066D02*
X161181695Y152297304D01*
X161181695Y152297304D02*
X161134076Y152392542D01*
X161134076Y152392542D02*
X161086457Y152440161D01*
X161086457Y152440161D02*
X160991219Y152487780D01*
X160991219Y152487780D02*
X160753124Y152487780D01*
X160753124Y152487780D02*
X160610267Y152440161D01*
X160324552Y152487780D02*
X159753124Y152487780D01*
X160038838Y151487780D02*
X160038838Y152487780D01*
X161610267Y141327780D02*
X162181695Y141327780D01*
X161895981Y141327780D02*
X161895981Y142327780D01*
X161895981Y142327780D02*
X161991219Y142184923D01*
X161991219Y142184923D02*
X162086457Y142089685D01*
X162086457Y142089685D02*
X162181695Y142042066D01*
X161134076Y141327780D02*
X160943600Y141327780D01*
X160943600Y141327780D02*
X160848362Y141375400D01*
X160848362Y141375400D02*
X160800743Y141423019D01*
X160800743Y141423019D02*
X160705505Y141565876D01*
X160705505Y141565876D02*
X160657886Y141756352D01*
X160657886Y141756352D02*
X160657886Y142137304D01*
X160657886Y142137304D02*
X160705505Y142232542D01*
X160705505Y142232542D02*
X160753124Y142280161D01*
X160753124Y142280161D02*
X160848362Y142327780D01*
X160848362Y142327780D02*
X161038838Y142327780D01*
X161038838Y142327780D02*
X161134076Y142280161D01*
X161134076Y142280161D02*
X161181695Y142232542D01*
X161181695Y142232542D02*
X161229314Y142137304D01*
X161229314Y142137304D02*
X161229314Y141899209D01*
X161229314Y141899209D02*
X161181695Y141803971D01*
X161181695Y141803971D02*
X161134076Y141756352D01*
X161134076Y141756352D02*
X161038838Y141708733D01*
X161038838Y141708733D02*
X160848362Y141708733D01*
X160848362Y141708733D02*
X160753124Y141756352D01*
X160753124Y141756352D02*
X160705505Y141803971D01*
X160705505Y141803971D02*
X160657886Y141899209D01*
X175489463Y132072542D02*
X175441844Y132120161D01*
X175441844Y132120161D02*
X175346606Y132167780D01*
X175346606Y132167780D02*
X175108511Y132167780D01*
X175108511Y132167780D02*
X175013273Y132120161D01*
X175013273Y132120161D02*
X174965654Y132072542D01*
X174965654Y132072542D02*
X174918035Y131977304D01*
X174918035Y131977304D02*
X174918035Y131882066D01*
X174918035Y131882066D02*
X174965654Y131739209D01*
X174965654Y131739209D02*
X175537082Y131167780D01*
X175537082Y131167780D02*
X174918035Y131167780D01*
X162229314Y149947780D02*
X161610267Y149947780D01*
X161610267Y149947780D02*
X161943600Y149566828D01*
X161943600Y149566828D02*
X161800743Y149566828D01*
X161800743Y149566828D02*
X161705505Y149519209D01*
X161705505Y149519209D02*
X161657886Y149471590D01*
X161657886Y149471590D02*
X161610267Y149376352D01*
X161610267Y149376352D02*
X161610267Y149138257D01*
X161610267Y149138257D02*
X161657886Y149043019D01*
X161657886Y149043019D02*
X161705505Y148995400D01*
X161705505Y148995400D02*
X161800743Y148947780D01*
X161800743Y148947780D02*
X162086457Y148947780D01*
X162086457Y148947780D02*
X162181695Y148995400D01*
X162181695Y148995400D02*
X162229314Y149043019D01*
X161181695Y149043019D02*
X161134076Y148995400D01*
X161134076Y148995400D02*
X161181695Y148947780D01*
X161181695Y148947780D02*
X161229314Y148995400D01*
X161229314Y148995400D02*
X161181695Y149043019D01*
X161181695Y149043019D02*
X161181695Y148947780D01*
X160800743Y149947780D02*
X160181696Y149947780D01*
X160181696Y149947780D02*
X160515029Y149566828D01*
X160515029Y149566828D02*
X160372172Y149566828D01*
X160372172Y149566828D02*
X160276934Y149519209D01*
X160276934Y149519209D02*
X160229315Y149471590D01*
X160229315Y149471590D02*
X160181696Y149376352D01*
X160181696Y149376352D02*
X160181696Y149138257D01*
X160181696Y149138257D02*
X160229315Y149043019D01*
X160229315Y149043019D02*
X160276934Y148995400D01*
X160276934Y148995400D02*
X160372172Y148947780D01*
X160372172Y148947780D02*
X160657886Y148947780D01*
X160657886Y148947780D02*
X160753124Y148995400D01*
X160753124Y148995400D02*
X160800743Y149043019D01*
X159848362Y149614447D02*
X159610267Y148947780D01*
X159610267Y148947780D02*
X159372172Y149614447D01*
X183145804Y156567780D02*
X183717232Y156567780D01*
X183431518Y156567780D02*
X183431518Y157567780D01*
X183431518Y157567780D02*
X183526756Y157424923D01*
X183526756Y157424923D02*
X183621994Y157329685D01*
X183621994Y157329685D02*
X183717232Y157282066D01*
X183717232Y147312542D02*
X183669613Y147360161D01*
X183669613Y147360161D02*
X183574375Y147407780D01*
X183574375Y147407780D02*
X183336280Y147407780D01*
X183336280Y147407780D02*
X183241042Y147360161D01*
X183241042Y147360161D02*
X183193423Y147312542D01*
X183193423Y147312542D02*
X183145804Y147217304D01*
X183145804Y147217304D02*
X183145804Y147122066D01*
X183145804Y147122066D02*
X183193423Y146979209D01*
X183193423Y146979209D02*
X183764851Y146407780D01*
X183764851Y146407780D02*
X183145804Y146407780D01*
X161610267Y133707780D02*
X162181695Y133707780D01*
X161895981Y133707780D02*
X161895981Y134707780D01*
X161895981Y134707780D02*
X161991219Y134564923D01*
X161991219Y134564923D02*
X162086457Y134469685D01*
X162086457Y134469685D02*
X162181695Y134422066D01*
X160753124Y134374447D02*
X160753124Y133707780D01*
X160991219Y134755400D02*
X161229314Y134041114D01*
X161229314Y134041114D02*
X160610267Y134041114D01*
X183479137Y155027780D02*
X183383899Y155027780D01*
X183383899Y155027780D02*
X183288661Y154980161D01*
X183288661Y154980161D02*
X183241042Y154932542D01*
X183241042Y154932542D02*
X183193423Y154837304D01*
X183193423Y154837304D02*
X183145804Y154646828D01*
X183145804Y154646828D02*
X183145804Y154408733D01*
X183145804Y154408733D02*
X183193423Y154218257D01*
X183193423Y154218257D02*
X183241042Y154123019D01*
X183241042Y154123019D02*
X183288661Y154075400D01*
X183288661Y154075400D02*
X183383899Y154027780D01*
X183383899Y154027780D02*
X183479137Y154027780D01*
X183479137Y154027780D02*
X183574375Y154075400D01*
X183574375Y154075400D02*
X183621994Y154123019D01*
X183621994Y154123019D02*
X183669613Y154218257D01*
X183669613Y154218257D02*
X183717232Y154408733D01*
X183717232Y154408733D02*
X183717232Y154646828D01*
X183717232Y154646828D02*
X183669613Y154837304D01*
X183669613Y154837304D02*
X183621994Y154932542D01*
X183621994Y154932542D02*
X183574375Y154980161D01*
X183574375Y154980161D02*
X183479137Y155027780D01*
X185241042Y149900161D02*
X185336280Y149947780D01*
X185336280Y149947780D02*
X185479137Y149947780D01*
X185479137Y149947780D02*
X185621994Y149900161D01*
X185621994Y149900161D02*
X185717232Y149804923D01*
X185717232Y149804923D02*
X185764851Y149709685D01*
X185764851Y149709685D02*
X185812470Y149519209D01*
X185812470Y149519209D02*
X185812470Y149376352D01*
X185812470Y149376352D02*
X185764851Y149185876D01*
X185764851Y149185876D02*
X185717232Y149090638D01*
X185717232Y149090638D02*
X185621994Y148995400D01*
X185621994Y148995400D02*
X185479137Y148947780D01*
X185479137Y148947780D02*
X185383899Y148947780D01*
X185383899Y148947780D02*
X185241042Y148995400D01*
X185241042Y148995400D02*
X185193423Y149043019D01*
X185193423Y149043019D02*
X185193423Y149376352D01*
X185193423Y149376352D02*
X185383899Y149376352D01*
X184764851Y148947780D02*
X184764851Y149947780D01*
X184764851Y149947780D02*
X184193423Y148947780D01*
X184193423Y148947780D02*
X184193423Y149947780D01*
X183717232Y148947780D02*
X183717232Y149947780D01*
X183717232Y149947780D02*
X183479137Y149947780D01*
X183479137Y149947780D02*
X183336280Y149900161D01*
X183336280Y149900161D02*
X183241042Y149804923D01*
X183241042Y149804923D02*
X183193423Y149709685D01*
X183193423Y149709685D02*
X183145804Y149519209D01*
X183145804Y149519209D02*
X183145804Y149376352D01*
X183145804Y149376352D02*
X183193423Y149185876D01*
X183193423Y149185876D02*
X183241042Y149090638D01*
X183241042Y149090638D02*
X183336280Y148995400D01*
X183336280Y148995400D02*
X183479137Y148947780D01*
X183479137Y148947780D02*
X183717232Y148947780D01*
X183241042Y141994447D02*
X183241042Y141327780D01*
X183479137Y142375400D02*
X183717232Y141661114D01*
X183717232Y141661114D02*
X183098185Y141661114D01*
X177458035Y131167780D02*
X178029463Y131167780D01*
X177743749Y131167780D02*
X177743749Y132167780D01*
X177743749Y132167780D02*
X177838987Y132024923D01*
X177838987Y132024923D02*
X177934225Y131929685D01*
X177934225Y131929685D02*
X178029463Y131882066D01*
X161610267Y154980161D02*
X161705505Y155027780D01*
X161705505Y155027780D02*
X161848362Y155027780D01*
X161848362Y155027780D02*
X161991219Y154980161D01*
X161991219Y154980161D02*
X162086457Y154884923D01*
X162086457Y154884923D02*
X162134076Y154789685D01*
X162134076Y154789685D02*
X162181695Y154599209D01*
X162181695Y154599209D02*
X162181695Y154456352D01*
X162181695Y154456352D02*
X162134076Y154265876D01*
X162134076Y154265876D02*
X162086457Y154170638D01*
X162086457Y154170638D02*
X161991219Y154075400D01*
X161991219Y154075400D02*
X161848362Y154027780D01*
X161848362Y154027780D02*
X161753124Y154027780D01*
X161753124Y154027780D02*
X161610267Y154075400D01*
X161610267Y154075400D02*
X161562648Y154123019D01*
X161562648Y154123019D02*
X161562648Y154456352D01*
X161562648Y154456352D02*
X161753124Y154456352D01*
X161134076Y154027780D02*
X161134076Y155027780D01*
X161134076Y155027780D02*
X160562648Y154027780D01*
X160562648Y154027780D02*
X160562648Y155027780D01*
X160086457Y154027780D02*
X160086457Y155027780D01*
X160086457Y155027780D02*
X159848362Y155027780D01*
X159848362Y155027780D02*
X159705505Y154980161D01*
X159705505Y154980161D02*
X159610267Y154884923D01*
X159610267Y154884923D02*
X159562648Y154789685D01*
X159562648Y154789685D02*
X159515029Y154599209D01*
X159515029Y154599209D02*
X159515029Y154456352D01*
X159515029Y154456352D02*
X159562648Y154265876D01*
X159562648Y154265876D02*
X159610267Y154170638D01*
X159610267Y154170638D02*
X159705505Y154075400D01*
X159705505Y154075400D02*
X159848362Y154027780D01*
X159848362Y154027780D02*
X160086457Y154027780D01*
X183526756Y131739209D02*
X183621994Y131786828D01*
X183621994Y131786828D02*
X183669613Y131834447D01*
X183669613Y131834447D02*
X183717232Y131929685D01*
X183717232Y131929685D02*
X183717232Y131977304D01*
X183717232Y131977304D02*
X183669613Y132072542D01*
X183669613Y132072542D02*
X183621994Y132120161D01*
X183621994Y132120161D02*
X183526756Y132167780D01*
X183526756Y132167780D02*
X183336280Y132167780D01*
X183336280Y132167780D02*
X183241042Y132120161D01*
X183241042Y132120161D02*
X183193423Y132072542D01*
X183193423Y132072542D02*
X183145804Y131977304D01*
X183145804Y131977304D02*
X183145804Y131929685D01*
X183145804Y131929685D02*
X183193423Y131834447D01*
X183193423Y131834447D02*
X183241042Y131786828D01*
X183241042Y131786828D02*
X183336280Y131739209D01*
X183336280Y131739209D02*
X183526756Y131739209D01*
X183526756Y131739209D02*
X183621994Y131691590D01*
X183621994Y131691590D02*
X183669613Y131643971D01*
X183669613Y131643971D02*
X183717232Y131548733D01*
X183717232Y131548733D02*
X183717232Y131358257D01*
X183717232Y131358257D02*
X183669613Y131263019D01*
X183669613Y131263019D02*
X183621994Y131215400D01*
X183621994Y131215400D02*
X183526756Y131167780D01*
X183526756Y131167780D02*
X183336280Y131167780D01*
X183336280Y131167780D02*
X183241042Y131215400D01*
X183241042Y131215400D02*
X183193423Y131263019D01*
X183193423Y131263019D02*
X183145804Y131358257D01*
X183145804Y131358257D02*
X183145804Y131548733D01*
X183145804Y131548733D02*
X183193423Y131643971D01*
X183193423Y131643971D02*
X183241042Y131691590D01*
X183241042Y131691590D02*
X183336280Y131739209D01*
X162181695Y147312542D02*
X162134076Y147360161D01*
X162134076Y147360161D02*
X162038838Y147407780D01*
X162038838Y147407780D02*
X161800743Y147407780D01*
X161800743Y147407780D02*
X161705505Y147360161D01*
X161705505Y147360161D02*
X161657886Y147312542D01*
X161657886Y147312542D02*
X161610267Y147217304D01*
X161610267Y147217304D02*
X161610267Y147122066D01*
X161610267Y147122066D02*
X161657886Y146979209D01*
X161657886Y146979209D02*
X162229314Y146407780D01*
X162229314Y146407780D02*
X161610267Y146407780D01*
X160657886Y146407780D02*
X161229314Y146407780D01*
X160943600Y146407780D02*
X160943600Y147407780D01*
X160943600Y147407780D02*
X161038838Y147264923D01*
X161038838Y147264923D02*
X161134076Y147169685D01*
X161134076Y147169685D02*
X161229314Y147122066D01*
X161610267Y136247780D02*
X162181695Y136247780D01*
X161895981Y136247780D02*
X161895981Y137247780D01*
X161895981Y137247780D02*
X161991219Y137104923D01*
X161991219Y137104923D02*
X162086457Y137009685D01*
X162086457Y137009685D02*
X162181695Y136962066D01*
X160705505Y137247780D02*
X161181695Y137247780D01*
X161181695Y137247780D02*
X161229314Y136771590D01*
X161229314Y136771590D02*
X161181695Y136819209D01*
X161181695Y136819209D02*
X161086457Y136866828D01*
X161086457Y136866828D02*
X160848362Y136866828D01*
X160848362Y136866828D02*
X160753124Y136819209D01*
X160753124Y136819209D02*
X160705505Y136771590D01*
X160705505Y136771590D02*
X160657886Y136676352D01*
X160657886Y136676352D02*
X160657886Y136438257D01*
X160657886Y136438257D02*
X160705505Y136343019D01*
X160705505Y136343019D02*
X160753124Y136295400D01*
X160753124Y136295400D02*
X160848362Y136247780D01*
X160848362Y136247780D02*
X161086457Y136247780D01*
X161086457Y136247780D02*
X161181695Y136295400D01*
X161181695Y136295400D02*
X161229314Y136343019D01*
X161610267Y138787780D02*
X162181695Y138787780D01*
X161895981Y138787780D02*
X161895981Y139787780D01*
X161895981Y139787780D02*
X161991219Y139644923D01*
X161991219Y139644923D02*
X162086457Y139549685D01*
X162086457Y139549685D02*
X162181695Y139502066D01*
X161038838Y139359209D02*
X161134076Y139406828D01*
X161134076Y139406828D02*
X161181695Y139454447D01*
X161181695Y139454447D02*
X161229314Y139549685D01*
X161229314Y139549685D02*
X161229314Y139597304D01*
X161229314Y139597304D02*
X161181695Y139692542D01*
X161181695Y139692542D02*
X161134076Y139740161D01*
X161134076Y139740161D02*
X161038838Y139787780D01*
X161038838Y139787780D02*
X160848362Y139787780D01*
X160848362Y139787780D02*
X160753124Y139740161D01*
X160753124Y139740161D02*
X160705505Y139692542D01*
X160705505Y139692542D02*
X160657886Y139597304D01*
X160657886Y139597304D02*
X160657886Y139549685D01*
X160657886Y139549685D02*
X160705505Y139454447D01*
X160705505Y139454447D02*
X160753124Y139406828D01*
X160753124Y139406828D02*
X160848362Y139359209D01*
X160848362Y139359209D02*
X161038838Y139359209D01*
X161038838Y139359209D02*
X161134076Y139311590D01*
X161134076Y139311590D02*
X161181695Y139263971D01*
X161181695Y139263971D02*
X161229314Y139168733D01*
X161229314Y139168733D02*
X161229314Y138978257D01*
X161229314Y138978257D02*
X161181695Y138883019D01*
X161181695Y138883019D02*
X161134076Y138835400D01*
X161134076Y138835400D02*
X161038838Y138787780D01*
X161038838Y138787780D02*
X160848362Y138787780D01*
X160848362Y138787780D02*
X160753124Y138835400D01*
X160753124Y138835400D02*
X160705505Y138883019D01*
X160705505Y138883019D02*
X160657886Y138978257D01*
X160657886Y138978257D02*
X160657886Y139168733D01*
X160657886Y139168733D02*
X160705505Y139263971D01*
X160705505Y139263971D02*
X160753124Y139311590D01*
X160753124Y139311590D02*
X160848362Y139359209D01*
X183241042Y137247780D02*
X183431518Y137247780D01*
X183431518Y137247780D02*
X183526756Y137200161D01*
X183526756Y137200161D02*
X183574375Y137152542D01*
X183574375Y137152542D02*
X183669613Y137009685D01*
X183669613Y137009685D02*
X183717232Y136819209D01*
X183717232Y136819209D02*
X183717232Y136438257D01*
X183717232Y136438257D02*
X183669613Y136343019D01*
X183669613Y136343019D02*
X183621994Y136295400D01*
X183621994Y136295400D02*
X183526756Y136247780D01*
X183526756Y136247780D02*
X183336280Y136247780D01*
X183336280Y136247780D02*
X183241042Y136295400D01*
X183241042Y136295400D02*
X183193423Y136343019D01*
X183193423Y136343019D02*
X183145804Y136438257D01*
X183145804Y136438257D02*
X183145804Y136676352D01*
X183145804Y136676352D02*
X183193423Y136771590D01*
X183193423Y136771590D02*
X183241042Y136819209D01*
X183241042Y136819209D02*
X183336280Y136866828D01*
X183336280Y136866828D02*
X183526756Y136866828D01*
X183526756Y136866828D02*
X183621994Y136819209D01*
X183621994Y136819209D02*
X183669613Y136771590D01*
X183669613Y136771590D02*
X183717232Y136676352D01*
X183621994Y128627780D02*
X183431518Y128627780D01*
X183431518Y128627780D02*
X183336280Y128675400D01*
X183336280Y128675400D02*
X183288661Y128723019D01*
X183288661Y128723019D02*
X183193423Y128865876D01*
X183193423Y128865876D02*
X183145804Y129056352D01*
X183145804Y129056352D02*
X183145804Y129437304D01*
X183145804Y129437304D02*
X183193423Y129532542D01*
X183193423Y129532542D02*
X183241042Y129580161D01*
X183241042Y129580161D02*
X183336280Y129627780D01*
X183336280Y129627780D02*
X183526756Y129627780D01*
X183526756Y129627780D02*
X183621994Y129580161D01*
X183621994Y129580161D02*
X183669613Y129532542D01*
X183669613Y129532542D02*
X183717232Y129437304D01*
X183717232Y129437304D02*
X183717232Y129199209D01*
X183717232Y129199209D02*
X183669613Y129103971D01*
X183669613Y129103971D02*
X183621994Y129056352D01*
X183621994Y129056352D02*
X183526756Y129008733D01*
X183526756Y129008733D02*
X183336280Y129008733D01*
X183336280Y129008733D02*
X183241042Y129056352D01*
X183241042Y129056352D02*
X183193423Y129103971D01*
X183193423Y129103971D02*
X183145804Y129199209D01*
X162181695Y144772542D02*
X162134076Y144820161D01*
X162134076Y144820161D02*
X162038838Y144867780D01*
X162038838Y144867780D02*
X161800743Y144867780D01*
X161800743Y144867780D02*
X161705505Y144820161D01*
X161705505Y144820161D02*
X161657886Y144772542D01*
X161657886Y144772542D02*
X161610267Y144677304D01*
X161610267Y144677304D02*
X161610267Y144582066D01*
X161610267Y144582066D02*
X161657886Y144439209D01*
X161657886Y144439209D02*
X162229314Y143867780D01*
X162229314Y143867780D02*
X161610267Y143867780D01*
X160991219Y144867780D02*
X160895981Y144867780D01*
X160895981Y144867780D02*
X160800743Y144820161D01*
X160800743Y144820161D02*
X160753124Y144772542D01*
X160753124Y144772542D02*
X160705505Y144677304D01*
X160705505Y144677304D02*
X160657886Y144486828D01*
X160657886Y144486828D02*
X160657886Y144248733D01*
X160657886Y144248733D02*
X160705505Y144058257D01*
X160705505Y144058257D02*
X160753124Y143963019D01*
X160753124Y143963019D02*
X160800743Y143915400D01*
X160800743Y143915400D02*
X160895981Y143867780D01*
X160895981Y143867780D02*
X160991219Y143867780D01*
X160991219Y143867780D02*
X161086457Y143915400D01*
X161086457Y143915400D02*
X161134076Y143963019D01*
X161134076Y143963019D02*
X161181695Y144058257D01*
X161181695Y144058257D02*
X161229314Y144248733D01*
X161229314Y144248733D02*
X161229314Y144486828D01*
X161229314Y144486828D02*
X161181695Y144677304D01*
X161181695Y144677304D02*
X161134076Y144772542D01*
X161134076Y144772542D02*
X161086457Y144820161D01*
X161086457Y144820161D02*
X160991219Y144867780D01*
X183193423Y139787780D02*
X183669613Y139787780D01*
X183669613Y139787780D02*
X183717232Y139311590D01*
X183717232Y139311590D02*
X183669613Y139359209D01*
X183669613Y139359209D02*
X183574375Y139406828D01*
X183574375Y139406828D02*
X183336280Y139406828D01*
X183336280Y139406828D02*
X183241042Y139359209D01*
X183241042Y139359209D02*
X183193423Y139311590D01*
X183193423Y139311590D02*
X183145804Y139216352D01*
X183145804Y139216352D02*
X183145804Y138978257D01*
X183145804Y138978257D02*
X183193423Y138883019D01*
X183193423Y138883019D02*
X183241042Y138835400D01*
X183241042Y138835400D02*
X183336280Y138787780D01*
X183336280Y138787780D02*
X183574375Y138787780D01*
X183574375Y138787780D02*
X183669613Y138835400D01*
X183669613Y138835400D02*
X183717232Y138883019D01*
X161610267Y131167780D02*
X162181695Y131167780D01*
X161895981Y131167780D02*
X161895981Y132167780D01*
X161895981Y132167780D02*
X161991219Y132024923D01*
X161991219Y132024923D02*
X162086457Y131929685D01*
X162086457Y131929685D02*
X162181695Y131882066D01*
X160753124Y132167780D02*
X160943600Y132167780D01*
X160943600Y132167780D02*
X161038838Y132120161D01*
X161038838Y132120161D02*
X161086457Y132072542D01*
X161086457Y132072542D02*
X161181695Y131929685D01*
X161181695Y131929685D02*
X161229314Y131739209D01*
X161229314Y131739209D02*
X161229314Y131358257D01*
X161229314Y131358257D02*
X161181695Y131263019D01*
X161181695Y131263019D02*
X161134076Y131215400D01*
X161134076Y131215400D02*
X161038838Y131167780D01*
X161038838Y131167780D02*
X160848362Y131167780D01*
X160848362Y131167780D02*
X160753124Y131215400D01*
X160753124Y131215400D02*
X160705505Y131263019D01*
X160705505Y131263019D02*
X160657886Y131358257D01*
X160657886Y131358257D02*
X160657886Y131596352D01*
X160657886Y131596352D02*
X160705505Y131691590D01*
X160705505Y131691590D02*
X160753124Y131739209D01*
X160753124Y131739209D02*
X160848362Y131786828D01*
X160848362Y131786828D02*
X161038838Y131786828D01*
X161038838Y131786828D02*
X161134076Y131739209D01*
X161134076Y131739209D02*
X161181695Y131691590D01*
X161181695Y131691590D02*
X161229314Y131596352D01*
X183764851Y144867780D02*
X183145804Y144867780D01*
X183145804Y144867780D02*
X183479137Y144486828D01*
X183479137Y144486828D02*
X183336280Y144486828D01*
X183336280Y144486828D02*
X183241042Y144439209D01*
X183241042Y144439209D02*
X183193423Y144391590D01*
X183193423Y144391590D02*
X183145804Y144296352D01*
X183145804Y144296352D02*
X183145804Y144058257D01*
X183145804Y144058257D02*
X183193423Y143963019D01*
X183193423Y143963019D02*
X183241042Y143915400D01*
X183241042Y143915400D02*
X183336280Y143867780D01*
X183336280Y143867780D02*
X183621994Y143867780D01*
X183621994Y143867780D02*
X183717232Y143915400D01*
X183717232Y143915400D02*
X183764851Y143963019D01*
X172997082Y132167782D02*
X172330416Y132167782D01*
X172330416Y132167782D02*
X172758987Y131167782D01*
X185241042Y152440161D02*
X185336280Y152487780D01*
X185336280Y152487780D02*
X185479137Y152487780D01*
X185479137Y152487780D02*
X185621994Y152440161D01*
X185621994Y152440161D02*
X185717232Y152344923D01*
X185717232Y152344923D02*
X185764851Y152249685D01*
X185764851Y152249685D02*
X185812470Y152059209D01*
X185812470Y152059209D02*
X185812470Y151916352D01*
X185812470Y151916352D02*
X185764851Y151725876D01*
X185764851Y151725876D02*
X185717232Y151630638D01*
X185717232Y151630638D02*
X185621994Y151535400D01*
X185621994Y151535400D02*
X185479137Y151487780D01*
X185479137Y151487780D02*
X185383899Y151487780D01*
X185383899Y151487780D02*
X185241042Y151535400D01*
X185241042Y151535400D02*
X185193423Y151583019D01*
X185193423Y151583019D02*
X185193423Y151916352D01*
X185193423Y151916352D02*
X185383899Y151916352D01*
X184764851Y151487780D02*
X184764851Y152487780D01*
X184764851Y152487780D02*
X184193423Y151487780D01*
X184193423Y151487780D02*
X184193423Y152487780D01*
X183717232Y151487780D02*
X183717232Y152487780D01*
X183717232Y152487780D02*
X183479137Y152487780D01*
X183479137Y152487780D02*
X183336280Y152440161D01*
X183336280Y152440161D02*
X183241042Y152344923D01*
X183241042Y152344923D02*
X183193423Y152249685D01*
X183193423Y152249685D02*
X183145804Y152059209D01*
X183145804Y152059209D02*
X183145804Y151916352D01*
X183145804Y151916352D02*
X183193423Y151725876D01*
X183193423Y151725876D02*
X183241042Y151630638D01*
X183241042Y151630638D02*
X183336280Y151535400D01*
X183336280Y151535400D02*
X183479137Y151487780D01*
X183479137Y151487780D02*
X183717232Y151487780D01*
X161800743Y157091590D02*
X161657886Y157043971D01*
X161657886Y157043971D02*
X161610267Y156996352D01*
X161610267Y156996352D02*
X161562648Y156901114D01*
X161562648Y156901114D02*
X161562648Y156758257D01*
X161562648Y156758257D02*
X161610267Y156663019D01*
X161610267Y156663019D02*
X161657886Y156615400D01*
X161657886Y156615400D02*
X161753124Y156567780D01*
X161753124Y156567780D02*
X162134076Y156567780D01*
X162134076Y156567780D02*
X162134076Y157567780D01*
X162134076Y157567780D02*
X161800743Y157567780D01*
X161800743Y157567780D02*
X161705505Y157520161D01*
X161705505Y157520161D02*
X161657886Y157472542D01*
X161657886Y157472542D02*
X161610267Y157377304D01*
X161610267Y157377304D02*
X161610267Y157282066D01*
X161610267Y157282066D02*
X161657886Y157186828D01*
X161657886Y157186828D02*
X161705505Y157139209D01*
X161705505Y157139209D02*
X161800743Y157091590D01*
X161800743Y157091590D02*
X162134076Y157091590D01*
X161134076Y156948733D02*
X160372172Y156948733D01*
X160753124Y156567780D02*
X160753124Y157329685D01*
X183764851Y134707780D02*
X183098185Y134707780D01*
X183098185Y134707780D02*
X183526756Y133707780D01*
X161610267Y128627780D02*
X162181695Y128627780D01*
X161895981Y128627780D02*
X161895981Y129627780D01*
X161895981Y129627780D02*
X161991219Y129484923D01*
X161991219Y129484923D02*
X162086457Y129389685D01*
X162086457Y129389685D02*
X162181695Y129342066D01*
X160991219Y129627780D02*
X160895981Y129627780D01*
X160895981Y129627780D02*
X160800743Y129580161D01*
X160800743Y129580161D02*
X160753124Y129532542D01*
X160753124Y129532542D02*
X160705505Y129437304D01*
X160705505Y129437304D02*
X160657886Y129246828D01*
X160657886Y129246828D02*
X160657886Y129008733D01*
X160657886Y129008733D02*
X160705505Y128818257D01*
X160705505Y128818257D02*
X160753124Y128723019D01*
X160753124Y128723019D02*
X160800743Y128675400D01*
X160800743Y128675400D02*
X160895981Y128627780D01*
X160895981Y128627780D02*
X160991219Y128627780D01*
X160991219Y128627780D02*
X161086457Y128675400D01*
X161086457Y128675400D02*
X161134076Y128723019D01*
X161134076Y128723019D02*
X161181695Y128818257D01*
X161181695Y128818257D02*
X161229314Y129008733D01*
X161229314Y129008733D02*
X161229314Y129246828D01*
X161229314Y129246828D02*
X161181695Y129437304D01*
X161181695Y129437304D02*
X161134076Y129532542D01*
X161134076Y129532542D02*
X161086457Y129580161D01*
X161086457Y129580161D02*
X160991219Y129627780D01*
%TO.C,U1*%
X127988750Y161110000D02*
X127988750Y127810000D01*
X127988750Y161110000D02*
X146288750Y161110000D01*
X127988750Y127810000D02*
X146288750Y127810000D01*
X146288750Y161110000D02*
X146288750Y127810000D01*
D12*
%TO.C,RstL1*%
X133228750Y154420000D02*
X133228750Y154730000D01*
X133228750Y154420000D02*
X142048750Y154420000D01*
X133228750Y158940000D02*
X133228750Y158630000D01*
X139138750Y159640000D02*
X140138750Y159640000D01*
X139638750Y159140000D02*
X139138750Y159640000D01*
X140138750Y159640000D02*
X139638750Y159140000D01*
X142048750Y154420000D02*
X142048750Y154730000D01*
X142048750Y158630000D02*
X142048750Y158940000D01*
X142048750Y158940000D02*
X133228750Y158940000D01*
%TO.C,S28*%
X71088750Y107230000D02*
X71088750Y106280000D01*
X71088750Y107230000D02*
X73088750Y107230000D01*
X71088750Y102530000D02*
X71088750Y103480000D01*
X71088750Y102530000D02*
X73088750Y102530000D01*
X83288750Y106180000D02*
X81588750Y106180000D01*
X83288750Y106180000D02*
X83288750Y105230000D01*
X83288750Y101480000D02*
X81588750Y101480000D01*
X83288750Y101480000D02*
X83288750Y102380000D01*
%TO.C,S6*%
X109188750Y145330000D02*
X109188750Y144380000D01*
X109188750Y145330000D02*
X111188750Y145330000D01*
X109188750Y140630000D02*
X109188750Y141580000D01*
X109188750Y140630000D02*
X111188750Y140630000D01*
X121388750Y144280000D02*
X119688750Y144280000D01*
X121388750Y144280000D02*
X121388750Y143330000D01*
X121388750Y139580000D02*
X119688750Y139580000D01*
X121388750Y139580000D02*
X121388750Y140480000D01*
%TO.C,S48*%
X283020000Y88180000D02*
X283020000Y87230000D01*
X283020000Y88180000D02*
X285020000Y88180000D01*
X283020000Y83480001D02*
X283020000Y84430000D01*
X283020000Y83480001D02*
X285020000Y83480000D01*
X295220000Y87130000D02*
X293520000Y87130000D01*
X295220000Y87130000D02*
X295220000Y86180000D01*
X295220000Y82430000D02*
X293520000Y82429999D01*
X295220000Y82430000D02*
X295220000Y83330000D01*
%TO.C,S36*%
X283020000Y107230000D02*
X283020000Y106280000D01*
X283020000Y107230000D02*
X285020000Y107230000D01*
X283020000Y102530000D02*
X283020000Y103480000D01*
X283020000Y102530000D02*
X285020000Y102530000D01*
X295220000Y106180000D02*
X293520000Y106180000D01*
X295220000Y106180000D02*
X295220000Y105230000D01*
X295220000Y101480000D02*
X293520000Y101480000D01*
X295220000Y101480000D02*
X295220000Y102380000D01*
%TO.C,S19*%
X185388750Y126280000D02*
X185388750Y125330000D01*
X185388750Y126280000D02*
X187388750Y126280000D01*
X185388750Y121580000D02*
X185388750Y122530000D01*
X185388750Y121580000D02*
X187388750Y121580000D01*
X197588750Y125230000D02*
X195888750Y125230000D01*
X197588750Y125230000D02*
X197588750Y124280000D01*
X197588750Y120530000D02*
X195888750Y120530000D01*
X197588750Y120530000D02*
X197588750Y121430000D01*
%TO.C,S44*%
X194913750Y88180000D02*
X194913750Y87230000D01*
X194913750Y88180000D02*
X196913750Y88180000D01*
X194913750Y83480000D02*
X194913750Y84430000D01*
X194913750Y83480000D02*
X196913750Y83480000D01*
X207113750Y87130000D02*
X205413750Y87130000D01*
X207113750Y87130000D02*
X207113750Y86180000D01*
X207113750Y82430000D02*
X205413750Y82430000D01*
X207113750Y82430000D02*
X207113750Y83330000D01*
%TO.C,S23*%
X261588750Y126280000D02*
X261588750Y125330000D01*
X261588750Y126280000D02*
X263588750Y126280000D01*
X261588750Y121580000D02*
X261588750Y122530000D01*
X261588750Y121580000D02*
X263588750Y121580000D01*
X273788750Y125230000D02*
X272088750Y125230000D01*
X273788750Y125230000D02*
X273788750Y124280000D01*
X273788750Y120530000D02*
X272088750Y120530000D01*
X273788750Y120530000D02*
X273788750Y121430000D01*
%TO.C,S9*%
X223488750Y145330000D02*
X223488750Y144380000D01*
X223488750Y145330000D02*
X225488750Y145330000D01*
X223488750Y140630000D02*
X223488750Y141580000D01*
X223488750Y140630000D02*
X225488750Y140630000D01*
X235688750Y144280000D02*
X233988750Y144280000D01*
X235688750Y144280000D02*
X235688750Y143330000D01*
X235688750Y139580000D02*
X233988750Y139580000D01*
X235688750Y139580000D02*
X235688750Y140480000D01*
%TO.C,S22*%
X242538750Y126280000D02*
X242538750Y125330000D01*
X242538750Y126280000D02*
X244538750Y126280000D01*
X242538750Y121580000D02*
X242538750Y122530000D01*
X242538750Y121580000D02*
X244538750Y121580000D01*
X254738750Y125230000D02*
X253038750Y125230000D01*
X254738750Y125230000D02*
X254738750Y124280000D01*
X254738750Y120530000D02*
X253038750Y120530000D01*
X254738750Y120530000D02*
X254738750Y121430000D01*
%TO.C,S2*%
X32988750Y145330000D02*
X32988750Y144380000D01*
X32988750Y145330000D02*
X34988750Y145330000D01*
X32988750Y140630000D02*
X32988750Y141580000D01*
X32988750Y140630000D02*
X34988750Y140630000D01*
X45188750Y144280000D02*
X43488750Y144280000D01*
X45188750Y144280000D02*
X45188750Y143330000D01*
X45188750Y139580000D02*
X43488750Y139580000D01*
X45188750Y139580000D02*
X45188750Y140480000D01*
%TO.C,S40*%
X71088750Y88180000D02*
X71088750Y87230000D01*
X71088750Y88180000D02*
X73088750Y88180000D01*
X71088750Y83480000D02*
X71088750Y84430000D01*
X71088750Y83480000D02*
X73088750Y83480000D01*
X83288750Y87130000D02*
X81588750Y87130000D01*
X83288750Y87130000D02*
X83288750Y86180000D01*
X83288750Y82430000D02*
X81588750Y82430000D01*
X83288750Y82430000D02*
X83288750Y83330000D01*
%TO.C,S10*%
X242538750Y145330000D02*
X242538750Y144380000D01*
X242538750Y145330000D02*
X244538750Y145330000D01*
X242538750Y140630000D02*
X242538750Y141580000D01*
X242538750Y140630000D02*
X244538750Y140630000D01*
X254738750Y144280000D02*
X253038750Y144280000D01*
X254738750Y144280000D02*
X254738750Y143330000D01*
X254738750Y139580000D02*
X253038750Y139580000D01*
X254738750Y139580000D02*
X254738750Y140480000D01*
%TO.C,S47*%
X261588749Y88180000D02*
X261588750Y87230000D01*
X261588749Y88180000D02*
X263588750Y88180000D01*
X261588750Y83480000D02*
X261588750Y84430000D01*
X261588750Y83480000D02*
X263588750Y83480000D01*
X273788750Y87130000D02*
X272088750Y87130001D01*
X273788750Y87130000D02*
X273788749Y86180000D01*
X273788750Y82430000D02*
X272088750Y82430000D01*
X273788750Y82430000D02*
X273788750Y83330000D01*
%TO.C,S21*%
X223488750Y126280000D02*
X223488750Y125330000D01*
X223488750Y126280000D02*
X225488750Y126280000D01*
X223488750Y121580000D02*
X223488750Y122530000D01*
X223488750Y121580000D02*
X225488750Y121580000D01*
X235688750Y125230000D02*
X233988750Y125230000D01*
X235688750Y125230000D02*
X235688750Y124280000D01*
X235688750Y120530000D02*
X233988750Y120530000D01*
X235688750Y120530000D02*
X235688750Y121430000D01*
%TO.C,S11*%
X261588750Y145330000D02*
X261588750Y144380000D01*
X261588750Y145330000D02*
X263588750Y145330000D01*
X261588750Y140630000D02*
X261588750Y141580000D01*
X261588750Y140630000D02*
X263588750Y140630000D01*
X273788750Y144280000D02*
X272088750Y144280000D01*
X273788750Y144280000D02*
X273788750Y143330000D01*
X273788750Y139580000D02*
X272088750Y139580000D01*
X273788750Y139580000D02*
X273788750Y140480000D01*
%TO.C,S15*%
X52038750Y126280000D02*
X52038750Y125330000D01*
X52038750Y126280000D02*
X54038750Y126280000D01*
X52038750Y121580000D02*
X52038750Y122530000D01*
X52038750Y121580000D02*
X54038750Y121580000D01*
X64238750Y125230000D02*
X62538750Y125230000D01*
X64238750Y125230000D02*
X64238750Y124280000D01*
X64238750Y120530000D02*
X62538750Y120530000D01*
X64238750Y120530000D02*
X64238750Y121430000D01*
%TO.C,S35*%
X261588750Y107230000D02*
X261588750Y106280000D01*
X261588750Y107230000D02*
X263588750Y107230000D01*
X261588750Y102530000D02*
X261588750Y103480000D01*
X261588750Y102530000D02*
X263588750Y102530000D01*
X273788750Y106180000D02*
X272088750Y106180000D01*
X273788750Y106180000D02*
X273788750Y105230000D01*
X273788750Y101480000D02*
X272088750Y101480000D01*
X273788750Y101480000D02*
X273788750Y102380000D01*
%TO.C,S20*%
X204438750Y126280000D02*
X204438750Y125330000D01*
X204438750Y126280000D02*
X206438750Y126280000D01*
X204438750Y121580000D02*
X204438750Y122530000D01*
X204438750Y121580000D02*
X206438750Y121580000D01*
X216638750Y125230000D02*
X214938750Y125230000D01*
X216638750Y125230000D02*
X216638750Y124280000D01*
X216638750Y120530000D02*
X214938750Y120530000D01*
X216638750Y120530000D02*
X216638750Y121430000D01*
%TO.C,S29*%
X90138750Y107230000D02*
X90138750Y106280000D01*
X90138750Y107230000D02*
X92138750Y107230000D01*
X90138750Y102530000D02*
X90138750Y103480000D01*
X90138750Y102530000D02*
X92138750Y102530000D01*
X102338750Y106180000D02*
X100638750Y106180000D01*
X102338750Y106180000D02*
X102338750Y105230000D01*
X102338750Y101480000D02*
X100638750Y101480000D01*
X102338750Y101480000D02*
X102338750Y102380000D01*
%TO.C,S1*%
X11557500Y145330000D02*
X11557500Y144380000D01*
X11557500Y145330000D02*
X13557500Y145330000D01*
X11557500Y140630000D02*
X11557500Y141580000D01*
X11557500Y140630000D02*
X13557500Y140630000D01*
X23757500Y144280000D02*
X22057500Y144280000D01*
X23757500Y144280000D02*
X23757500Y143330000D01*
X23757500Y139580000D02*
X22057500Y139580000D01*
X23757500Y139580000D02*
X23757500Y140480000D01*
%TO.C,S33*%
X223488750Y107230000D02*
X223488750Y106280000D01*
X223488750Y107230000D02*
X225488750Y107230000D01*
X223488750Y102530000D02*
X223488750Y103480000D01*
X223488750Y102530000D02*
X225488750Y102530000D01*
X235688750Y106180000D02*
X233988750Y106180000D01*
X235688750Y106180000D02*
X235688750Y105230000D01*
X235688750Y101480000D02*
X233988750Y101480000D01*
X235688750Y101480000D02*
X235688750Y102380000D01*
D10*
%TO.C,U2*%
X163513750Y161110000D02*
X163513750Y127810000D01*
X163513750Y161110000D02*
X181813750Y161110000D01*
X163513750Y127810000D02*
X181813750Y127810000D01*
X181813750Y161110000D02*
X181813750Y127810000D01*
D12*
%TO.C,S34*%
X242538750Y107230000D02*
X242538750Y106280000D01*
X242538750Y107230000D02*
X244538750Y107230000D01*
X242538750Y102530000D02*
X242538750Y103480000D01*
X242538750Y102530000D02*
X244538750Y102530000D01*
X254738750Y106180000D02*
X253038750Y106180000D01*
X254738750Y106180000D02*
X254738750Y105230000D01*
X254738750Y101480000D02*
X253038750Y101480000D01*
X254738750Y101480000D02*
X254738750Y102380000D01*
%TO.C,S41*%
X99663750Y88180000D02*
X99663750Y87230000D01*
X99663750Y88180000D02*
X101663750Y88180000D01*
X99663750Y83480000D02*
X99663750Y84430000D01*
X99663750Y83480000D02*
X101663750Y83480000D01*
X111863750Y87130000D02*
X110163750Y87130000D01*
X111863750Y87130000D02*
X111863750Y86180000D01*
X111863750Y82430000D02*
X110163750Y82430000D01*
X111863750Y82430000D02*
X111863750Y83330000D01*
%TO.C,S16*%
X71088750Y126280000D02*
X71088750Y125330000D01*
X71088750Y126280000D02*
X73088750Y126280000D01*
X71088750Y121580000D02*
X71088750Y122530000D01*
X71088750Y121580000D02*
X73088750Y121580000D01*
X83288750Y125230000D02*
X81588750Y125230000D01*
X83288750Y125230000D02*
X83288750Y124280000D01*
X83288750Y120530000D02*
X81588750Y120530000D01*
X83288750Y120530000D02*
X83288750Y121430000D01*
%TO.C,S8*%
X204438750Y145330000D02*
X204438750Y144380000D01*
X204438750Y145330000D02*
X206438750Y145330000D01*
X204438750Y140630000D02*
X204438750Y141580000D01*
X204438750Y140630000D02*
X206438750Y140630000D01*
X216638750Y144280000D02*
X214938750Y144280000D01*
X216638750Y144280000D02*
X216638750Y143330000D01*
X216638750Y139580000D02*
X214938750Y139580000D01*
X216638750Y139580000D02*
X216638750Y140480000D01*
%TO.C,S5*%
X90138750Y145330000D02*
X90138750Y144380000D01*
X90138750Y145330000D02*
X92138750Y145330000D01*
X90138750Y140630000D02*
X90138750Y141580000D01*
X90138750Y140630000D02*
X92138750Y140630000D01*
X102338750Y144280000D02*
X100638750Y144280000D01*
X102338750Y144280000D02*
X102338750Y143330000D01*
X102338750Y139580000D02*
X100638750Y139580000D01*
X102338750Y139580000D02*
X102338750Y140480000D01*
%TO.C,S38*%
X32988750Y88180000D02*
X32988750Y87230000D01*
X32988750Y88180000D02*
X34988750Y88180000D01*
X32988750Y83480000D02*
X32988750Y84430000D01*
X32988750Y83480000D02*
X34988750Y83480000D01*
X45188750Y87130000D02*
X43488750Y87130000D01*
X45188750Y87130000D02*
X45188750Y86180000D01*
X45188750Y82430000D02*
X43488750Y82430000D01*
X45188750Y82430000D02*
X45188750Y83330000D01*
%TO.C,S7*%
X185388750Y145330000D02*
X185388750Y144380000D01*
X185388750Y145330000D02*
X187388750Y145330000D01*
X185388750Y140630000D02*
X185388750Y141580000D01*
X185388750Y140630000D02*
X187388750Y140630000D01*
X197588750Y144280000D02*
X195888750Y144280000D01*
X197588750Y144280000D02*
X197588750Y143330000D01*
X197588750Y139580000D02*
X195888750Y139580000D01*
X197588750Y139580000D02*
X197588750Y140480000D01*
%TO.C,S37*%
X11557500Y88180000D02*
X11557500Y87230000D01*
X11557500Y88180000D02*
X13557500Y88180000D01*
X11557500Y83480000D02*
X11557500Y84430000D01*
X11557500Y83480000D02*
X13557500Y83480000D01*
X23757500Y87130000D02*
X22057500Y87130000D01*
X23757500Y87130000D02*
X23757500Y86180000D01*
X23757500Y82430000D02*
X22057500Y82430000D01*
X23757500Y82430000D02*
X23757500Y83330000D01*
%TO.C,S27*%
X52038750Y107230000D02*
X52038750Y106280000D01*
X52038750Y107230000D02*
X54038750Y107230000D01*
X52038750Y102530000D02*
X52038750Y103480000D01*
X52038750Y102530000D02*
X54038750Y102530000D01*
X64238750Y106180000D02*
X62538750Y106180000D01*
X64238750Y106180000D02*
X64238750Y105230000D01*
X64238750Y101480000D02*
X62538750Y101480000D01*
X64238750Y101480000D02*
X64238750Y102380000D01*
%TO.C,S42*%
X128204053Y80191668D02*
X128449931Y81109298D01*
X128204053Y80191668D02*
X130135905Y79674030D01*
X129420501Y84731520D02*
X129174624Y83813890D01*
X129420501Y84731520D02*
X131352354Y84213882D01*
X139716588Y76019854D02*
X138074514Y76459846D01*
X139716588Y76019854D02*
X139949525Y76889187D01*
X140933038Y80559705D02*
X139290964Y80999698D01*
X140933038Y80559705D02*
X140687158Y79642076D01*
%TO.C,S4*%
X71088750Y145330000D02*
X71088750Y144380000D01*
X71088750Y145330000D02*
X73088750Y145330000D01*
X71088750Y140630000D02*
X71088750Y141580000D01*
X71088750Y140630000D02*
X73088750Y140630000D01*
X83288750Y144280000D02*
X81588750Y144280000D01*
X83288750Y144280000D02*
X83288750Y143330000D01*
X83288750Y139580000D02*
X81588750Y139580000D01*
X83288750Y139580000D02*
X83288750Y140480000D01*
%TO.C,S46*%
X242538750Y88180000D02*
X242538750Y87230000D01*
X242538750Y88180000D02*
X244538750Y88180000D01*
X242538750Y83480000D02*
X242538750Y84430000D01*
X242538750Y83480000D02*
X244538750Y83480000D01*
X254738750Y87130000D02*
X253038750Y87130000D01*
X254738750Y87130000D02*
X254738750Y86180000D01*
X254738750Y82430000D02*
X253038750Y82430000D01*
X254738750Y82430000D02*
X254738750Y83330000D01*
%TO.C,S32*%
X204438750Y107230000D02*
X204438750Y106280000D01*
X204438750Y107230000D02*
X206438750Y107230000D01*
X204438750Y102530000D02*
X204438750Y103480000D01*
X204438750Y102530000D02*
X206438750Y102530000D01*
X216638750Y106180000D02*
X214938750Y106180000D01*
X216638750Y106180000D02*
X216638750Y105230000D01*
X216638750Y101480000D02*
X214938750Y101480000D01*
X216638750Y101480000D02*
X216638750Y102380000D01*
%TO.C,S43*%
X165634036Y81108053D02*
X165879914Y80190423D01*
X165634036Y81108053D02*
X167565888Y81625691D01*
X166850485Y76568203D02*
X166604607Y77485831D01*
X166850485Y76568203D02*
X168782337Y77085840D01*
X177690091Y83251423D02*
X176048017Y82811431D01*
X177690091Y83251423D02*
X177935969Y82333794D01*
X178906541Y78711572D02*
X177264467Y78271578D01*
X178906541Y78711572D02*
X178673603Y79580905D01*
%TO.C,S31*%
X185388750Y107230000D02*
X185388750Y106280000D01*
X185388750Y107230000D02*
X187388750Y107230000D01*
X185388750Y102530000D02*
X185388750Y103480000D01*
X185388750Y102530000D02*
X187388750Y102530000D01*
X197588750Y106180000D02*
X195888750Y106180000D01*
X197588750Y106180000D02*
X197588750Y105230000D01*
X197588750Y101480000D02*
X195888750Y101480000D01*
X197588750Y101480000D02*
X197588750Y102380000D01*
%TO.C,S3*%
X52038750Y145330000D02*
X52038750Y144380000D01*
X52038750Y145330000D02*
X54038750Y145330000D01*
X52038750Y140630000D02*
X52038750Y141580000D01*
X52038750Y140630000D02*
X54038750Y140630000D01*
X64238750Y144280000D02*
X62538750Y144280000D01*
X64238750Y144280000D02*
X64238750Y143330000D01*
X64238750Y139580000D02*
X62538750Y139580000D01*
X64238750Y139580000D02*
X64238750Y140480000D01*
%TO.C,S13*%
X11557500Y126280000D02*
X11557500Y125330000D01*
X11557500Y126280000D02*
X13557500Y126280000D01*
X11557500Y121580000D02*
X11557500Y122530000D01*
X11557500Y121580000D02*
X13557500Y121580000D01*
X23757500Y125230000D02*
X22057500Y125230000D01*
X23757500Y125230000D02*
X23757500Y124280000D01*
X23757500Y120530000D02*
X22057500Y120530000D01*
X23757500Y120530000D02*
X23757500Y121430000D01*
%TO.C,S18*%
X109188750Y126280000D02*
X109188750Y125330000D01*
X109188750Y126280000D02*
X111188750Y126280000D01*
X109188750Y121580000D02*
X109188750Y122530000D01*
X109188750Y121580000D02*
X111188750Y121580000D01*
X121388750Y125230000D02*
X119688750Y125230000D01*
X121388750Y125230000D02*
X121388750Y124280000D01*
X121388750Y120530000D02*
X119688750Y120530000D01*
X121388750Y120530000D02*
X121388750Y121430000D01*
%TO.C,S30*%
X109188750Y107230000D02*
X109188750Y106280000D01*
X109188750Y107230000D02*
X111188750Y107230000D01*
X109188750Y102530000D02*
X109188750Y103480000D01*
X109188750Y102530000D02*
X111188750Y102530000D01*
X121388750Y106180000D02*
X119688750Y106180000D01*
X121388750Y106180000D02*
X121388750Y105230000D01*
X121388750Y101480000D02*
X119688750Y101480000D01*
X121388750Y101480000D02*
X121388750Y102380000D01*
%TO.C,S17*%
X90138750Y126280000D02*
X90138750Y125330000D01*
X90138750Y126280000D02*
X92138750Y126280000D01*
X90138750Y121580000D02*
X90138750Y122530000D01*
X90138750Y121580000D02*
X92138750Y121580000D01*
X102338750Y125230000D02*
X100638750Y125230000D01*
X102338750Y125230000D02*
X102338750Y124280000D01*
X102338750Y120530000D02*
X100638750Y120530000D01*
X102338750Y120530000D02*
X102338750Y121430000D01*
%TO.C,S45*%
X223488750Y88180000D02*
X223488750Y87230000D01*
X223488750Y88180000D02*
X225488750Y88180000D01*
X223488750Y83480000D02*
X223488750Y84430000D01*
X223488750Y83480000D02*
X225488750Y83480000D01*
X235688750Y87130000D02*
X233988750Y87130000D01*
X235688750Y87130000D02*
X235688750Y86180000D01*
X235688750Y82430000D02*
X233988750Y82430000D01*
X235688750Y82430000D02*
X235688750Y83330000D01*
%TO.C,S24*%
X283020000Y126280000D02*
X283020000Y125330000D01*
X283020000Y126280000D02*
X285020000Y126280000D01*
X283020000Y121580000D02*
X283020000Y122530000D01*
X283020000Y121580000D02*
X285020000Y121580000D01*
X295220000Y125230000D02*
X293520000Y125230000D01*
X295220000Y125230000D02*
X295220000Y124280000D01*
X295220000Y120530000D02*
X293520000Y120530000D01*
X295220000Y120530000D02*
X295220000Y121430000D01*
%TO.C,S25*%
X11557500Y107230000D02*
X11557500Y106280000D01*
X11557500Y107230000D02*
X13557500Y107230000D01*
X11557500Y102530000D02*
X11557500Y103480000D01*
X11557500Y102530000D02*
X13557500Y102530000D01*
X23757500Y106180000D02*
X22057500Y106180000D01*
X23757500Y106180000D02*
X23757500Y105230000D01*
X23757500Y101480000D02*
X22057500Y101480000D01*
X23757500Y101480000D02*
X23757500Y102380000D01*
%TO.C,S39*%
X52038750Y88180000D02*
X52038750Y87230000D01*
X52038750Y88180000D02*
X54038750Y88180000D01*
X52038750Y83480000D02*
X52038750Y84430000D01*
X52038750Y83480000D02*
X54038750Y83480000D01*
X64238750Y87130000D02*
X62538750Y87130000D01*
X64238750Y87130000D02*
X64238750Y86180000D01*
X64238750Y82430000D02*
X62538750Y82430000D01*
X64238750Y82430000D02*
X64238750Y83330000D01*
%TO.C,S26*%
X32988750Y107230000D02*
X32988750Y106280000D01*
X32988750Y107230000D02*
X34988750Y107230000D01*
X32988750Y102530000D02*
X32988750Y103480000D01*
X32988750Y102530000D02*
X34988750Y102530000D01*
X45188750Y106180000D02*
X43488750Y106180000D01*
X45188750Y106180000D02*
X45188750Y105230000D01*
X45188750Y101480000D02*
X43488750Y101480000D01*
X45188750Y101480000D02*
X45188750Y102380000D01*
%TO.C,S14*%
X32988750Y126280000D02*
X32988750Y125330000D01*
X32988750Y126280000D02*
X34988750Y126280000D01*
X32988750Y121580000D02*
X32988750Y122530000D01*
X32988750Y121580000D02*
X34988750Y121580000D01*
X45188750Y125230000D02*
X43488750Y125230000D01*
X45188750Y125230000D02*
X45188750Y124280000D01*
X45188750Y120530000D02*
X43488750Y120530000D01*
X45188750Y120530000D02*
X45188750Y121430000D01*
%TO.C,S12*%
X283020000Y145330000D02*
X283020000Y144380000D01*
X283020000Y145330000D02*
X285020000Y145330000D01*
X283020000Y140630000D02*
X283020000Y141580000D01*
X283020000Y140630000D02*
X285020000Y140630000D01*
X295220000Y144280000D02*
X293520000Y144280000D01*
X295220000Y144280000D02*
X295220000Y143330000D01*
X295220000Y139580000D02*
X293520000Y139580000D01*
X295220000Y139580000D02*
X295220000Y140480000D01*
%TD*%
M02*
