%TF.GenerationSoftware,KiCad,Pcbnew,9.0.2+1*%
%TF.CreationDate,2025-09-15T00:12:33+02:00*%
%TF.ProjectId,first,66697273-742e-46b6-9963-61645f706362,rev?*%
%TF.SameCoordinates,Original*%
%TF.FileFunction,Paste,Bot*%
%TF.FilePolarity,Positive*%
%FSLAX46Y46*%
G04 Gerber Fmt 4.6, Leading zero omitted, Abs format (unit mm)*
G04 Created by KiCad (PCBNEW 9.0.2+1) date 2025-09-15 00:12:33*
%MOMM*%
%LPD*%
G01*
G04 APERTURE LIST*
G04 Aperture macros list*
%AMRoundRect*
0 Rectangle with rounded corners*
0 $1 Rounding radius*
0 $2 $3 $4 $5 $6 $7 $8 $9 X,Y pos of 4 corners*
0 Add a 4 corners polygon primitive as box body*
4,1,4,$2,$3,$4,$5,$6,$7,$8,$9,$2,$3,0*
0 Add four circle primitives for the rounded corners*
1,1,$1+$1,$2,$3*
1,1,$1+$1,$4,$5*
1,1,$1+$1,$6,$7*
1,1,$1+$1,$8,$9*
0 Add four rect primitives between the rounded corners*
20,1,$1+$1,$2,$3,$4,$5,0*
20,1,$1+$1,$4,$5,$6,$7,0*
20,1,$1+$1,$6,$7,$8,$9,0*
20,1,$1+$1,$8,$9,$2,$3,0*%
G04 Aperture macros list end*
%ADD10RoundRect,0.500000X-0.750000X-0.775000X0.750000X-0.775000X0.750000X0.775000X-0.750000X0.775000X0*%
%ADD11RoundRect,0.500000X-0.925029X-0.554478X0.523860X-0.942707X0.925029X0.554478X-0.523860X0.942707X0*%
%ADD12RoundRect,0.500000X-0.523860X-0.942707X0.925029X-0.554478X0.523860X0.942707X-0.925029X0.554478X0*%
G04 APERTURE END LIST*
D10*
%TO.C,S28*%
X70013750Y104880000D03*
X84363750Y103830000D03*
%TD*%
%TO.C,S6*%
X108113750Y142980000D03*
X122463750Y141930000D03*
%TD*%
%TO.C,S48*%
X281945000Y85830000D03*
X296295000Y84780000D03*
%TD*%
%TO.C,S36*%
X281945000Y104880000D03*
X296295000Y103830000D03*
%TD*%
%TO.C,S19*%
X184313750Y123930000D03*
X198663750Y122880000D03*
%TD*%
%TO.C,S44*%
X193838750Y85830000D03*
X208188750Y84780000D03*
%TD*%
%TO.C,S23*%
X260513750Y123930000D03*
X274863750Y122880000D03*
%TD*%
%TO.C,S9*%
X222413750Y142980000D03*
X236763750Y141930000D03*
%TD*%
%TO.C,S22*%
X241463750Y123930000D03*
X255813750Y122880000D03*
%TD*%
%TO.C,S2*%
X31913750Y142980000D03*
X46263750Y141930000D03*
%TD*%
%TO.C,S40*%
X70013750Y85830000D03*
X84363750Y84780000D03*
%TD*%
%TO.C,S10*%
X241463750Y142980000D03*
X255813750Y141930000D03*
%TD*%
%TO.C,S47*%
X260513750Y85829999D03*
X274863750Y84780000D03*
%TD*%
%TO.C,S21*%
X222413750Y123930000D03*
X236763750Y122880000D03*
%TD*%
%TO.C,S11*%
X260513750Y142980000D03*
X274863750Y141930000D03*
%TD*%
%TO.C,S15*%
X50963750Y123930000D03*
X65313750Y122880000D03*
%TD*%
%TO.C,S35*%
X260513750Y104880000D03*
X274863750Y103830000D03*
%TD*%
%TO.C,S20*%
X203363750Y123930000D03*
X217713750Y122880000D03*
%TD*%
%TO.C,S29*%
X89063750Y104880000D03*
X103413750Y103830000D03*
%TD*%
%TO.C,S1*%
X10482500Y142980000D03*
X24832500Y141930000D03*
%TD*%
%TO.C,S33*%
X222413750Y104880000D03*
X236763750Y103830000D03*
%TD*%
%TO.C,S34*%
X241463750Y104880000D03*
X255813750Y103830000D03*
%TD*%
%TO.C,S41*%
X98588750Y85830000D03*
X112938750Y84780000D03*
%TD*%
%TO.C,S16*%
X70013750Y123930000D03*
X84363750Y122880000D03*
%TD*%
%TO.C,S8*%
X203363750Y142980000D03*
X217713750Y141930000D03*
%TD*%
%TO.C,S5*%
X89063750Y142980000D03*
X103413750Y141930000D03*
%TD*%
%TO.C,S38*%
X31913750Y85830000D03*
X46263750Y84780000D03*
%TD*%
%TO.C,S7*%
X184313750Y142980000D03*
X198663750Y141930000D03*
%TD*%
%TO.C,S37*%
X10482500Y85830000D03*
X24832500Y84780000D03*
%TD*%
%TO.C,S27*%
X50963750Y104880000D03*
X65313750Y103830000D03*
%TD*%
D11*
%TO.C,S42*%
X127773907Y82739823D03*
X141363183Y78011549D03*
%TD*%
D10*
%TO.C,S4*%
X70013750Y142980000D03*
X84363750Y141930000D03*
%TD*%
%TO.C,S46*%
X241463750Y85830000D03*
X255813750Y84780000D03*
%TD*%
%TO.C,S32*%
X203363750Y104880000D03*
X217713750Y103830000D03*
%TD*%
D12*
%TO.C,S43*%
X165203890Y78559897D03*
X179336686Y81259728D03*
%TD*%
D10*
%TO.C,S31*%
X184313750Y104880000D03*
X198663750Y103830000D03*
%TD*%
%TO.C,S3*%
X50963750Y142980000D03*
X65313750Y141930000D03*
%TD*%
%TO.C,S13*%
X10482500Y123930000D03*
X24832500Y122880000D03*
%TD*%
%TO.C,S18*%
X108113750Y123930000D03*
X122463750Y122880000D03*
%TD*%
%TO.C,S30*%
X108113750Y104880000D03*
X122463750Y103830000D03*
%TD*%
%TO.C,S17*%
X89063750Y123930000D03*
X103413750Y122880000D03*
%TD*%
%TO.C,S45*%
X222413750Y85830000D03*
X236763750Y84780000D03*
%TD*%
%TO.C,S24*%
X281945000Y123930000D03*
X296295000Y122880000D03*
%TD*%
%TO.C,S25*%
X10482500Y104880000D03*
X24832500Y103830000D03*
%TD*%
%TO.C,S39*%
X50963750Y85830000D03*
X65313750Y84780000D03*
%TD*%
%TO.C,S26*%
X31913750Y104880000D03*
X46263750Y103830000D03*
%TD*%
%TO.C,S14*%
X31913750Y123930000D03*
X46263750Y122880000D03*
%TD*%
%TO.C,S12*%
X281945000Y142980000D03*
X296295000Y141930000D03*
%TD*%
M02*
