%TF.GenerationSoftware,KiCad,Pcbnew,9.0.2+1*%
%TF.CreationDate,2025-09-15T00:12:33+02:00*%
%TF.ProjectId,first,66697273-742e-46b6-9963-61645f706362,rev?*%
%TF.SameCoordinates,Original*%
%TF.FileFunction,Copper,L1,Top*%
%TF.FilePolarity,Positive*%
%FSLAX46Y46*%
G04 Gerber Fmt 4.6, Leading zero omitted, Abs format (unit mm)*
G04 Created by KiCad (PCBNEW 9.0.2+1) date 2025-09-15 00:12:33*
%MOMM*%
%LPD*%
G01*
G04 APERTURE LIST*
G04 Aperture macros list*
%AMRoundRect*
0 Rectangle with rounded corners*
0 $1 Rounding radius*
0 $2 $3 $4 $5 $6 $7 $8 $9 X,Y pos of 4 corners*
0 Add a 4 corners polygon primitive as box body*
4,1,4,$2,$3,$4,$5,$6,$7,$8,$9,$2,$3,0*
0 Add four circle primitives for the rounded corners*
1,1,$1+$1,$2,$3*
1,1,$1+$1,$4,$5*
1,1,$1+$1,$6,$7*
1,1,$1+$1,$8,$9*
0 Add four rect primitives between the rounded corners*
20,1,$1+$1,$2,$3,$4,$5,0*
20,1,$1+$1,$4,$5,$6,$7,0*
20,1,$1+$1,$6,$7,$8,$9,0*
20,1,$1+$1,$8,$9,$2,$3,0*%
G04 Aperture macros list end*
%TA.AperFunction,ComponentPad*%
%ADD10C,1.752600*%
%TD*%
%TA.AperFunction,ComponentPad*%
%ADD11R,1.600000X1.600000*%
%TD*%
%TA.AperFunction,ComponentPad*%
%ADD12O,1.600000X1.600000*%
%TD*%
%TA.AperFunction,ComponentPad*%
%ADD13O,1.500000X2.500000*%
%TD*%
%TA.AperFunction,ComponentPad*%
%ADD14R,1.500000X2.500000*%
%TD*%
%TA.AperFunction,ComponentPad*%
%ADD15O,2.200000X3.500000*%
%TD*%
%TA.AperFunction,ComponentPad*%
%ADD16C,2.500000*%
%TD*%
%TA.AperFunction,ComponentPad*%
%ADD17C,1.524000*%
%TD*%
%TA.AperFunction,ComponentPad*%
%ADD18RoundRect,0.250000X-0.512000X0.512000X-0.512000X-0.512000X0.512000X-0.512000X0.512000X0.512000X0*%
%TD*%
%TA.AperFunction,Conductor*%
%ADD19C,0.200000*%
%TD*%
G04 APERTURE END LIST*
D10*
%TO.P,U1,1,1*%
%TO.N,unconnected-(U1-Pad1)*%
X144758750Y157020000D03*
%TO.P,U1,2,0*%
%TO.N,Col0 L*%
X144758750Y154480000D03*
%TO.P,U1,3,GND*%
%TO.N,unconnected-(U1-GND-Pad3)*%
X144758750Y151940000D03*
%TO.P,U1,4,GND*%
%TO.N,unconnected-(U1-GND-Pad4)*%
X144758750Y149400000D03*
%TO.P,U1,5,2*%
%TO.N,unconnected-(U1-2-Pad5)*%
X144758750Y146860000D03*
%TO.P,U1,6,3*%
%TO.N,unconnected-(U1-3-Pad6)*%
X144758750Y144320000D03*
%TO.P,U1,7,4*%
%TO.N,unconnected-(U1-4-Pad7)*%
X144758750Y141780000D03*
%TO.P,U1,8,5*%
%TO.N,Col1 L*%
X144758750Y139240000D03*
%TO.P,U1,9,6*%
%TO.N,Col2 L*%
X144758750Y136700000D03*
%TO.P,U1,10,7*%
%TO.N,Col3 L*%
X144758750Y134160000D03*
%TO.P,U1,11,8*%
%TO.N,Col4 L*%
X144758750Y131620000D03*
%TO.P,U1,12,9*%
%TO.N,Col5 L*%
X144758750Y129080000D03*
%TO.P,U1,13,10*%
%TO.N,raw3 L*%
X129518750Y129080000D03*
%TO.P,U1,14,16*%
%TO.N,raw2 L*%
X129518750Y131620000D03*
%TO.P,U1,15,14*%
%TO.N,raw1 L*%
X129518750Y134160000D03*
%TO.P,U1,16,15*%
%TO.N,raw0 L*%
X129518750Y136700000D03*
%TO.P,U1,17,18*%
%TO.N,unconnected-(U1-18-Pad17)*%
X129518750Y139240000D03*
%TO.P,U1,18,19*%
%TO.N,unconnected-(U1-19-Pad18)*%
X129518750Y141780000D03*
%TO.P,U1,19,20*%
%TO.N,unconnected-(U1-20-Pad19)*%
X129518750Y144320000D03*
%TO.P,U1,20,21*%
%TO.N,unconnected-(U1-21-Pad20)*%
X129518750Y146860000D03*
%TO.P,U1,21,3.3v*%
%TO.N,unconnected-(U1-3.3v-Pad21)*%
X129518750Y149400000D03*
%TO.P,U1,22,RST*%
%TO.N,Net-(U1-RST)*%
X129518750Y151940000D03*
%TO.P,U1,23,GND*%
%TO.N,GNDL*%
X129518750Y154480000D03*
%TO.P,U1,24,B+*%
%TO.N,Net-(BT1-+)*%
X129518750Y157020000D03*
%TO.P,U1,25,1*%
%TO.N,unconnected-(U1-1-Pad25)*%
X142218750Y134160000D03*
%TO.P,U1,26,2*%
%TO.N,unconnected-(U1-2-Pad26)*%
X139678750Y134160000D03*
%TO.P,U1,27,7*%
%TO.N,unconnected-(U1-7-Pad27)*%
X137138750Y134160000D03*
%TD*%
D11*
%TO.P,D36,1,K*%
%TO.N,raw2 R*%
X285020000Y99580000D03*
D12*
%TO.P,D36,2,A*%
%TO.N,Net-(D36-A)*%
X292640000Y99580000D03*
%TD*%
D13*
%TO.P,RstL1,3*%
%TO.N,N/C*%
X135638750Y156680000D03*
%TO.P,RstL1,2,2*%
%TO.N,GNDL*%
X137638750Y156680000D03*
D14*
%TO.P,RstL1,1,1*%
%TO.N,Net-(U1-RST)*%
X139638750Y156680000D03*
D15*
%TO.P,RstL1,*%
%TO.N,*%
X133538750Y156680000D03*
X141738750Y156680000D03*
%TD*%
D11*
%TO.P,D14,1,K*%
%TO.N,raw1 L*%
X34988750Y118630000D03*
D12*
%TO.P,D14,2,A*%
%TO.N,Net-(D14-A)*%
X42608750Y118630000D03*
%TD*%
D11*
%TO.P,D44,1,K*%
%TO.N,raw3 R*%
X198818750Y80530000D03*
D12*
%TO.P,D44,2,A*%
%TO.N,Net-(D44-A)*%
X206438750Y80530000D03*
%TD*%
D11*
%TO.P,D47,1,K*%
%TO.N,raw3 R*%
X265493750Y80530000D03*
D12*
%TO.P,D47,2,A*%
%TO.N,Net-(D47-A)*%
X273113750Y80530000D03*
%TD*%
D16*
%TO.P,S28,1,1*%
%TO.N,Col3 L*%
X75488750Y115330000D03*
%TO.P,S28,2,2*%
%TO.N,Net-(D28-A)*%
X82488750Y114280000D03*
%TD*%
%TO.P,S6,1,1*%
%TO.N,Col5 L*%
X113588750Y153430000D03*
%TO.P,S6,2,2*%
%TO.N,Net-(D6-A)*%
X120588750Y152380000D03*
%TD*%
D11*
%TO.P,D48,1,K*%
%TO.N,raw3 R*%
X284543750Y80530000D03*
D12*
%TO.P,D48,2,A*%
%TO.N,Net-(D48-A)*%
X292163750Y80530000D03*
%TD*%
D11*
%TO.P,D1,1,K*%
%TO.N,raw0 L*%
X13557500Y137680000D03*
D12*
%TO.P,D1,2,A*%
%TO.N,Net-(D1-A)*%
X21177500Y137680000D03*
%TD*%
D11*
%TO.P,D29,1,K*%
%TO.N,raw2 L*%
X92138750Y99580000D03*
D12*
%TO.P,D29,2,A*%
%TO.N,Net-(D29-A)*%
X99758750Y99580000D03*
%TD*%
D11*
%TO.P,D21,1,K*%
%TO.N,raw1 R*%
X225488750Y118630000D03*
D12*
%TO.P,D21,2,A*%
%TO.N,Net-(D21-A)*%
X233108750Y118630000D03*
%TD*%
D11*
%TO.P,D45,1,K*%
%TO.N,raw3 R*%
X225488750Y80530000D03*
D12*
%TO.P,D45,2,A*%
%TO.N,Net-(D45-A)*%
X233108750Y80530000D03*
%TD*%
D16*
%TO.P,S48,1,1*%
%TO.N,Col5 R*%
X287420000Y96280000D03*
%TO.P,S48,2,2*%
%TO.N,Net-(D48-A)*%
X294420000Y95230000D03*
%TD*%
D11*
%TO.P,D3,1,K*%
%TO.N,raw0 L*%
X54038750Y137680000D03*
D12*
%TO.P,D3,2,A*%
%TO.N,Net-(D3-A)*%
X61658750Y137680000D03*
%TD*%
D16*
%TO.P,S36,1,1*%
%TO.N,Col5 R*%
X287420000Y115330000D03*
%TO.P,S36,2,2*%
%TO.N,Net-(D36-A)*%
X294420000Y114280000D03*
%TD*%
%TO.P,S19,1,1*%
%TO.N,Col0 R*%
X189788750Y134380000D03*
%TO.P,S19,2,2*%
%TO.N,Net-(D19-A)*%
X196788750Y133330000D03*
%TD*%
%TO.P,S44,1,1*%
%TO.N,Col1 R*%
X199313750Y96280000D03*
%TO.P,S44,2,2*%
%TO.N,Net-(D44-A)*%
X206313750Y95230000D03*
%TD*%
D11*
%TO.P,D23,1,K*%
%TO.N,raw1 R*%
X263588750Y118630000D03*
D12*
%TO.P,D23,2,A*%
%TO.N,Net-(D23-A)*%
X271208750Y118630000D03*
%TD*%
D16*
%TO.P,S23,1,1*%
%TO.N,Col4 R*%
X265988750Y134380000D03*
%TO.P,S23,2,2*%
%TO.N,Net-(D23-A)*%
X272988750Y133330000D03*
%TD*%
D11*
%TO.P,D17,1,K*%
%TO.N,raw1 L*%
X92138750Y118630000D03*
D12*
%TO.P,D17,2,A*%
%TO.N,Net-(D17-A)*%
X99758750Y118630000D03*
%TD*%
D11*
%TO.P,D7,1,K*%
%TO.N,raw0 R*%
X187388750Y137680000D03*
D12*
%TO.P,D7,2,A*%
%TO.N,Net-(D7-A)*%
X195008750Y137680000D03*
%TD*%
D11*
%TO.P,D4,1,K*%
%TO.N,raw0 L*%
X73088750Y137680000D03*
D12*
%TO.P,D4,2,A*%
%TO.N,Net-(D4-A)*%
X80708750Y137680000D03*
%TD*%
D16*
%TO.P,S9,1,1*%
%TO.N,Col2 R*%
X227888750Y153430000D03*
%TO.P,S9,2,2*%
%TO.N,Net-(D9-A)*%
X234888750Y152380000D03*
%TD*%
D11*
%TO.P,D19,1,K*%
%TO.N,raw1 R*%
X187388750Y118630000D03*
D12*
%TO.P,D19,2,A*%
%TO.N,Net-(D19-A)*%
X195008750Y118630000D03*
%TD*%
D11*
%TO.P,D24,1,K*%
%TO.N,raw1 R*%
X285020000Y118630000D03*
D12*
%TO.P,D24,2,A*%
%TO.N,Net-(D24-A)*%
X292640000Y118630000D03*
%TD*%
D16*
%TO.P,S22,1,1*%
%TO.N,Col3 R*%
X246938750Y134380000D03*
%TO.P,S22,2,2*%
%TO.N,Net-(D22-A)*%
X253938750Y133330000D03*
%TD*%
D11*
%TO.P,D40,1,K*%
%TO.N,raw3 L*%
X73088750Y80530000D03*
D12*
%TO.P,D40,2,A*%
%TO.N,Net-(D40-A)*%
X80708750Y80530000D03*
%TD*%
D11*
%TO.P,D18,1,K*%
%TO.N,raw1 L*%
X111188750Y118630000D03*
D12*
%TO.P,D18,2,A*%
%TO.N,Net-(D18-A)*%
X118808750Y118630000D03*
%TD*%
D11*
%TO.P,D6,1,K*%
%TO.N,raw0 L*%
X111188750Y137680000D03*
D12*
%TO.P,D6,2,A*%
%TO.N,Net-(D6-A)*%
X118808750Y137680000D03*
%TD*%
D11*
%TO.P,D37,1,K*%
%TO.N,raw3 L*%
X13557500Y80530000D03*
D12*
%TO.P,D37,2,A*%
%TO.N,Net-(D37-A)*%
X21177500Y80530000D03*
%TD*%
D11*
%TO.P,D42,1,K*%
%TO.N,raw3 L*%
X120713750Y80530000D03*
D12*
%TO.P,D42,2,A*%
%TO.N,Net-(D42-A)*%
X120713750Y88150000D03*
%TD*%
D16*
%TO.P,S2,1,1*%
%TO.N,Col1 L*%
X37388750Y153430000D03*
%TO.P,S2,2,2*%
%TO.N,Net-(D2-A)*%
X44388750Y152380000D03*
%TD*%
D11*
%TO.P,D20,1,K*%
%TO.N,raw1 R*%
X206438750Y118630000D03*
D12*
%TO.P,D20,2,A*%
%TO.N,Net-(D20-A)*%
X214058750Y118630000D03*
%TD*%
D11*
%TO.P,D16,1,K*%
%TO.N,raw1 L*%
X73088750Y118630000D03*
D12*
%TO.P,D16,2,A*%
%TO.N,Net-(D16-A)*%
X80708750Y118630000D03*
%TD*%
D16*
%TO.P,S40,1,1*%
%TO.N,Col3 L*%
X75488750Y96280000D03*
%TO.P,S40,2,2*%
%TO.N,Net-(D40-A)*%
X82488750Y95230000D03*
%TD*%
%TO.P,S10,1,1*%
%TO.N,Col3 R*%
X246938750Y153430000D03*
%TO.P,S10,2,2*%
%TO.N,Net-(D10-A)*%
X253938750Y152380000D03*
%TD*%
%TO.P,S47,1,1*%
%TO.N,Col4 R*%
X265988750Y96280000D03*
%TO.P,S47,2,2*%
%TO.N,Net-(D47-A)*%
X272988750Y95230000D03*
%TD*%
%TO.P,S21,1,1*%
%TO.N,Col2 R*%
X227888750Y134380000D03*
%TO.P,S21,2,2*%
%TO.N,Net-(D21-A)*%
X234888750Y133330000D03*
%TD*%
D11*
%TO.P,D31,1,K*%
%TO.N,raw2 R*%
X187388750Y99580000D03*
D12*
%TO.P,D31,2,A*%
%TO.N,Net-(D31-A)*%
X195008750Y99580000D03*
%TD*%
D16*
%TO.P,S11,1,1*%
%TO.N,Col4 R*%
X265988750Y153430000D03*
%TO.P,S11,2,2*%
%TO.N,Net-(D11-A)*%
X272988750Y152380000D03*
%TD*%
%TO.P,S15,1,1*%
%TO.N,Col2 L*%
X56438750Y134380000D03*
%TO.P,S15,2,2*%
%TO.N,Net-(D15-A)*%
X63438750Y133330000D03*
%TD*%
D11*
%TO.P,D13,1,K*%
%TO.N,raw1 L*%
X13557500Y118630000D03*
D12*
%TO.P,D13,2,A*%
%TO.N,Net-(D13-A)*%
X21177500Y118630000D03*
%TD*%
D16*
%TO.P,S35,1,1*%
%TO.N,Col4 R*%
X265988750Y115330000D03*
%TO.P,S35,2,2*%
%TO.N,Net-(D35-A)*%
X272988750Y114280000D03*
%TD*%
%TO.P,S20,1,1*%
%TO.N,Col1 R*%
X208838750Y134380000D03*
%TO.P,S20,2,2*%
%TO.N,Net-(D20-A)*%
X215838750Y133330000D03*
%TD*%
%TO.P,S29,1,1*%
%TO.N,Col4 L*%
X94538750Y115330000D03*
%TO.P,S29,2,2*%
%TO.N,Net-(D29-A)*%
X101538750Y114280000D03*
%TD*%
%TO.P,S1,1,1*%
%TO.N,Col0 L*%
X15957500Y153430000D03*
%TO.P,S1,2,2*%
%TO.N,Net-(D1-A)*%
X22957500Y152380000D03*
%TD*%
%TO.P,S33,1,1*%
%TO.N,Col2 R*%
X227888750Y115330000D03*
%TO.P,S33,2,2*%
%TO.N,Net-(D33-A)*%
X234888750Y114280000D03*
%TD*%
D10*
%TO.P,U2,1,1*%
%TO.N,unconnected-(U2-Pad1)*%
X180283750Y157020000D03*
%TO.P,U2,2,0*%
%TO.N,Col0 R*%
X180283750Y154480000D03*
%TO.P,U2,3,GND*%
%TO.N,GNDR*%
X180283750Y151940000D03*
%TO.P,U2,4,GND*%
%TO.N,unconnected-(U2-GND-Pad4)*%
X180283750Y149400000D03*
%TO.P,U2,5,2*%
%TO.N,unconnected-(U2-2-Pad5)*%
X180283750Y146860000D03*
%TO.P,U2,6,3*%
%TO.N,unconnected-(U2-3-Pad6)*%
X180283750Y144320000D03*
%TO.P,U2,7,4*%
%TO.N,unconnected-(U2-4-Pad7)*%
X180283750Y141780000D03*
%TO.P,U2,8,5*%
%TO.N,Col1 R*%
X180283750Y139240000D03*
%TO.P,U2,9,6*%
%TO.N,Col2 R*%
X180283750Y136700000D03*
%TO.P,U2,10,7*%
%TO.N,Col3 R*%
X180283750Y134160000D03*
%TO.P,U2,11,8*%
%TO.N,Col4 R*%
X180283750Y131620000D03*
%TO.P,U2,12,9*%
%TO.N,Col5 R*%
X180283750Y129080000D03*
%TO.P,U2,13,10*%
%TO.N,raw3 R*%
X165043750Y129080000D03*
%TO.P,U2,14,16*%
%TO.N,raw2 R*%
X165043750Y131620000D03*
%TO.P,U2,15,14*%
%TO.N,raw1 R*%
X165043750Y134160000D03*
%TO.P,U2,16,15*%
%TO.N,raw0 R*%
X165043750Y136700000D03*
%TO.P,U2,17,18*%
%TO.N,unconnected-(U2-18-Pad17)*%
X165043750Y139240000D03*
%TO.P,U2,18,19*%
%TO.N,unconnected-(U2-19-Pad18)*%
X165043750Y141780000D03*
%TO.P,U2,19,20*%
%TO.N,unconnected-(U2-20-Pad19)*%
X165043750Y144320000D03*
%TO.P,U2,20,21*%
%TO.N,unconnected-(U2-21-Pad20)*%
X165043750Y146860000D03*
%TO.P,U2,21,3.3v*%
%TO.N,unconnected-(U2-3.3v-Pad21)*%
X165043750Y149400000D03*
%TO.P,U2,22,RST*%
%TO.N,Net-(U2-RST)*%
X165043750Y151940000D03*
%TO.P,U2,23,GND*%
%TO.N,unconnected-(U2-GND-Pad23)*%
X165043750Y154480000D03*
%TO.P,U2,24,B+*%
%TO.N,Net-(BT2-+)*%
X165043750Y157020000D03*
%TO.P,U2,25,1*%
%TO.N,unconnected-(U2-1-Pad25)*%
X177743750Y134160000D03*
%TO.P,U2,26,2*%
%TO.N,unconnected-(U2-2-Pad26)*%
X175203750Y134160000D03*
%TO.P,U2,27,7*%
%TO.N,unconnected-(U2-7-Pad27)*%
X172663750Y134160000D03*
%TD*%
D16*
%TO.P,S34,1,1*%
%TO.N,Col3 R*%
X246938750Y115330000D03*
%TO.P,S34,2,2*%
%TO.N,Net-(D34-A)*%
X253938750Y114280000D03*
%TD*%
%TO.P,S41,1,1*%
%TO.N,Col4 L*%
X104063750Y96280000D03*
%TO.P,S41,2,2*%
%TO.N,Net-(D41-A)*%
X111063750Y95230000D03*
%TD*%
%TO.P,S16,1,1*%
%TO.N,Col3 L*%
X75488750Y134380000D03*
%TO.P,S16,2,2*%
%TO.N,Net-(D16-A)*%
X82488750Y133330000D03*
%TD*%
%TO.P,S8,1,1*%
%TO.N,Col1 R*%
X208838750Y153430000D03*
%TO.P,S8,2,2*%
%TO.N,Net-(D8-A)*%
X215838750Y152380000D03*
%TD*%
D11*
%TO.P,D15,1,K*%
%TO.N,raw1 L*%
X54038750Y118630000D03*
D12*
%TO.P,D15,2,A*%
%TO.N,Net-(D15-A)*%
X61658750Y118630000D03*
%TD*%
D16*
%TO.P,S5,1,1*%
%TO.N,Col4 L*%
X94538750Y153430000D03*
%TO.P,S5,2,2*%
%TO.N,Net-(D5-A)*%
X101538750Y152380000D03*
%TD*%
%TO.P,S38,1,1*%
%TO.N,Col1 L*%
X37388750Y96280000D03*
%TO.P,S38,2,2*%
%TO.N,Net-(D38-A)*%
X44388750Y95230000D03*
%TD*%
D11*
%TO.P,D33,1,K*%
%TO.N,raw2 R*%
X225488750Y99580000D03*
D12*
%TO.P,D33,2,A*%
%TO.N,Net-(D33-A)*%
X233108750Y99580000D03*
%TD*%
D16*
%TO.P,S7,1,1*%
%TO.N,Col0 R*%
X189788750Y153430000D03*
%TO.P,S7,2,2*%
%TO.N,Net-(D7-A)*%
X196788750Y152380000D03*
%TD*%
%TO.P,S37,1,1*%
%TO.N,Col0 L*%
X15957500Y96280000D03*
%TO.P,S37,2,2*%
%TO.N,Net-(D37-A)*%
X22957500Y95230000D03*
%TD*%
%TO.P,S27,1,1*%
%TO.N,Col2 L*%
X56438750Y115330000D03*
%TO.P,S27,2,2*%
%TO.N,Net-(D27-A)*%
X63438750Y114280000D03*
%TD*%
D11*
%TO.P,D22,1,K*%
%TO.N,raw1 R*%
X244538750Y118630000D03*
D12*
%TO.P,D22,2,A*%
%TO.N,Net-(D22-A)*%
X252158750Y118630000D03*
%TD*%
D11*
%TO.P,D34,1,K*%
%TO.N,raw2 R*%
X244538750Y99580000D03*
D12*
%TO.P,D34,2,A*%
%TO.N,Net-(D34-A)*%
X252158750Y99580000D03*
%TD*%
D16*
%TO.P,S42,1,1*%
%TO.N,Col5 L*%
X135767010Y91416715D03*
%TO.P,S42,2,2*%
%TO.N,Net-(D42-A)*%
X142256731Y88590760D03*
%TD*%
D11*
%TO.P,D35,1,K*%
%TO.N,raw2 R*%
X263588750Y99580000D03*
D12*
%TO.P,D35,2,A*%
%TO.N,Net-(D35-A)*%
X271208750Y99580000D03*
%TD*%
D16*
%TO.P,S4,1,1*%
%TO.N,Col3 L*%
X75488750Y153430000D03*
%TO.P,S4,2,2*%
%TO.N,Net-(D4-A)*%
X82488750Y152380000D03*
%TD*%
D11*
%TO.P,D28,1,K*%
%TO.N,raw2 L*%
X73088750Y99580000D03*
D12*
%TO.P,D28,2,A*%
%TO.N,Net-(D28-A)*%
X80708750Y99580000D03*
%TD*%
D16*
%TO.P,S46,1,1*%
%TO.N,Col3 R*%
X246938750Y96280000D03*
%TO.P,S46,2,2*%
%TO.N,Net-(D46-A)*%
X253938750Y95230000D03*
%TD*%
%TO.P,S32,1,1*%
%TO.N,Col1 R*%
X208838750Y115330000D03*
%TO.P,S32,2,2*%
%TO.N,Net-(D32-A)*%
X215838750Y114280000D03*
%TD*%
D11*
%TO.P,D30,1,K*%
%TO.N,raw2 L*%
X111188750Y99580000D03*
D12*
%TO.P,D30,2,A*%
%TO.N,Net-(D30-A)*%
X118808750Y99580000D03*
%TD*%
D11*
%TO.P,D39,1,K*%
%TO.N,raw3 L*%
X54038750Y80530000D03*
D12*
%TO.P,D39,2,A*%
%TO.N,Net-(D39-A)*%
X61658750Y80530000D03*
%TD*%
D11*
%TO.P,D5,1,K*%
%TO.N,raw0 L*%
X92138750Y137680000D03*
D12*
%TO.P,D5,2,A*%
%TO.N,Net-(D5-A)*%
X99758750Y137680000D03*
%TD*%
D16*
%TO.P,S43,1,1*%
%TO.N,Col0 R*%
X167787675Y90070856D03*
%TO.P,S43,2,2*%
%TO.N,Net-(D43-A)*%
X174820916Y90868367D03*
%TD*%
%TO.P,S31,1,1*%
%TO.N,Col0 R*%
X189788750Y115330000D03*
%TO.P,S31,2,2*%
%TO.N,Net-(D31-A)*%
X196788750Y114280000D03*
%TD*%
D11*
%TO.P,D27,1,K*%
%TO.N,raw2 L*%
X54038750Y99580000D03*
D12*
%TO.P,D27,2,A*%
%TO.N,Net-(D27-A)*%
X61658750Y99580000D03*
%TD*%
D16*
%TO.P,S3,1,1*%
%TO.N,Col2 L*%
X56438750Y153430000D03*
%TO.P,S3,2,2*%
%TO.N,Net-(D3-A)*%
X63438750Y152380000D03*
%TD*%
D11*
%TO.P,D43,1,K*%
%TO.N,raw3 R*%
X192151250Y80530000D03*
D12*
%TO.P,D43,2,A*%
%TO.N,Net-(D43-A)*%
X184531250Y80530000D03*
%TD*%
D11*
%TO.P,D10,1,K*%
%TO.N,raw0 R*%
X244538750Y137680000D03*
D12*
%TO.P,D10,2,A*%
%TO.N,Net-(D10-A)*%
X252158750Y137680000D03*
%TD*%
D11*
%TO.P,D11,1,K*%
%TO.N,raw0 R*%
X263588750Y137680000D03*
D12*
%TO.P,D11,2,A*%
%TO.N,Net-(D11-A)*%
X271208750Y137680000D03*
%TD*%
D16*
%TO.P,S13,1,1*%
%TO.N,Col0 L*%
X15957500Y134380000D03*
%TO.P,S13,2,2*%
%TO.N,Net-(D13-A)*%
X22957500Y133330000D03*
%TD*%
D11*
%TO.P,D25,1,K*%
%TO.N,raw2 L*%
X13557500Y99580000D03*
D12*
%TO.P,D25,2,A*%
%TO.N,Net-(D25-A)*%
X21177500Y99580000D03*
%TD*%
D11*
%TO.P,D8,1,K*%
%TO.N,raw0 R*%
X206438750Y137680000D03*
D12*
%TO.P,D8,2,A*%
%TO.N,Net-(D8-A)*%
X214058750Y137680000D03*
%TD*%
D11*
%TO.P,D2,1,K*%
%TO.N,raw0 L*%
X34988750Y137680000D03*
D12*
%TO.P,D2,2,A*%
%TO.N,Net-(D2-A)*%
X42608750Y137680000D03*
%TD*%
D11*
%TO.P,D12,1,K*%
%TO.N,raw0 R*%
X285020000Y137680000D03*
D12*
%TO.P,D12,2,A*%
%TO.N,Net-(D12-A)*%
X292640000Y137680000D03*
%TD*%
D11*
%TO.P,D41,1,K*%
%TO.N,raw3 L*%
X101663750Y80530000D03*
D12*
%TO.P,D41,2,A*%
%TO.N,Net-(D41-A)*%
X109283750Y80530000D03*
%TD*%
D16*
%TO.P,S18,1,1*%
%TO.N,Col5 L*%
X113588750Y134380000D03*
%TO.P,S18,2,2*%
%TO.N,Net-(D18-A)*%
X120588750Y133330000D03*
%TD*%
%TO.P,S30,1,1*%
%TO.N,Col5 L*%
X113588750Y115330000D03*
%TO.P,S30,2,2*%
%TO.N,Net-(D30-A)*%
X120588750Y114280000D03*
%TD*%
D11*
%TO.P,D32,1,K*%
%TO.N,raw2 R*%
X206438750Y99580000D03*
D12*
%TO.P,D32,2,A*%
%TO.N,Net-(D32-A)*%
X214058750Y99580000D03*
%TD*%
D16*
%TO.P,S17,1,1*%
%TO.N,Col4 L*%
X94538750Y134380000D03*
%TO.P,S17,2,2*%
%TO.N,Net-(D17-A)*%
X101538750Y133330000D03*
%TD*%
D11*
%TO.P,D9,1,K*%
%TO.N,raw0 R*%
X225488750Y137680000D03*
D12*
%TO.P,D9,2,A*%
%TO.N,Net-(D9-A)*%
X233108750Y137680000D03*
%TD*%
D16*
%TO.P,S45,1,1*%
%TO.N,Col2 R*%
X227888750Y96280000D03*
%TO.P,S45,2,2*%
%TO.N,Net-(D45-A)*%
X234888750Y95230000D03*
%TD*%
%TO.P,S24,1,1*%
%TO.N,Col5 R*%
X287420000Y134380000D03*
%TO.P,S24,2,2*%
%TO.N,Net-(D24-A)*%
X294420000Y133330000D03*
%TD*%
D11*
%TO.P,D26,1,K*%
%TO.N,raw2 L*%
X34988750Y99580000D03*
D12*
%TO.P,D26,2,A*%
%TO.N,Net-(D26-A)*%
X42608750Y99580000D03*
%TD*%
D16*
%TO.P,S25,1,1*%
%TO.N,Col0 L*%
X15957500Y115330000D03*
%TO.P,S25,2,2*%
%TO.N,Net-(D25-A)*%
X22957500Y114280000D03*
%TD*%
D17*
%TO.P,BT1,1,+*%
%TO.N,Net-(BT1-+)*%
X148018750Y124980000D03*
D18*
%TO.P,BT1,2,-*%
%TO.N,GNDL*%
X148018750Y122440000D03*
%TD*%
D11*
%TO.P,D38,1,K*%
%TO.N,raw3 L*%
X34988750Y80530000D03*
D12*
%TO.P,D38,2,A*%
%TO.N,Net-(D38-A)*%
X42608750Y80530000D03*
%TD*%
D16*
%TO.P,S39,1,1*%
%TO.N,Col2 L*%
X56438750Y96280000D03*
%TO.P,S39,2,2*%
%TO.N,Net-(D39-A)*%
X63438750Y95230000D03*
%TD*%
%TO.P,S26,1,1*%
%TO.N,Col1 L*%
X37388750Y115330000D03*
%TO.P,S26,2,2*%
%TO.N,Net-(D26-A)*%
X44388750Y114280000D03*
%TD*%
D13*
%TO.P,RstR1,3*%
%TO.N,N/C*%
X170538750Y156680000D03*
%TO.P,RstR1,2,2*%
%TO.N,Net-(U2-RST)*%
X172538750Y156680000D03*
D14*
%TO.P,RstR1,1,1*%
%TO.N,GNDR*%
X174538750Y156680000D03*
D15*
%TO.P,RstR1,*%
%TO.N,*%
X168438750Y156680000D03*
X176638750Y156680000D03*
%TD*%
D16*
%TO.P,S14,1,1*%
%TO.N,Col1 L*%
X37388750Y134380000D03*
%TO.P,S14,2,2*%
%TO.N,Net-(D14-A)*%
X44388750Y133330000D03*
%TD*%
D11*
%TO.P,D46,1,K*%
%TO.N,raw3 R*%
X244538750Y80530000D03*
D12*
%TO.P,D46,2,A*%
%TO.N,Net-(D46-A)*%
X252158750Y80530000D03*
%TD*%
D16*
%TO.P,S12,1,1*%
%TO.N,Col5 R*%
X287420000Y153430000D03*
%TO.P,S12,2,2*%
%TO.N,Net-(D12-A)*%
X294420000Y152380000D03*
%TD*%
D17*
%TO.P,BT2,1,+*%
%TO.N,Net-(BT2-+)*%
X163258750Y124980000D03*
D18*
%TO.P,BT2,2,-*%
%TO.N,GNDR*%
X163258750Y122440000D03*
%TD*%
D19*
%TO.N,Col5 R*%
X285221000Y117529000D02*
X287420000Y115330000D01*
%TO.N,raw1 L*%
X92138750Y118630000D02*
X93239750Y119731000D01*
%TO.N,raw2 R*%
X187388750Y99580000D02*
X188489750Y100681000D01*
%TO.N,Col4 L*%
X126817750Y117529000D02*
X96737750Y117529000D01*
%TO.N,Col0 L*%
X104138750Y155680000D02*
X104104375Y155645625D01*
X109138750Y150680000D02*
X104138750Y155680000D01*
%TO.N,raw0 L*%
X74189750Y138781000D02*
X91037750Y138781000D01*
%TO.N,raw3 R*%
X264392750Y81631000D02*
X265493750Y80530000D01*
%TO.N,GNDL*%
X115978750Y154480000D02*
X129518750Y154480000D01*
%TO.N,Col3 R*%
X244337750Y131779000D02*
X246938750Y134380000D01*
%TO.N,Col2 L*%
X125181096Y135522700D02*
X139731450Y135522700D01*
%TO.N,raw1 R*%
X264689750Y119731000D02*
X283919000Y119731000D01*
%TO.N,Col2 L*%
X56438750Y134380000D02*
X58236750Y136178000D01*
%TO.N,raw1 R*%
X187388750Y118630000D02*
X188489750Y119731000D01*
%TO.N,Net-(U1-RST)*%
X139638750Y156680000D02*
X134898750Y151940000D01*
%TO.N,Col2 L*%
X124525796Y136178000D02*
X125181096Y135522700D01*
%TO.N,raw3 R*%
X283442750Y81631000D02*
X284543750Y80530000D01*
%TO.N,raw3 L*%
X73088750Y80530000D02*
X74189750Y81631000D01*
%TO.N,raw1 L*%
X34988750Y118630000D02*
X36089750Y119731000D01*
%TO.N,Net-(U1-RST)*%
X134898750Y151940000D02*
X129518750Y151940000D01*
%TO.N,Col0 L*%
X18173125Y155645625D02*
X18184800Y155657300D01*
%TO.N,raw0 R*%
X283919000Y138781000D02*
X285020000Y137680000D01*
%TO.N,raw3 L*%
X52937750Y81631000D02*
X54038750Y80530000D01*
%TO.N,raw2 R*%
X205337750Y100681000D02*
X206438750Y99580000D01*
%TO.N,Col0 L*%
X104104375Y155645625D02*
X18173125Y155645625D01*
%TO.N,Col1 L*%
X123882796Y136579000D02*
X125181096Y137877300D01*
X39587750Y136579000D02*
X123882796Y136579000D01*
X37388750Y134380000D02*
X39587750Y136579000D01*
X140908750Y139240000D02*
X144758750Y139240000D01*
X139546050Y137877300D02*
X140908750Y139240000D01*
%TO.N,GNDR*%
X174538750Y155230000D02*
X177828750Y151940000D01*
%TO.N,raw3 L*%
X102764750Y81631000D02*
X119612750Y81631000D01*
X74189750Y81631000D02*
X100562750Y81631000D01*
X101663750Y80530000D02*
X102764750Y81631000D01*
X14658500Y81631000D02*
X33887750Y81631000D01*
%TO.N,raw2 L*%
X55139750Y100681000D02*
X71987750Y100681000D01*
X73088750Y99580000D02*
X74189750Y100681000D01*
X74189750Y100681000D02*
X91037750Y100681000D01*
X92138750Y99580000D02*
X93239750Y100681000D01*
X110087750Y100681000D02*
X111188750Y99580000D01*
X91037750Y100681000D02*
X92138750Y99580000D01*
X33887750Y100681000D02*
X34988750Y99580000D01*
X54038750Y99580000D02*
X55139750Y100681000D01*
X34988750Y99580000D02*
X36089750Y100681000D01*
X36089750Y100681000D02*
X52937750Y100681000D01*
X13557500Y99580000D02*
X14658500Y100681000D01*
X93239750Y100681000D02*
X110087750Y100681000D01*
X14658500Y100681000D02*
X33887750Y100681000D01*
%TO.N,raw1 L*%
X93239750Y119731000D02*
X110087750Y119731000D01*
X74189750Y119731000D02*
X91037750Y119731000D01*
X33887750Y119731000D02*
X34988750Y118630000D01*
%TO.N,raw0 R*%
X166221050Y137877300D02*
X165043750Y136700000D01*
X225488750Y137680000D02*
X226589750Y138781000D01*
X188489750Y138781000D02*
X205337750Y138781000D01*
X245639750Y138781000D02*
X262487750Y138781000D01*
X243437750Y138781000D02*
X244538750Y137680000D01*
X205337750Y138781000D02*
X206438750Y137680000D01*
X262487750Y138781000D02*
X263588750Y137680000D01*
X244538750Y137680000D02*
X245639750Y138781000D01*
%TO.N,Col4 R*%
X191156050Y125654000D02*
X204254050Y125654000D01*
%TO.N,raw2 R*%
X245639750Y100681000D02*
X262487750Y100681000D01*
%TO.N,Col2 L*%
X139731450Y135522700D02*
X140908750Y136700000D01*
X58236750Y136178000D02*
X124525796Y136178000D01*
%TO.N,raw3 L*%
X13557500Y80530000D02*
X14658500Y81631000D01*
X34988750Y80530000D02*
X36089750Y81631000D01*
X55139750Y81631000D02*
X71987750Y81631000D01*
%TO.N,Col3 L*%
X143516250Y132917500D02*
X125301296Y132917500D01*
%TO.N,raw1 R*%
X205337750Y119731000D02*
X206438750Y118630000D01*
%TO.N,Col5 L*%
X132603725Y94580000D02*
X119471041Y94580000D01*
%TO.N,raw1 R*%
X263588750Y118630000D02*
X264689750Y119731000D01*
%TO.N,Col3 L*%
X144758750Y134160000D02*
X143516250Y132917500D01*
%TO.N,raw1 R*%
X226589750Y119731000D02*
X243437750Y119731000D01*
%TO.N,Col3 L*%
X124162796Y131779000D02*
X78089750Y131779000D01*
X125301296Y132917500D02*
X124162796Y131779000D01*
%TO.N,raw1 R*%
X188489750Y119731000D02*
X205337750Y119731000D01*
%TO.N,raw3 L*%
X71987750Y81631000D02*
X73088750Y80530000D01*
%TO.N,Col0 L*%
X15957500Y153430000D02*
X18173125Y155645625D01*
%TO.N,raw3 R*%
X198818750Y80530000D02*
X199919750Y81631000D01*
%TO.N,raw3 L*%
X54038750Y80530000D02*
X55139750Y81631000D01*
%TO.N,raw3 R*%
X245639750Y81631000D02*
X264392750Y81631000D01*
%TO.N,raw3 L*%
X33887750Y81631000D02*
X34988750Y80530000D01*
%TO.N,raw3 R*%
X225488750Y80530000D02*
X226589750Y81631000D01*
%TO.N,raw0 R*%
X264689750Y138781000D02*
X283919000Y138781000D01*
%TO.N,Col4 L*%
X144758750Y131620000D02*
X140908750Y131620000D01*
%TO.N,raw0 R*%
X224387750Y138781000D02*
X225488750Y137680000D01*
%TO.N,raw3 L*%
X36089750Y81631000D02*
X52937750Y81631000D01*
%TO.N,raw0 R*%
X263588750Y137680000D02*
X264689750Y138781000D01*
%TO.N,Col4 R*%
X204254050Y125654000D02*
X205997350Y127397300D01*
%TO.N,raw1 R*%
X225488750Y118630000D02*
X226589750Y119731000D01*
X283919000Y119731000D02*
X285020000Y118630000D01*
%TO.N,raw0 R*%
X226589750Y138781000D02*
X243437750Y138781000D01*
%TO.N,Col4 R*%
X237275250Y125654000D02*
X241900250Y121029000D01*
%TO.N,raw0 L*%
X34988750Y137680000D02*
X36089750Y138781000D01*
%TO.N,Col2 R*%
X225689750Y136579000D02*
X227888750Y134380000D01*
%TO.N,raw3 R*%
X192151250Y80530000D02*
X198818750Y80530000D01*
%TO.N,raw1 R*%
X262487750Y119731000D02*
X263588750Y118630000D01*
%TO.N,raw0 L*%
X71987750Y138781000D02*
X73088750Y137680000D01*
%TO.N,raw2 L*%
X52937750Y100681000D02*
X54038750Y99580000D01*
%TO.N,raw2 R*%
X264689750Y100681000D02*
X283919000Y100681000D01*
%TO.N,raw1 L*%
X54038750Y118630000D02*
X55139750Y119731000D01*
%TO.N,raw3 R*%
X224387750Y81631000D02*
X225488750Y80530000D01*
X199919750Y81631000D02*
X224387750Y81631000D01*
%TO.N,Col1 L*%
X125181096Y137877300D02*
X139546050Y137877300D01*
%TO.N,raw2 R*%
X207539750Y100681000D02*
X224387750Y100681000D01*
%TO.N,raw0 R*%
X187388750Y137680000D02*
X188489750Y138781000D01*
%TO.N,raw2 L*%
X71987750Y100681000D02*
X73088750Y99580000D01*
%TO.N,raw0 R*%
X206438750Y137680000D02*
X207539750Y138781000D01*
%TO.N,raw2 R*%
X225488750Y99580000D02*
X226589750Y100681000D01*
%TO.N,Col0 R*%
X189788750Y153430000D02*
X181333750Y153430000D01*
%TO.N,raw3 L*%
X100562750Y81631000D02*
X101663750Y80530000D01*
%TO.N,raw3 R*%
X165043750Y129080000D02*
X182626250Y111497500D01*
%TO.N,raw3 L*%
X119612750Y81631000D02*
X120713750Y80530000D01*
%TO.N,raw0 L*%
X33887750Y138781000D02*
X34988750Y137680000D01*
%TO.N,raw0 R*%
X207539750Y138781000D02*
X224387750Y138781000D01*
%TO.N,raw1 R*%
X224387750Y119731000D02*
X225488750Y118630000D01*
X244538750Y118630000D02*
X245639750Y119731000D01*
%TO.N,Col1 R*%
X189681041Y139240000D02*
X203871041Y153430000D01*
X180283750Y139240000D02*
X189681041Y139240000D01*
%TO.N,Col5 L*%
X144758750Y129080000D02*
X140908750Y129080000D01*
%TO.N,raw1 R*%
X245639750Y119731000D02*
X262487750Y119731000D01*
%TO.N,Col2 L*%
X140908750Y136700000D02*
X144758750Y136700000D01*
%TO.N,raw3 R*%
X244538750Y80530000D02*
X245639750Y81631000D01*
%TO.N,raw0 L*%
X13557500Y137680000D02*
X14658500Y138781000D01*
%TO.N,Col1 R*%
X203871041Y153430000D02*
X208838750Y153430000D01*
%TO.N,raw1 L*%
X52937750Y119731000D02*
X54038750Y118630000D01*
%TO.N,Net-(D43-A)*%
X184531250Y81158033D02*
X184531250Y80530000D01*
%TO.N,raw3 R*%
X243437750Y81631000D02*
X244538750Y80530000D01*
%TO.N,raw0 R*%
X187388750Y137680000D02*
X187191450Y137877300D01*
%TO.N,Col0 L*%
X140958750Y150680000D02*
X109138750Y150680000D01*
%TO.N,raw2 R*%
X243437750Y100681000D02*
X244538750Y99580000D01*
X186137750Y110526000D02*
X186137750Y100831000D01*
%TO.N,raw0 R*%
X187191450Y137877300D02*
X166221050Y137877300D01*
%TO.N,raw0 L*%
X110087750Y138781000D02*
X111188750Y137680000D01*
%TO.N,raw1 L*%
X55139750Y119731000D02*
X71987750Y119731000D01*
%TO.N,Col3 L*%
X78089750Y131779000D02*
X75488750Y134380000D01*
%TO.N,raw1 R*%
X243437750Y119731000D02*
X244538750Y118630000D01*
%TO.N,Col5 L*%
X119471041Y94580000D02*
X109937750Y104113291D01*
%TO.N,raw2 R*%
X186137750Y100831000D02*
X187388750Y99580000D01*
%TO.N,Col5 R*%
X180283750Y123533000D02*
X186287750Y117529000D01*
%TO.N,raw2 R*%
X165043750Y131620000D02*
X186137750Y110526000D01*
%TO.N,raw0 L*%
X92138750Y137680000D02*
X93239750Y138781000D01*
%TO.N,raw3 R*%
X266594750Y81631000D02*
X283442750Y81631000D01*
X265493750Y80530000D02*
X266594750Y81631000D01*
X182626250Y111497500D02*
X182626250Y90055000D01*
X226589750Y81631000D02*
X243437750Y81631000D01*
X182626250Y90055000D02*
X192151250Y80530000D01*
%TO.N,Col4 R*%
X184506450Y127397300D02*
X189412750Y127397300D01*
X225488750Y128155000D02*
X227989750Y125654000D01*
X227989750Y125654000D02*
X237275250Y125654000D01*
X207740650Y125654000D02*
X222987750Y125654000D01*
X265988750Y134112291D02*
X265988750Y134380000D01*
%TO.N,GNDL*%
X135438750Y154480000D02*
X129518750Y154480000D01*
%TO.N,Col4 L*%
X96737750Y117529000D02*
X94538750Y115330000D01*
%TO.N,Col3 R*%
X182664750Y131779000D02*
X244337750Y131779000D01*
%TO.N,Col4 L*%
X140908750Y131620000D02*
X126817750Y117529000D01*
%TO.N,Col3 R*%
X180283750Y134160000D02*
X182664750Y131779000D01*
%TO.N,GNDR*%
X177828750Y151940000D02*
X180283750Y151940000D01*
%TO.N,Col5 L*%
X114526250Y116267500D02*
X113588750Y115330000D01*
X135767010Y91416715D02*
X132603725Y94580000D01*
X109937750Y111679000D02*
X113588750Y115330000D01*
%TO.N,raw1 R*%
X206438750Y118630000D02*
X207539750Y119731000D01*
%TO.N,Col5 L*%
X128096250Y116267500D02*
X114526250Y116267500D01*
%TO.N,raw1 R*%
X207539750Y119731000D02*
X224387750Y119731000D01*
%TO.N,Col5 L*%
X109937750Y104113291D02*
X109937750Y111679000D01*
X140908750Y129080000D02*
X128096250Y116267500D01*
%TO.N,raw2 R*%
X244538750Y99580000D02*
X245639750Y100681000D01*
X224387750Y100681000D02*
X225488750Y99580000D01*
%TO.N,raw1 L*%
X36089750Y119731000D02*
X52937750Y119731000D01*
%TO.N,Net-(D42-A)*%
X121154510Y88590760D02*
X142256731Y88590760D01*
X120713750Y88150000D02*
X121154510Y88590760D01*
%TO.N,Net-(D43-A)*%
X174820916Y90868367D02*
X184531250Y81158033D01*
%TO.N,raw0 L*%
X73088750Y137680000D02*
X74189750Y138781000D01*
%TO.N,Col0 R*%
X181333750Y153430000D02*
X180283750Y154480000D01*
%TO.N,raw2 R*%
X188489750Y100681000D02*
X205337750Y100681000D01*
X206438750Y99580000D02*
X207539750Y100681000D01*
X263588750Y99580000D02*
X264689750Y100681000D01*
X226589750Y100681000D02*
X243437750Y100681000D01*
X262487750Y100681000D02*
X263588750Y99580000D01*
X283919000Y100681000D02*
X285020000Y99580000D01*
%TO.N,Col2 R*%
X180283750Y136700000D02*
X180404750Y136579000D01*
X180404750Y136579000D02*
X225689750Y136579000D01*
%TO.N,Col4 R*%
X252905459Y121029000D02*
X265988750Y134112291D01*
X222987750Y125654000D02*
X225488750Y128155000D01*
X205997350Y127397300D02*
X207740650Y125654000D01*
X241900250Y121029000D02*
X252905459Y121029000D01*
X180283750Y131620000D02*
X184506450Y127397300D01*
X189412750Y127397300D02*
X191156050Y125654000D01*
%TO.N,raw1 L*%
X14658500Y119731000D02*
X33887750Y119731000D01*
%TO.N,Col5 R*%
X186287750Y117529000D02*
X285221000Y117529000D01*
%TO.N,raw1 L*%
X110087750Y119731000D02*
X111188750Y118630000D01*
X71987750Y119731000D02*
X73088750Y118630000D01*
%TO.N,Col5 R*%
X180283750Y129080000D02*
X180283750Y123533000D01*
%TO.N,raw1 L*%
X91037750Y119731000D02*
X92138750Y118630000D01*
X13557500Y118630000D02*
X14658500Y119731000D01*
X73088750Y118630000D02*
X74189750Y119731000D01*
%TO.N,raw0 L*%
X91037750Y138781000D02*
X92138750Y137680000D01*
X54038750Y137680000D02*
X55139750Y138781000D01*
X52937750Y138781000D02*
X54038750Y137680000D01*
X93239750Y138781000D02*
X110087750Y138781000D01*
X36089750Y138781000D02*
X52937750Y138781000D01*
X55139750Y138781000D02*
X71987750Y138781000D01*
X14658500Y138781000D02*
X33887750Y138781000D01*
%TO.N,Net-(U2-RST)*%
X167798750Y151940000D02*
X165043750Y151940000D01*
X172538750Y156680000D02*
X167798750Y151940000D01*
%TO.N,GNDL*%
X137638750Y156680000D02*
X135438750Y154480000D01*
%TO.N,GNDR*%
X174538750Y156680000D02*
X174538750Y155230000D01*
%TO.N,Col0 L*%
X144758750Y154480000D02*
X140958750Y150680000D01*
%TD*%
M02*
