%TF.GenerationSoftware,KiCad,Pcbnew,9.0.2+1*%
%TF.CreationDate,2025-09-15T00:12:33+02:00*%
%TF.ProjectId,first,66697273-742e-46b6-9963-61645f706362,rev?*%
%TF.SameCoordinates,Original*%
%TF.FileFunction,Copper,L2,Bot*%
%TF.FilePolarity,Positive*%
%FSLAX46Y46*%
G04 Gerber Fmt 4.6, Leading zero omitted, Abs format (unit mm)*
G04 Created by KiCad (PCBNEW 9.0.2+1) date 2025-09-15 00:12:33*
%MOMM*%
%LPD*%
G01*
G04 APERTURE LIST*
G04 Aperture macros list*
%AMRoundRect*
0 Rectangle with rounded corners*
0 $1 Rounding radius*
0 $2 $3 $4 $5 $6 $7 $8 $9 X,Y pos of 4 corners*
0 Add a 4 corners polygon primitive as box body*
4,1,4,$2,$3,$4,$5,$6,$7,$8,$9,$2,$3,0*
0 Add four circle primitives for the rounded corners*
1,1,$1+$1,$2,$3*
1,1,$1+$1,$4,$5*
1,1,$1+$1,$6,$7*
1,1,$1+$1,$8,$9*
0 Add four rect primitives between the rounded corners*
20,1,$1+$1,$2,$3,$4,$5,0*
20,1,$1+$1,$4,$5,$6,$7,0*
20,1,$1+$1,$6,$7,$8,$9,0*
20,1,$1+$1,$8,$9,$2,$3,0*%
G04 Aperture macros list end*
%TA.AperFunction,ComponentPad*%
%ADD10C,1.752600*%
%TD*%
%TA.AperFunction,ComponentPad*%
%ADD11R,1.600000X1.600000*%
%TD*%
%TA.AperFunction,ComponentPad*%
%ADD12O,1.600000X1.600000*%
%TD*%
%TA.AperFunction,ComponentPad*%
%ADD13O,1.500000X2.500000*%
%TD*%
%TA.AperFunction,ComponentPad*%
%ADD14R,1.500000X2.500000*%
%TD*%
%TA.AperFunction,ComponentPad*%
%ADD15O,2.200000X3.500000*%
%TD*%
%TA.AperFunction,SMDPad,CuDef*%
%ADD16RoundRect,0.500000X-0.750000X-0.775000X0.750000X-0.775000X0.750000X0.775000X-0.750000X0.775000X0*%
%TD*%
%TA.AperFunction,ComponentPad*%
%ADD17C,2.500000*%
%TD*%
%TA.AperFunction,SMDPad,CuDef*%
%ADD18RoundRect,0.500000X-0.925029X-0.554478X0.523860X-0.942707X0.925029X0.554478X-0.523860X0.942707X0*%
%TD*%
%TA.AperFunction,SMDPad,CuDef*%
%ADD19RoundRect,0.500000X-0.523860X-0.942707X0.925029X-0.554478X0.523860X0.942707X-0.925029X0.554478X0*%
%TD*%
%TA.AperFunction,ComponentPad*%
%ADD20C,1.524000*%
%TD*%
%TA.AperFunction,ComponentPad*%
%ADD21RoundRect,0.250000X-0.512000X0.512000X-0.512000X-0.512000X0.512000X-0.512000X0.512000X0.512000X0*%
%TD*%
%TA.AperFunction,Conductor*%
%ADD22C,0.200000*%
%TD*%
G04 APERTURE END LIST*
D10*
%TO.P,U1,1,1*%
%TO.N,unconnected-(U1-Pad1)*%
X144758750Y157020000D03*
%TO.P,U1,2,0*%
%TO.N,Col0 L*%
X144758750Y154480000D03*
%TO.P,U1,3,GND*%
%TO.N,unconnected-(U1-GND-Pad3)*%
X144758750Y151940000D03*
%TO.P,U1,4,GND*%
%TO.N,unconnected-(U1-GND-Pad4)*%
X144758750Y149400000D03*
%TO.P,U1,5,2*%
%TO.N,unconnected-(U1-2-Pad5)*%
X144758750Y146860000D03*
%TO.P,U1,6,3*%
%TO.N,unconnected-(U1-3-Pad6)*%
X144758750Y144320000D03*
%TO.P,U1,7,4*%
%TO.N,unconnected-(U1-4-Pad7)*%
X144758750Y141780000D03*
%TO.P,U1,8,5*%
%TO.N,Col1 L*%
X144758750Y139240000D03*
%TO.P,U1,9,6*%
%TO.N,Col2 L*%
X144758750Y136700000D03*
%TO.P,U1,10,7*%
%TO.N,Col3 L*%
X144758750Y134160000D03*
%TO.P,U1,11,8*%
%TO.N,Col4 L*%
X144758750Y131620000D03*
%TO.P,U1,12,9*%
%TO.N,Col5 L*%
X144758750Y129080000D03*
%TO.P,U1,13,10*%
%TO.N,raw3 L*%
X129518750Y129080000D03*
%TO.P,U1,14,16*%
%TO.N,raw2 L*%
X129518750Y131620000D03*
%TO.P,U1,15,14*%
%TO.N,raw1 L*%
X129518750Y134160000D03*
%TO.P,U1,16,15*%
%TO.N,raw0 L*%
X129518750Y136700000D03*
%TO.P,U1,17,18*%
%TO.N,unconnected-(U1-18-Pad17)*%
X129518750Y139240000D03*
%TO.P,U1,18,19*%
%TO.N,unconnected-(U1-19-Pad18)*%
X129518750Y141780000D03*
%TO.P,U1,19,20*%
%TO.N,unconnected-(U1-20-Pad19)*%
X129518750Y144320000D03*
%TO.P,U1,20,21*%
%TO.N,unconnected-(U1-21-Pad20)*%
X129518750Y146860000D03*
%TO.P,U1,21,3.3v*%
%TO.N,unconnected-(U1-3.3v-Pad21)*%
X129518750Y149400000D03*
%TO.P,U1,22,RST*%
%TO.N,Net-(U1-RST)*%
X129518750Y151940000D03*
%TO.P,U1,23,GND*%
%TO.N,GNDL*%
X129518750Y154480000D03*
%TO.P,U1,24,B+*%
%TO.N,Net-(BT1-+)*%
X129518750Y157020000D03*
%TO.P,U1,25,1*%
%TO.N,unconnected-(U1-1-Pad25)*%
X142218750Y134160000D03*
%TO.P,U1,26,2*%
%TO.N,unconnected-(U1-2-Pad26)*%
X139678750Y134160000D03*
%TO.P,U1,27,7*%
%TO.N,unconnected-(U1-7-Pad27)*%
X137138750Y134160000D03*
%TD*%
D11*
%TO.P,D36,1,K*%
%TO.N,raw2 R*%
X285020000Y99580000D03*
D12*
%TO.P,D36,2,A*%
%TO.N,Net-(D36-A)*%
X292640000Y99580000D03*
%TD*%
D13*
%TO.P,RstL1,3*%
%TO.N,N/C*%
X135638750Y156680000D03*
%TO.P,RstL1,2,2*%
%TO.N,GNDL*%
X137638750Y156680000D03*
D14*
%TO.P,RstL1,1,1*%
%TO.N,Net-(U1-RST)*%
X139638750Y156680000D03*
D15*
%TO.P,RstL1,*%
%TO.N,*%
X133538750Y156680000D03*
X141738750Y156680000D03*
%TD*%
D11*
%TO.P,D14,1,K*%
%TO.N,raw1 L*%
X34988750Y118630000D03*
D12*
%TO.P,D14,2,A*%
%TO.N,Net-(D14-A)*%
X42608750Y118630000D03*
%TD*%
D11*
%TO.P,D44,1,K*%
%TO.N,raw3 R*%
X198818750Y80530000D03*
D12*
%TO.P,D44,2,A*%
%TO.N,Net-(D44-A)*%
X206438750Y80530000D03*
%TD*%
D11*
%TO.P,D47,1,K*%
%TO.N,raw3 R*%
X265493750Y80530000D03*
D12*
%TO.P,D47,2,A*%
%TO.N,Net-(D47-A)*%
X273113750Y80530000D03*
%TD*%
D16*
%TO.P,S28,1,1*%
%TO.N,Col3 L*%
X70013750Y104880000D03*
D17*
X75488750Y115330000D03*
%TO.P,S28,2,2*%
%TO.N,Net-(D28-A)*%
X82488750Y114280000D03*
D16*
X84363750Y103830000D03*
%TD*%
%TO.P,S6,1,1*%
%TO.N,Col5 L*%
X108113750Y142980000D03*
D17*
X113588750Y153430000D03*
%TO.P,S6,2,2*%
%TO.N,Net-(D6-A)*%
X120588750Y152380000D03*
D16*
X122463750Y141930000D03*
%TD*%
D11*
%TO.P,D48,1,K*%
%TO.N,raw3 R*%
X284543750Y80530000D03*
D12*
%TO.P,D48,2,A*%
%TO.N,Net-(D48-A)*%
X292163750Y80530000D03*
%TD*%
D11*
%TO.P,D1,1,K*%
%TO.N,raw0 L*%
X13557500Y137680000D03*
D12*
%TO.P,D1,2,A*%
%TO.N,Net-(D1-A)*%
X21177500Y137680000D03*
%TD*%
D11*
%TO.P,D29,1,K*%
%TO.N,raw2 L*%
X92138750Y99580000D03*
D12*
%TO.P,D29,2,A*%
%TO.N,Net-(D29-A)*%
X99758750Y99580000D03*
%TD*%
D11*
%TO.P,D21,1,K*%
%TO.N,raw1 R*%
X225488750Y118630000D03*
D12*
%TO.P,D21,2,A*%
%TO.N,Net-(D21-A)*%
X233108750Y118630000D03*
%TD*%
D11*
%TO.P,D45,1,K*%
%TO.N,raw3 R*%
X225488750Y80530000D03*
D12*
%TO.P,D45,2,A*%
%TO.N,Net-(D45-A)*%
X233108750Y80530000D03*
%TD*%
D16*
%TO.P,S48,1,1*%
%TO.N,Col5 R*%
X281945000Y85830000D03*
D17*
X287420000Y96280000D03*
%TO.P,S48,2,2*%
%TO.N,Net-(D48-A)*%
X294420000Y95230000D03*
D16*
X296295000Y84780000D03*
%TD*%
D11*
%TO.P,D3,1,K*%
%TO.N,raw0 L*%
X54038750Y137680000D03*
D12*
%TO.P,D3,2,A*%
%TO.N,Net-(D3-A)*%
X61658750Y137680000D03*
%TD*%
D16*
%TO.P,S36,1,1*%
%TO.N,Col5 R*%
X281945000Y104880000D03*
D17*
X287420000Y115330000D03*
%TO.P,S36,2,2*%
%TO.N,Net-(D36-A)*%
X294420000Y114280000D03*
D16*
X296295000Y103830000D03*
%TD*%
%TO.P,S19,1,1*%
%TO.N,Col0 R*%
X184313750Y123930000D03*
D17*
X189788750Y134380000D03*
%TO.P,S19,2,2*%
%TO.N,Net-(D19-A)*%
X196788750Y133330000D03*
D16*
X198663750Y122880000D03*
%TD*%
%TO.P,S44,1,1*%
%TO.N,Col1 R*%
X193838750Y85830000D03*
D17*
X199313750Y96280000D03*
%TO.P,S44,2,2*%
%TO.N,Net-(D44-A)*%
X206313750Y95230000D03*
D16*
X208188750Y84780000D03*
%TD*%
D11*
%TO.P,D23,1,K*%
%TO.N,raw1 R*%
X263588750Y118630000D03*
D12*
%TO.P,D23,2,A*%
%TO.N,Net-(D23-A)*%
X271208750Y118630000D03*
%TD*%
D16*
%TO.P,S23,1,1*%
%TO.N,Col4 R*%
X260513750Y123930000D03*
D17*
X265988750Y134380000D03*
%TO.P,S23,2,2*%
%TO.N,Net-(D23-A)*%
X272988750Y133330000D03*
D16*
X274863750Y122880000D03*
%TD*%
D11*
%TO.P,D17,1,K*%
%TO.N,raw1 L*%
X92138750Y118630000D03*
D12*
%TO.P,D17,2,A*%
%TO.N,Net-(D17-A)*%
X99758750Y118630000D03*
%TD*%
D11*
%TO.P,D7,1,K*%
%TO.N,raw0 R*%
X187388750Y137680000D03*
D12*
%TO.P,D7,2,A*%
%TO.N,Net-(D7-A)*%
X195008750Y137680000D03*
%TD*%
D11*
%TO.P,D4,1,K*%
%TO.N,raw0 L*%
X73088750Y137680000D03*
D12*
%TO.P,D4,2,A*%
%TO.N,Net-(D4-A)*%
X80708750Y137680000D03*
%TD*%
D16*
%TO.P,S9,1,1*%
%TO.N,Col2 R*%
X222413750Y142980000D03*
D17*
X227888750Y153430000D03*
%TO.P,S9,2,2*%
%TO.N,Net-(D9-A)*%
X234888750Y152380000D03*
D16*
X236763750Y141930000D03*
%TD*%
D11*
%TO.P,D19,1,K*%
%TO.N,raw1 R*%
X187388750Y118630000D03*
D12*
%TO.P,D19,2,A*%
%TO.N,Net-(D19-A)*%
X195008750Y118630000D03*
%TD*%
D11*
%TO.P,D24,1,K*%
%TO.N,raw1 R*%
X285020000Y118630000D03*
D12*
%TO.P,D24,2,A*%
%TO.N,Net-(D24-A)*%
X292640000Y118630000D03*
%TD*%
D16*
%TO.P,S22,1,1*%
%TO.N,Col3 R*%
X241463750Y123930000D03*
D17*
X246938750Y134380000D03*
%TO.P,S22,2,2*%
%TO.N,Net-(D22-A)*%
X253938750Y133330000D03*
D16*
X255813750Y122880000D03*
%TD*%
D11*
%TO.P,D40,1,K*%
%TO.N,raw3 L*%
X73088750Y80530000D03*
D12*
%TO.P,D40,2,A*%
%TO.N,Net-(D40-A)*%
X80708750Y80530000D03*
%TD*%
D11*
%TO.P,D18,1,K*%
%TO.N,raw1 L*%
X111188750Y118630000D03*
D12*
%TO.P,D18,2,A*%
%TO.N,Net-(D18-A)*%
X118808750Y118630000D03*
%TD*%
D11*
%TO.P,D6,1,K*%
%TO.N,raw0 L*%
X111188750Y137680000D03*
D12*
%TO.P,D6,2,A*%
%TO.N,Net-(D6-A)*%
X118808750Y137680000D03*
%TD*%
D11*
%TO.P,D37,1,K*%
%TO.N,raw3 L*%
X13557500Y80530000D03*
D12*
%TO.P,D37,2,A*%
%TO.N,Net-(D37-A)*%
X21177500Y80530000D03*
%TD*%
D11*
%TO.P,D42,1,K*%
%TO.N,raw3 L*%
X120713750Y80530000D03*
D12*
%TO.P,D42,2,A*%
%TO.N,Net-(D42-A)*%
X120713750Y88150000D03*
%TD*%
D16*
%TO.P,S2,1,1*%
%TO.N,Col1 L*%
X31913750Y142980000D03*
D17*
X37388750Y153430000D03*
%TO.P,S2,2,2*%
%TO.N,Net-(D2-A)*%
X44388750Y152380000D03*
D16*
X46263750Y141930000D03*
%TD*%
D11*
%TO.P,D20,1,K*%
%TO.N,raw1 R*%
X206438750Y118630000D03*
D12*
%TO.P,D20,2,A*%
%TO.N,Net-(D20-A)*%
X214058750Y118630000D03*
%TD*%
D11*
%TO.P,D16,1,K*%
%TO.N,raw1 L*%
X73088750Y118630000D03*
D12*
%TO.P,D16,2,A*%
%TO.N,Net-(D16-A)*%
X80708750Y118630000D03*
%TD*%
D16*
%TO.P,S40,1,1*%
%TO.N,Col3 L*%
X70013750Y85830000D03*
D17*
X75488750Y96280000D03*
%TO.P,S40,2,2*%
%TO.N,Net-(D40-A)*%
X82488750Y95230000D03*
D16*
X84363750Y84780000D03*
%TD*%
%TO.P,S10,1,1*%
%TO.N,Col3 R*%
X241463750Y142980000D03*
D17*
X246938750Y153430000D03*
%TO.P,S10,2,2*%
%TO.N,Net-(D10-A)*%
X253938750Y152380000D03*
D16*
X255813750Y141930000D03*
%TD*%
%TO.P,S47,1,1*%
%TO.N,Col4 R*%
X260513750Y85829999D03*
D17*
X265988750Y96280000D03*
%TO.P,S47,2,2*%
%TO.N,Net-(D47-A)*%
X272988750Y95230000D03*
D16*
X274863750Y84780000D03*
%TD*%
%TO.P,S21,1,1*%
%TO.N,Col2 R*%
X222413750Y123930000D03*
D17*
X227888750Y134380000D03*
%TO.P,S21,2,2*%
%TO.N,Net-(D21-A)*%
X234888750Y133330000D03*
D16*
X236763750Y122880000D03*
%TD*%
D11*
%TO.P,D31,1,K*%
%TO.N,raw2 R*%
X187388750Y99580000D03*
D12*
%TO.P,D31,2,A*%
%TO.N,Net-(D31-A)*%
X195008750Y99580000D03*
%TD*%
D16*
%TO.P,S11,1,1*%
%TO.N,Col4 R*%
X260513750Y142980000D03*
D17*
X265988750Y153430000D03*
%TO.P,S11,2,2*%
%TO.N,Net-(D11-A)*%
X272988750Y152380000D03*
D16*
X274863750Y141930000D03*
%TD*%
%TO.P,S15,1,1*%
%TO.N,Col2 L*%
X50963750Y123930000D03*
D17*
X56438750Y134380000D03*
%TO.P,S15,2,2*%
%TO.N,Net-(D15-A)*%
X63438750Y133330000D03*
D16*
X65313750Y122880000D03*
%TD*%
D11*
%TO.P,D13,1,K*%
%TO.N,raw1 L*%
X13557500Y118630000D03*
D12*
%TO.P,D13,2,A*%
%TO.N,Net-(D13-A)*%
X21177500Y118630000D03*
%TD*%
D16*
%TO.P,S35,1,1*%
%TO.N,Col4 R*%
X260513750Y104880000D03*
D17*
X265988750Y115330000D03*
%TO.P,S35,2,2*%
%TO.N,Net-(D35-A)*%
X272988750Y114280000D03*
D16*
X274863750Y103830000D03*
%TD*%
%TO.P,S20,1,1*%
%TO.N,Col1 R*%
X203363750Y123930000D03*
D17*
X208838750Y134380000D03*
%TO.P,S20,2,2*%
%TO.N,Net-(D20-A)*%
X215838750Y133330000D03*
D16*
X217713750Y122880000D03*
%TD*%
%TO.P,S29,1,1*%
%TO.N,Col4 L*%
X89063750Y104880000D03*
D17*
X94538750Y115330000D03*
%TO.P,S29,2,2*%
%TO.N,Net-(D29-A)*%
X101538750Y114280000D03*
D16*
X103413750Y103830000D03*
%TD*%
%TO.P,S1,1,1*%
%TO.N,Col0 L*%
X10482500Y142980000D03*
D17*
X15957500Y153430000D03*
%TO.P,S1,2,2*%
%TO.N,Net-(D1-A)*%
X22957500Y152380000D03*
D16*
X24832500Y141930000D03*
%TD*%
%TO.P,S33,1,1*%
%TO.N,Col2 R*%
X222413750Y104880000D03*
D17*
X227888750Y115330000D03*
%TO.P,S33,2,2*%
%TO.N,Net-(D33-A)*%
X234888750Y114280000D03*
D16*
X236763750Y103830000D03*
%TD*%
D10*
%TO.P,U2,1,1*%
%TO.N,unconnected-(U2-Pad1)*%
X180283750Y157020000D03*
%TO.P,U2,2,0*%
%TO.N,Col0 R*%
X180283750Y154480000D03*
%TO.P,U2,3,GND*%
%TO.N,GNDR*%
X180283750Y151940000D03*
%TO.P,U2,4,GND*%
%TO.N,unconnected-(U2-GND-Pad4)*%
X180283750Y149400000D03*
%TO.P,U2,5,2*%
%TO.N,unconnected-(U2-2-Pad5)*%
X180283750Y146860000D03*
%TO.P,U2,6,3*%
%TO.N,unconnected-(U2-3-Pad6)*%
X180283750Y144320000D03*
%TO.P,U2,7,4*%
%TO.N,unconnected-(U2-4-Pad7)*%
X180283750Y141780000D03*
%TO.P,U2,8,5*%
%TO.N,Col1 R*%
X180283750Y139240000D03*
%TO.P,U2,9,6*%
%TO.N,Col2 R*%
X180283750Y136700000D03*
%TO.P,U2,10,7*%
%TO.N,Col3 R*%
X180283750Y134160000D03*
%TO.P,U2,11,8*%
%TO.N,Col4 R*%
X180283750Y131620000D03*
%TO.P,U2,12,9*%
%TO.N,Col5 R*%
X180283750Y129080000D03*
%TO.P,U2,13,10*%
%TO.N,raw3 R*%
X165043750Y129080000D03*
%TO.P,U2,14,16*%
%TO.N,raw2 R*%
X165043750Y131620000D03*
%TO.P,U2,15,14*%
%TO.N,raw1 R*%
X165043750Y134160000D03*
%TO.P,U2,16,15*%
%TO.N,raw0 R*%
X165043750Y136700000D03*
%TO.P,U2,17,18*%
%TO.N,unconnected-(U2-18-Pad17)*%
X165043750Y139240000D03*
%TO.P,U2,18,19*%
%TO.N,unconnected-(U2-19-Pad18)*%
X165043750Y141780000D03*
%TO.P,U2,19,20*%
%TO.N,unconnected-(U2-20-Pad19)*%
X165043750Y144320000D03*
%TO.P,U2,20,21*%
%TO.N,unconnected-(U2-21-Pad20)*%
X165043750Y146860000D03*
%TO.P,U2,21,3.3v*%
%TO.N,unconnected-(U2-3.3v-Pad21)*%
X165043750Y149400000D03*
%TO.P,U2,22,RST*%
%TO.N,Net-(U2-RST)*%
X165043750Y151940000D03*
%TO.P,U2,23,GND*%
%TO.N,unconnected-(U2-GND-Pad23)*%
X165043750Y154480000D03*
%TO.P,U2,24,B+*%
%TO.N,Net-(BT2-+)*%
X165043750Y157020000D03*
%TO.P,U2,25,1*%
%TO.N,unconnected-(U2-1-Pad25)*%
X177743750Y134160000D03*
%TO.P,U2,26,2*%
%TO.N,unconnected-(U2-2-Pad26)*%
X175203750Y134160000D03*
%TO.P,U2,27,7*%
%TO.N,unconnected-(U2-7-Pad27)*%
X172663750Y134160000D03*
%TD*%
D16*
%TO.P,S34,1,1*%
%TO.N,Col3 R*%
X241463750Y104880000D03*
D17*
X246938750Y115330000D03*
%TO.P,S34,2,2*%
%TO.N,Net-(D34-A)*%
X253938750Y114280000D03*
D16*
X255813750Y103830000D03*
%TD*%
%TO.P,S41,1,1*%
%TO.N,Col4 L*%
X98588750Y85830000D03*
D17*
X104063750Y96280000D03*
%TO.P,S41,2,2*%
%TO.N,Net-(D41-A)*%
X111063750Y95230000D03*
D16*
X112938750Y84780000D03*
%TD*%
%TO.P,S16,1,1*%
%TO.N,Col3 L*%
X70013750Y123930000D03*
D17*
X75488750Y134380000D03*
%TO.P,S16,2,2*%
%TO.N,Net-(D16-A)*%
X82488750Y133330000D03*
D16*
X84363750Y122880000D03*
%TD*%
%TO.P,S8,1,1*%
%TO.N,Col1 R*%
X203363750Y142980000D03*
D17*
X208838750Y153430000D03*
%TO.P,S8,2,2*%
%TO.N,Net-(D8-A)*%
X215838750Y152380000D03*
D16*
X217713750Y141930000D03*
%TD*%
D11*
%TO.P,D15,1,K*%
%TO.N,raw1 L*%
X54038750Y118630000D03*
D12*
%TO.P,D15,2,A*%
%TO.N,Net-(D15-A)*%
X61658750Y118630000D03*
%TD*%
D16*
%TO.P,S5,1,1*%
%TO.N,Col4 L*%
X89063750Y142980000D03*
D17*
X94538750Y153430000D03*
%TO.P,S5,2,2*%
%TO.N,Net-(D5-A)*%
X101538750Y152380000D03*
D16*
X103413750Y141930000D03*
%TD*%
%TO.P,S38,1,1*%
%TO.N,Col1 L*%
X31913750Y85830000D03*
D17*
X37388750Y96280000D03*
%TO.P,S38,2,2*%
%TO.N,Net-(D38-A)*%
X44388750Y95230000D03*
D16*
X46263750Y84780000D03*
%TD*%
D11*
%TO.P,D33,1,K*%
%TO.N,raw2 R*%
X225488750Y99580000D03*
D12*
%TO.P,D33,2,A*%
%TO.N,Net-(D33-A)*%
X233108750Y99580000D03*
%TD*%
D16*
%TO.P,S7,1,1*%
%TO.N,Col0 R*%
X184313750Y142980000D03*
D17*
X189788750Y153430000D03*
%TO.P,S7,2,2*%
%TO.N,Net-(D7-A)*%
X196788750Y152380000D03*
D16*
X198663750Y141930000D03*
%TD*%
%TO.P,S37,1,1*%
%TO.N,Col0 L*%
X10482500Y85830000D03*
D17*
X15957500Y96280000D03*
%TO.P,S37,2,2*%
%TO.N,Net-(D37-A)*%
X22957500Y95230000D03*
D16*
X24832500Y84780000D03*
%TD*%
%TO.P,S27,1,1*%
%TO.N,Col2 L*%
X50963750Y104880000D03*
D17*
X56438750Y115330000D03*
%TO.P,S27,2,2*%
%TO.N,Net-(D27-A)*%
X63438750Y114280000D03*
D16*
X65313750Y103830000D03*
%TD*%
D11*
%TO.P,D22,1,K*%
%TO.N,raw1 R*%
X244538750Y118630000D03*
D12*
%TO.P,D22,2,A*%
%TO.N,Net-(D22-A)*%
X252158750Y118630000D03*
%TD*%
D11*
%TO.P,D34,1,K*%
%TO.N,raw2 R*%
X244538750Y99580000D03*
D12*
%TO.P,D34,2,A*%
%TO.N,Net-(D34-A)*%
X252158750Y99580000D03*
%TD*%
D18*
%TO.P,S42,1,1*%
%TO.N,Col5 L*%
X127773907Y82739823D03*
D17*
X135767010Y91416715D03*
%TO.P,S42,2,2*%
%TO.N,Net-(D42-A)*%
X142256731Y88590760D03*
D18*
X141363183Y78011549D03*
%TD*%
D11*
%TO.P,D35,1,K*%
%TO.N,raw2 R*%
X263588750Y99580000D03*
D12*
%TO.P,D35,2,A*%
%TO.N,Net-(D35-A)*%
X271208750Y99580000D03*
%TD*%
D16*
%TO.P,S4,1,1*%
%TO.N,Col3 L*%
X70013750Y142980000D03*
D17*
X75488750Y153430000D03*
%TO.P,S4,2,2*%
%TO.N,Net-(D4-A)*%
X82488750Y152380000D03*
D16*
X84363750Y141930000D03*
%TD*%
D11*
%TO.P,D28,1,K*%
%TO.N,raw2 L*%
X73088750Y99580000D03*
D12*
%TO.P,D28,2,A*%
%TO.N,Net-(D28-A)*%
X80708750Y99580000D03*
%TD*%
D16*
%TO.P,S46,1,1*%
%TO.N,Col3 R*%
X241463750Y85830000D03*
D17*
X246938750Y96280000D03*
%TO.P,S46,2,2*%
%TO.N,Net-(D46-A)*%
X253938750Y95230000D03*
D16*
X255813750Y84780000D03*
%TD*%
%TO.P,S32,1,1*%
%TO.N,Col1 R*%
X203363750Y104880000D03*
D17*
X208838750Y115330000D03*
%TO.P,S32,2,2*%
%TO.N,Net-(D32-A)*%
X215838750Y114280000D03*
D16*
X217713750Y103830000D03*
%TD*%
D11*
%TO.P,D30,1,K*%
%TO.N,raw2 L*%
X111188750Y99580000D03*
D12*
%TO.P,D30,2,A*%
%TO.N,Net-(D30-A)*%
X118808750Y99580000D03*
%TD*%
D11*
%TO.P,D39,1,K*%
%TO.N,raw3 L*%
X54038750Y80530000D03*
D12*
%TO.P,D39,2,A*%
%TO.N,Net-(D39-A)*%
X61658750Y80530000D03*
%TD*%
D11*
%TO.P,D5,1,K*%
%TO.N,raw0 L*%
X92138750Y137680000D03*
D12*
%TO.P,D5,2,A*%
%TO.N,Net-(D5-A)*%
X99758750Y137680000D03*
%TD*%
D19*
%TO.P,S43,1,1*%
%TO.N,Col0 R*%
X165203890Y78559897D03*
D17*
X167787675Y90070856D03*
%TO.P,S43,2,2*%
%TO.N,Net-(D43-A)*%
X174820916Y90868367D03*
D19*
X179336686Y81259728D03*
%TD*%
D16*
%TO.P,S31,1,1*%
%TO.N,Col0 R*%
X184313750Y104880000D03*
D17*
X189788750Y115330000D03*
%TO.P,S31,2,2*%
%TO.N,Net-(D31-A)*%
X196788750Y114280000D03*
D16*
X198663750Y103830000D03*
%TD*%
D11*
%TO.P,D27,1,K*%
%TO.N,raw2 L*%
X54038750Y99580000D03*
D12*
%TO.P,D27,2,A*%
%TO.N,Net-(D27-A)*%
X61658750Y99580000D03*
%TD*%
D16*
%TO.P,S3,1,1*%
%TO.N,Col2 L*%
X50963750Y142980000D03*
D17*
X56438750Y153430000D03*
%TO.P,S3,2,2*%
%TO.N,Net-(D3-A)*%
X63438750Y152380000D03*
D16*
X65313750Y141930000D03*
%TD*%
D11*
%TO.P,D43,1,K*%
%TO.N,raw3 R*%
X192151250Y80530000D03*
D12*
%TO.P,D43,2,A*%
%TO.N,Net-(D43-A)*%
X184531250Y80530000D03*
%TD*%
D11*
%TO.P,D10,1,K*%
%TO.N,raw0 R*%
X244538750Y137680000D03*
D12*
%TO.P,D10,2,A*%
%TO.N,Net-(D10-A)*%
X252158750Y137680000D03*
%TD*%
D11*
%TO.P,D11,1,K*%
%TO.N,raw0 R*%
X263588750Y137680000D03*
D12*
%TO.P,D11,2,A*%
%TO.N,Net-(D11-A)*%
X271208750Y137680000D03*
%TD*%
D16*
%TO.P,S13,1,1*%
%TO.N,Col0 L*%
X10482500Y123930000D03*
D17*
X15957500Y134380000D03*
%TO.P,S13,2,2*%
%TO.N,Net-(D13-A)*%
X22957500Y133330000D03*
D16*
X24832500Y122880000D03*
%TD*%
D11*
%TO.P,D25,1,K*%
%TO.N,raw2 L*%
X13557500Y99580000D03*
D12*
%TO.P,D25,2,A*%
%TO.N,Net-(D25-A)*%
X21177500Y99580000D03*
%TD*%
D11*
%TO.P,D8,1,K*%
%TO.N,raw0 R*%
X206438750Y137680000D03*
D12*
%TO.P,D8,2,A*%
%TO.N,Net-(D8-A)*%
X214058750Y137680000D03*
%TD*%
D11*
%TO.P,D2,1,K*%
%TO.N,raw0 L*%
X34988750Y137680000D03*
D12*
%TO.P,D2,2,A*%
%TO.N,Net-(D2-A)*%
X42608750Y137680000D03*
%TD*%
D11*
%TO.P,D12,1,K*%
%TO.N,raw0 R*%
X285020000Y137680000D03*
D12*
%TO.P,D12,2,A*%
%TO.N,Net-(D12-A)*%
X292640000Y137680000D03*
%TD*%
D11*
%TO.P,D41,1,K*%
%TO.N,raw3 L*%
X101663750Y80530000D03*
D12*
%TO.P,D41,2,A*%
%TO.N,Net-(D41-A)*%
X109283750Y80530000D03*
%TD*%
D16*
%TO.P,S18,1,1*%
%TO.N,Col5 L*%
X108113750Y123930000D03*
D17*
X113588750Y134380000D03*
%TO.P,S18,2,2*%
%TO.N,Net-(D18-A)*%
X120588750Y133330000D03*
D16*
X122463750Y122880000D03*
%TD*%
%TO.P,S30,1,1*%
%TO.N,Col5 L*%
X108113750Y104880000D03*
D17*
X113588750Y115330000D03*
%TO.P,S30,2,2*%
%TO.N,Net-(D30-A)*%
X120588750Y114280000D03*
D16*
X122463750Y103830000D03*
%TD*%
D11*
%TO.P,D32,1,K*%
%TO.N,raw2 R*%
X206438750Y99580000D03*
D12*
%TO.P,D32,2,A*%
%TO.N,Net-(D32-A)*%
X214058750Y99580000D03*
%TD*%
D16*
%TO.P,S17,1,1*%
%TO.N,Col4 L*%
X89063750Y123930000D03*
D17*
X94538750Y134380000D03*
%TO.P,S17,2,2*%
%TO.N,Net-(D17-A)*%
X101538750Y133330000D03*
D16*
X103413750Y122880000D03*
%TD*%
D11*
%TO.P,D9,1,K*%
%TO.N,raw0 R*%
X225488750Y137680000D03*
D12*
%TO.P,D9,2,A*%
%TO.N,Net-(D9-A)*%
X233108750Y137680000D03*
%TD*%
D16*
%TO.P,S45,1,1*%
%TO.N,Col2 R*%
X222413750Y85830000D03*
D17*
X227888750Y96280000D03*
%TO.P,S45,2,2*%
%TO.N,Net-(D45-A)*%
X234888750Y95230000D03*
D16*
X236763750Y84780000D03*
%TD*%
%TO.P,S24,1,1*%
%TO.N,Col5 R*%
X281945000Y123930000D03*
D17*
X287420000Y134380000D03*
%TO.P,S24,2,2*%
%TO.N,Net-(D24-A)*%
X294420000Y133330000D03*
D16*
X296295000Y122880000D03*
%TD*%
D11*
%TO.P,D26,1,K*%
%TO.N,raw2 L*%
X34988750Y99580000D03*
D12*
%TO.P,D26,2,A*%
%TO.N,Net-(D26-A)*%
X42608750Y99580000D03*
%TD*%
D16*
%TO.P,S25,1,1*%
%TO.N,Col0 L*%
X10482500Y104880000D03*
D17*
X15957500Y115330000D03*
%TO.P,S25,2,2*%
%TO.N,Net-(D25-A)*%
X22957500Y114280000D03*
D16*
X24832500Y103830000D03*
%TD*%
D20*
%TO.P,BT1,1,+*%
%TO.N,Net-(BT1-+)*%
X148018750Y124980000D03*
D21*
%TO.P,BT1,2,-*%
%TO.N,GNDL*%
X148018750Y122440000D03*
%TD*%
D11*
%TO.P,D38,1,K*%
%TO.N,raw3 L*%
X34988750Y80530000D03*
D12*
%TO.P,D38,2,A*%
%TO.N,Net-(D38-A)*%
X42608750Y80530000D03*
%TD*%
D16*
%TO.P,S39,1,1*%
%TO.N,Col2 L*%
X50963750Y85830000D03*
D17*
X56438750Y96280000D03*
%TO.P,S39,2,2*%
%TO.N,Net-(D39-A)*%
X63438750Y95230000D03*
D16*
X65313750Y84780000D03*
%TD*%
%TO.P,S26,1,1*%
%TO.N,Col1 L*%
X31913750Y104880000D03*
D17*
X37388750Y115330000D03*
%TO.P,S26,2,2*%
%TO.N,Net-(D26-A)*%
X44388750Y114280000D03*
D16*
X46263750Y103830000D03*
%TD*%
D13*
%TO.P,RstR1,3*%
%TO.N,N/C*%
X170538750Y156680000D03*
%TO.P,RstR1,2,2*%
%TO.N,Net-(U2-RST)*%
X172538750Y156680000D03*
D14*
%TO.P,RstR1,1,1*%
%TO.N,GNDR*%
X174538750Y156680000D03*
D15*
%TO.P,RstR1,*%
%TO.N,*%
X168438750Y156680000D03*
X176638750Y156680000D03*
%TD*%
D16*
%TO.P,S14,1,1*%
%TO.N,Col1 L*%
X31913750Y123930000D03*
D17*
X37388750Y134380000D03*
%TO.P,S14,2,2*%
%TO.N,Net-(D14-A)*%
X44388750Y133330000D03*
D16*
X46263750Y122880000D03*
%TD*%
D11*
%TO.P,D46,1,K*%
%TO.N,raw3 R*%
X244538750Y80530000D03*
D12*
%TO.P,D46,2,A*%
%TO.N,Net-(D46-A)*%
X252158750Y80530000D03*
%TD*%
D16*
%TO.P,S12,1,1*%
%TO.N,Col5 R*%
X281945000Y142980000D03*
D17*
X287420000Y153430000D03*
%TO.P,S12,2,2*%
%TO.N,Net-(D12-A)*%
X294420000Y152380000D03*
D16*
X296295000Y141930000D03*
%TD*%
D20*
%TO.P,BT2,1,+*%
%TO.N,Net-(BT2-+)*%
X163258750Y124980000D03*
D21*
%TO.P,BT2,2,-*%
%TO.N,GNDR*%
X163258750Y122440000D03*
%TD*%
D22*
%TO.N,Col4 R*%
X260513750Y147955000D02*
X260513750Y142980000D01*
%TO.N,Net-(D30-A)*%
X120588750Y114280000D02*
X122463750Y112405000D01*
%TO.N,Net-(D47-A)*%
X273113750Y83030000D02*
X274863750Y84780000D01*
%TO.N,Col4 L*%
X97663750Y96280000D02*
X104063750Y96280000D01*
%TO.N,Col3 L*%
X70013750Y90805000D02*
X70013750Y85830000D01*
%TO.N,GNDR*%
X163866450Y125875610D02*
X164321750Y125420310D01*
%TO.N,Net-(D48-A)*%
X292163750Y80530000D02*
X296295000Y84661250D01*
%TO.N,Col2 R*%
X227888750Y118455000D02*
X227888750Y115330000D01*
%TO.N,Net-(D8-A)*%
X217713750Y150505000D02*
X215838750Y152380000D01*
%TO.N,Col3 R*%
X241463750Y109855000D02*
X241463750Y104880000D01*
%TO.N,Net-(D5-A)*%
X101538750Y152380000D02*
X101538750Y143805000D01*
%TO.N,Net-(D39-A)*%
X65313750Y84780000D02*
X65313750Y93355000D01*
%TO.N,Net-(D23-A)*%
X272988750Y133330000D02*
X272988750Y124755000D01*
%TO.N,Net-(D26-A)*%
X42608750Y99580000D02*
X46263750Y103235000D01*
%TO.N,Net-(D31-A)*%
X196788750Y105705000D02*
X198663750Y103830000D01*
%TO.N,Net-(D6-A)*%
X120588750Y152380000D02*
X122463750Y150505000D01*
%TO.N,Net-(D27-A)*%
X65313750Y103235000D02*
X65313750Y103830000D01*
%TO.N,Net-(D23-A)*%
X272988750Y124755000D02*
X274863750Y122880000D01*
%TO.N,raw3 L*%
X120713750Y80530000D02*
X125668750Y85485000D01*
%TO.N,Net-(D19-A)*%
X198663750Y122880000D02*
X198663750Y122285000D01*
%TO.N,Col1 R*%
X208838750Y118455000D02*
X203363750Y123930000D01*
%TO.N,Col0 R*%
X189788750Y118455000D02*
X189788750Y115330000D01*
%TO.N,raw0 L*%
X106562750Y141306000D02*
X110188750Y137680000D01*
%TO.N,Net-(D19-A)*%
X196788750Y124755000D02*
X198663750Y122880000D01*
%TO.N,Net-(D7-A)*%
X198663750Y141930000D02*
X198663750Y141335000D01*
%TO.N,Col0 R*%
X184313750Y142980000D02*
X189788750Y137505000D01*
%TO.N,Net-(D8-A)*%
X217713750Y141335000D02*
X217713750Y141930000D01*
%TO.N,Col3 R*%
X241463750Y104880000D02*
X246938750Y99405000D01*
%TO.N,raw3 L*%
X125668750Y125230000D02*
X129518750Y129080000D01*
%TO.N,Net-(D18-A)*%
X122463750Y131455000D02*
X122463750Y122880000D01*
%TO.N,Col2 L*%
X50963750Y104880000D02*
X50963750Y109855000D01*
%TO.N,Col1 L*%
X31913750Y138087234D02*
X31913750Y142980000D01*
%TO.N,Col2 R*%
X227888750Y99405000D02*
X227888750Y96280000D01*
%TO.N,Net-(D4-A)*%
X82488750Y143805000D02*
X84363750Y141930000D01*
%TO.N,Col5 L*%
X108113750Y128905000D02*
X108113750Y123930000D01*
%TO.N,Net-(D48-A)*%
X294420000Y95230000D02*
X294420000Y86655000D01*
X294420000Y86655000D02*
X296295000Y84780000D01*
X296295000Y84661250D02*
X296295000Y84780000D01*
%TO.N,Net-(D47-A)*%
X272988750Y86655000D02*
X274863750Y84780000D01*
%TO.N,Col3 L*%
X75488750Y96280000D02*
X70013750Y90805000D01*
X70013750Y128905000D02*
X70013750Y123930000D01*
X70013750Y109855000D02*
X70013750Y104880000D01*
%TO.N,Col1 L*%
X31913750Y128905000D02*
X37388750Y134380000D01*
X37388750Y115330000D02*
X37388750Y118455000D01*
X31913750Y147955000D02*
X31913750Y142980000D01*
X31913750Y104880000D02*
X31913750Y109855000D01*
X37388750Y153430000D02*
X31913750Y147955000D01*
X31913750Y90805000D02*
X37388750Y96280000D01*
X31913750Y85830000D02*
X31913750Y90805000D01*
%TO.N,raw3 L*%
X125668750Y85485000D02*
X125668750Y125230000D01*
%TO.N,Col0 L*%
X10482500Y142980000D02*
X15957500Y137505000D01*
X15957500Y137505000D02*
X15957500Y134380000D01*
%TO.N,Net-(D1-A)*%
X24832500Y141930000D02*
X24832500Y150505000D01*
%TO.N,Col0 L*%
X10482500Y100453000D02*
X14655500Y96280000D01*
X10482500Y147955000D02*
X10482500Y142980000D01*
X15957500Y115330000D02*
X10482500Y109855000D01*
X14655500Y96280000D02*
X15957500Y96280000D01*
X10482500Y128905000D02*
X10482500Y123930000D01*
X10482500Y109855000D02*
X10482500Y104880000D01*
X10482500Y123930000D02*
X15957500Y118455000D01*
X15957500Y153430000D02*
X10482500Y147955000D01*
X15957500Y134380000D02*
X10482500Y128905000D01*
X10482500Y90805000D02*
X10482500Y85830000D01*
X15957500Y118455000D02*
X15957500Y115330000D01*
%TO.N,Net-(D4-A)*%
X84363750Y141930000D02*
X84363750Y141335000D01*
%TO.N,raw2 L*%
X124491450Y130442700D02*
X125668750Y131620000D01*
X125668750Y131620000D02*
X129518750Y131620000D01*
X124491450Y122242642D02*
X124491450Y130442700D01*
X109664750Y107415942D02*
X124491450Y122242642D01*
X109664750Y101104000D02*
X109664750Y107415942D01*
%TO.N,Col4 R*%
X260513750Y142980000D02*
X265988750Y137505000D01*
%TO.N,raw1 L*%
X110188750Y118630000D02*
X111188750Y118630000D01*
X120347296Y155382000D02*
X112780204Y155382000D01*
X125151996Y150577300D02*
X125151996Y146836400D01*
X130696050Y142267654D02*
X130696050Y135337300D01*
X106161750Y122657000D02*
X110188750Y118630000D01*
X130696050Y135337300D02*
X129518750Y134160000D01*
%TO.N,raw0 L*%
X124491450Y137877300D02*
X124491450Y150670746D01*
X120181196Y154981000D02*
X112946304Y154981000D01*
X110188750Y137680000D02*
X111188750Y137680000D01*
%TO.N,Col2 L*%
X50963750Y119398300D02*
X55032050Y115330000D01*
%TO.N,Net-(BT2-+)*%
X163258750Y155235000D02*
X163258750Y124980000D01*
%TO.N,Net-(D24-A)*%
X294420000Y133330000D02*
X294420000Y124755000D01*
X294420000Y124755000D02*
X296295000Y122880000D01*
%TO.N,Net-(D23-A)*%
X274863750Y122285000D02*
X271208750Y118630000D01*
%TO.N,Net-(D22-A)*%
X255813750Y122285000D02*
X255813750Y122880000D01*
X253938750Y133330000D02*
X253938750Y124755000D01*
%TO.N,Net-(D21-A)*%
X234888750Y133330000D02*
X234888750Y124755000D01*
%TO.N,Net-(D20-A)*%
X215838750Y133330000D02*
X215838750Y124755000D01*
%TO.N,Col2 L*%
X50963750Y147955000D02*
X56438750Y153430000D01*
%TO.N,Net-(D19-A)*%
X196788750Y133330000D02*
X196788750Y124755000D01*
%TO.N,Col2 L*%
X56438750Y137505000D02*
X50963750Y142980000D01*
%TO.N,Net-(D18-A)*%
X118808750Y118630000D02*
X122463750Y122285000D01*
X122463750Y122285000D02*
X122463750Y122880000D01*
%TO.N,Net-(D29-A)*%
X101538750Y114280000D02*
X101538750Y105705000D01*
%TO.N,Net-(D17-A)*%
X103413750Y122285000D02*
X103413750Y122880000D01*
%TO.N,Col1 L*%
X35620984Y134380000D02*
X31913750Y138087234D01*
%TO.N,Net-(D13-A)*%
X21177500Y118630000D02*
X24832500Y122285000D01*
X24832500Y131455000D02*
X22957500Y133330000D01*
%TO.N,Net-(D12-A)*%
X296295000Y150505000D02*
X296295000Y141930000D01*
X296295000Y141335000D02*
X296295000Y141930000D01*
%TO.N,Net-(D11-A)*%
X272988750Y143805000D02*
X274863750Y141930000D01*
%TO.N,Net-(D2-A)*%
X46263750Y141335000D02*
X42608750Y137680000D01*
%TO.N,Net-(D11-A)*%
X271208750Y137680000D02*
X274863750Y141335000D01*
%TO.N,Net-(D10-A)*%
X255813750Y141930000D02*
X255813750Y141335000D01*
%TO.N,Net-(D9-A)*%
X233108750Y137680000D02*
X236763750Y141335000D01*
X234888750Y152380000D02*
X234888750Y143805000D01*
X236763750Y141335000D02*
X236763750Y141930000D01*
%TO.N,Net-(D8-A)*%
X217713750Y141930000D02*
X217713750Y150505000D01*
%TO.N,Net-(D6-A)*%
X122463750Y150505000D02*
X122463750Y141930000D01*
%TO.N,Net-(D5-A)*%
X103413750Y141930000D02*
X103413750Y141335000D01*
%TO.N,Col0 R*%
X184313750Y147955000D02*
X184313750Y142980000D01*
X165203890Y87487071D02*
X167787675Y90070856D01*
X189788750Y134380000D02*
X184313750Y128905000D01*
%TO.N,Net-(D4-A)*%
X82488750Y152380000D02*
X82488750Y143805000D01*
%TO.N,Net-(D47-A)*%
X273113750Y80530000D02*
X273113750Y83030000D01*
%TO.N,Col0 L*%
X15957500Y96280000D02*
X10482500Y90805000D01*
%TO.N,Net-(D16-A)*%
X80708750Y118630000D02*
X84363750Y122285000D01*
%TO.N,Net-(D34-A)*%
X253938750Y114280000D02*
X253938750Y105705000D01*
%TO.N,Net-(D28-A)*%
X82488750Y105705000D02*
X84363750Y103830000D01*
%TO.N,Net-(D16-A)*%
X82488750Y124755000D02*
X84363750Y122880000D01*
%TO.N,Net-(D34-A)*%
X253938750Y105705000D02*
X255813750Y103830000D01*
%TO.N,Net-(D28-A)*%
X80708750Y99580000D02*
X84363750Y103235000D01*
%TO.N,Net-(D16-A)*%
X82488750Y133330000D02*
X82488750Y124755000D01*
%TO.N,Net-(D34-A)*%
X255813750Y103235000D02*
X255813750Y103830000D01*
%TO.N,Net-(D27-A)*%
X61658750Y99580000D02*
X65313750Y103235000D01*
%TO.N,Net-(D15-A)*%
X65313750Y122880000D02*
X65313750Y122285000D01*
%TO.N,Net-(D34-A)*%
X252158750Y99580000D02*
X255813750Y103235000D01*
%TO.N,Net-(D27-A)*%
X65313750Y103830000D02*
X65313750Y112405000D01*
%TO.N,Net-(D15-A)*%
X65313750Y122285000D02*
X61658750Y118630000D01*
%TO.N,Net-(D33-A)*%
X234888750Y114280000D02*
X234888750Y105705000D01*
%TO.N,Net-(D14-A)*%
X46263750Y122285000D02*
X42608750Y118630000D01*
%TO.N,Net-(D33-A)*%
X234888750Y105705000D02*
X236763750Y103830000D01*
%TO.N,Net-(D14-A)*%
X46263750Y122880000D02*
X46263750Y122285000D01*
%TO.N,Net-(D32-A)*%
X214058750Y99580000D02*
X217713750Y103235000D01*
%TO.N,Col2 L*%
X50963750Y142980000D02*
X50963750Y147955000D01*
%TO.N,Net-(D20-A)*%
X215838750Y124755000D02*
X217713750Y122880000D01*
%TO.N,Net-(D13-A)*%
X24832500Y122285000D02*
X24832500Y122880000D01*
%TO.N,Net-(D31-A)*%
X198663750Y103235000D02*
X195008750Y99580000D01*
%TO.N,Col2 L*%
X50963750Y128905000D02*
X56438750Y134380000D01*
%TO.N,Net-(D19-A)*%
X198663750Y122285000D02*
X195008750Y118630000D01*
%TO.N,Col2 L*%
X50963750Y90805000D02*
X56438750Y96280000D01*
%TO.N,Net-(D15-A)*%
X63438750Y133330000D02*
X65313750Y131455000D01*
%TO.N,Net-(D33-A)*%
X236763750Y103235000D02*
X236763750Y103830000D01*
%TO.N,Net-(D12-A)*%
X294420000Y152380000D02*
X296295000Y150505000D01*
%TO.N,Net-(D21-A)*%
X233108750Y118630000D02*
X236763750Y122285000D01*
%TO.N,Net-(BT1-+)*%
X129518750Y157020000D02*
X143581450Y142957300D01*
%TO.N,Net-(D33-A)*%
X233108750Y99580000D02*
X236763750Y103235000D01*
%TO.N,Net-(D15-A)*%
X65313750Y131455000D02*
X65313750Y122880000D01*
%TO.N,Col2 R*%
X222413750Y85830000D02*
X222413750Y90805000D01*
%TO.N,Net-(D35-A)*%
X274863750Y103235000D02*
X274863750Y103830000D01*
%TO.N,Col2 R*%
X222413750Y123930000D02*
X222413750Y128905000D01*
%TO.N,Net-(D7-A)*%
X196788750Y152380000D02*
X196788750Y143805000D01*
%TO.N,Net-(D8-A)*%
X214058750Y137680000D02*
X217713750Y141335000D01*
%TO.N,Net-(D14-A)*%
X44388750Y124755000D02*
X46263750Y122880000D01*
%TO.N,Net-(D32-A)*%
X217713750Y103235000D02*
X217713750Y103830000D01*
%TO.N,Col5 R*%
X281945000Y142980000D02*
X287420000Y137505000D01*
%TO.N,Net-(D10-A)*%
X253938750Y143805000D02*
X255813750Y141930000D01*
%TO.N,Col3 L*%
X75488750Y115330000D02*
X70013750Y109855000D01*
%TO.N,Col0 L*%
X10482500Y104880000D02*
X10482500Y100453000D01*
%TO.N,Net-(D16-A)*%
X84363750Y122285000D02*
X84363750Y122880000D01*
%TO.N,Net-(D35-A)*%
X272988750Y114280000D02*
X272988750Y105705000D01*
%TO.N,Col0 R*%
X165203890Y78559897D02*
X165203890Y87487071D01*
%TO.N,raw0 L*%
X106562750Y148597446D02*
X106562750Y141306000D01*
%TO.N,Col0 R*%
X184313750Y128905000D02*
X184313750Y123930000D01*
%TO.N,Net-(D11-A)*%
X272988750Y152380000D02*
X272988750Y143805000D01*
%TO.N,Net-(D22-A)*%
X253938750Y124755000D02*
X255813750Y122880000D01*
%TO.N,Net-(D6-A)*%
X122463750Y141335000D02*
X118808750Y137680000D01*
%TO.N,Col3 L*%
X70013750Y104880000D02*
X75488750Y99405000D01*
%TO.N,Col0 R*%
X189788750Y115330000D02*
X184313750Y109855000D01*
%TO.N,Net-(D29-A)*%
X99758750Y99580000D02*
X103413750Y103235000D01*
%TO.N,Net-(D20-A)*%
X214058750Y118630000D02*
X217713750Y122285000D01*
%TO.N,Col2 L*%
X50963750Y109855000D02*
X56438750Y115330000D01*
%TO.N,Net-(D24-A)*%
X292640000Y118630000D02*
X296295000Y122285000D01*
%TO.N,Col5 L*%
X108113750Y147955000D02*
X108113750Y142980000D01*
%TO.N,Net-(D39-A)*%
X65313750Y93355000D02*
X63438750Y95230000D01*
%TO.N,Col5 L*%
X108113750Y123930000D02*
X113588750Y118455000D01*
X113588750Y137505000D02*
X113588750Y134380000D01*
%TO.N,Col4 R*%
X265988750Y96280000D02*
X260513750Y90805000D01*
%TO.N,Net-(D29-A)*%
X101538750Y105705000D02*
X103413750Y103830000D01*
%TO.N,Col3 R*%
X241463750Y147955000D02*
X241463750Y142980000D01*
%TO.N,Col1 R*%
X193838750Y90805000D02*
X199313750Y96280000D01*
%TO.N,Col2 L*%
X56438750Y96280000D02*
X56438750Y99405000D01*
%TO.N,Net-(D25-A)*%
X24832500Y103235000D02*
X24832500Y103830000D01*
%TO.N,Net-(D13-A)*%
X24832500Y122880000D02*
X24832500Y131455000D01*
%TO.N,Net-(D32-A)*%
X217713750Y103830000D02*
X217713750Y112405000D01*
%TO.N,Col1 R*%
X203363750Y123930000D02*
X203363750Y128905000D01*
%TO.N,Net-(D3-A)*%
X65313750Y150505000D02*
X65313750Y141930000D01*
%TO.N,Net-(D10-A)*%
X253938750Y152380000D02*
X253938750Y143805000D01*
%TO.N,Net-(D35-A)*%
X271208750Y99580000D02*
X274863750Y103235000D01*
%TO.N,Net-(D14-A)*%
X44388750Y133330000D02*
X44388750Y124755000D01*
%TO.N,Net-(D32-A)*%
X217713750Y112405000D02*
X215838750Y114280000D01*
%TO.N,Net-(D17-A)*%
X101538750Y133330000D02*
X101538750Y124755000D01*
%TO.N,Col1 L*%
X37388750Y99405000D02*
X31913750Y104880000D01*
%TO.N,Col4 L*%
X89063750Y128905000D02*
X89063750Y123930000D01*
%TO.N,Net-(D37-A)*%
X24832500Y84780000D02*
X24832500Y84911250D01*
%TO.N,Net-(D46-A)*%
X255813750Y93355000D02*
X253938750Y95230000D01*
%TO.N,Net-(D5-A)*%
X101538750Y143805000D02*
X103413750Y141930000D01*
%TO.N,Col3 L*%
X70013750Y142980000D02*
X75488750Y137505000D01*
%TO.N,Col0 R*%
X177126117Y89317367D02*
X168541164Y89317367D01*
%TO.N,Net-(D1-A)*%
X21177500Y137680000D02*
X24832500Y141335000D01*
%TO.N,Net-(D7-A)*%
X198663750Y141335000D02*
X195008750Y137680000D01*
%TO.N,Net-(D21-A)*%
X236763750Y122285000D02*
X236763750Y122880000D01*
%TO.N,Net-(D5-A)*%
X103413750Y141335000D02*
X99758750Y137680000D01*
%TO.N,Col3 L*%
X75488750Y153430000D02*
X70013750Y147955000D01*
%TO.N,Col0 R*%
X189788750Y153430000D02*
X184313750Y147955000D01*
%TO.N,Net-(D43-A)*%
X183801522Y81259728D02*
X184531250Y80530000D01*
%TO.N,Net-(D1-A)*%
X24832500Y141335000D02*
X24832500Y141930000D01*
X24832500Y150505000D02*
X22957500Y152380000D01*
%TO.N,Net-(D7-A)*%
X196788750Y143805000D02*
X198663750Y141930000D01*
%TO.N,Net-(D28-A)*%
X84363750Y103235000D02*
X84363750Y103830000D01*
%TO.N,Net-(D2-A)*%
X46263750Y141930000D02*
X46263750Y141335000D01*
%TO.N,Net-(D6-A)*%
X122463750Y141930000D02*
X122463750Y141335000D01*
%TO.N,Col3 R*%
X246938750Y115330000D02*
X241463750Y109855000D01*
%TO.N,Col1 R*%
X208838750Y137505000D02*
X203363750Y142980000D01*
%TO.N,Net-(D41-A)*%
X112938750Y84185000D02*
X112938750Y84780000D01*
%TO.N,Col4 L*%
X94538750Y118455000D02*
X94538750Y115330000D01*
%TO.N,Col3 R*%
X241463750Y128905000D02*
X241463750Y123930000D01*
%TO.N,GNDR*%
X164321750Y123503000D02*
X163258750Y122440000D01*
%TO.N,Net-(D2-A)*%
X46263750Y150505000D02*
X46263750Y141930000D01*
%TO.N,Net-(D22-A)*%
X252158750Y118630000D02*
X255813750Y122285000D01*
%TO.N,Net-(D18-A)*%
X120588750Y133330000D02*
X122463750Y131455000D01*
%TO.N,Col3 L*%
X70013750Y123930000D02*
X75488750Y118455000D01*
%TO.N,Col2 R*%
X222413750Y123930000D02*
X227888750Y118455000D01*
%TO.N,Net-(D9-A)*%
X234888750Y143805000D02*
X236763750Y141930000D01*
%TO.N,Col3 L*%
X75488750Y99405000D02*
X75488750Y96280000D01*
%TO.N,Col2 L*%
X56438750Y99405000D02*
X50963750Y104880000D01*
%TO.N,Net-(D20-A)*%
X217713750Y122285000D02*
X217713750Y122880000D01*
%TO.N,Col5 R*%
X287420000Y96280000D02*
X287420000Y99405000D01*
%TO.N,Net-(D17-A)*%
X101538750Y124755000D02*
X103413750Y122880000D01*
%TO.N,Col1 L*%
X37388750Y134380000D02*
X35620984Y134380000D01*
%TO.N,Col4 L*%
X94538750Y134380000D02*
X89063750Y128905000D01*
%TO.N,Net-(D36-A)*%
X294420000Y105705000D02*
X296295000Y103830000D01*
%TO.N,Col3 R*%
X246938750Y137505000D02*
X246938750Y134380000D01*
%TO.N,Net-(D23-A)*%
X274863750Y122880000D02*
X274863750Y122285000D01*
%TO.N,Net-(D27-A)*%
X65313750Y112405000D02*
X63438750Y114280000D01*
%TO.N,Net-(D3-A)*%
X65313750Y141335000D02*
X61658750Y137680000D01*
%TO.N,Col1 R*%
X208838750Y153430000D02*
X203363750Y147955000D01*
X193838750Y85830000D02*
X193838750Y90805000D01*
%TO.N,Net-(D3-A)*%
X63438750Y152380000D02*
X65313750Y150505000D01*
%TO.N,Net-(D24-A)*%
X296295000Y122285000D02*
X296295000Y122880000D01*
%TO.N,Net-(D17-A)*%
X99758750Y118630000D02*
X103413750Y122285000D01*
%TO.N,Col1 L*%
X37388750Y118455000D02*
X31913750Y123930000D01*
%TO.N,Net-(D21-A)*%
X234888750Y124755000D02*
X236763750Y122880000D01*
%TO.N,Col2 L*%
X56438750Y134380000D02*
X56438750Y137505000D01*
%TO.N,Col1 L*%
X31913750Y109855000D02*
X37388750Y115330000D01*
%TO.N,raw1 L*%
X130006404Y142957300D02*
X130696050Y142267654D01*
%TO.N,Net-(D10-A)*%
X255813750Y141335000D02*
X252158750Y137680000D01*
%TO.N,raw1 L*%
X106161750Y148763546D02*
X106161750Y122657000D01*
%TO.N,Net-(D30-A)*%
X122463750Y103235000D02*
X122463750Y103830000D01*
%TO.N,Col3 R*%
X241463750Y85830000D02*
X241463750Y90805000D01*
%TO.N,Net-(D2-A)*%
X44388750Y152380000D02*
X46263750Y150505000D01*
%TO.N,Net-(D12-A)*%
X292640000Y137680000D02*
X296295000Y141335000D01*
%TO.N,raw2 L*%
X111188750Y99580000D02*
X109664750Y101104000D01*
%TO.N,Net-(D39-A)*%
X65313750Y84185000D02*
X65313750Y84780000D01*
%TO.N,raw1 L*%
X125151996Y146836400D02*
X129031096Y142957300D01*
%TO.N,Col5 R*%
X281945000Y128905000D02*
X281945000Y123930000D01*
%TO.N,Net-(D26-A)*%
X44388750Y114280000D02*
X46263750Y112405000D01*
%TO.N,Net-(D28-A)*%
X82488750Y114280000D02*
X82488750Y105705000D01*
%TO.N,Net-(D11-A)*%
X274863750Y141335000D02*
X274863750Y141930000D01*
%TO.N,Col5 L*%
X108113750Y142980000D02*
X113588750Y137505000D01*
%TO.N,Net-(D41-A)*%
X112938750Y93355000D02*
X111063750Y95230000D01*
%TO.N,Col2 L*%
X50963750Y123930000D02*
X50963750Y128905000D01*
%TO.N,Net-(D25-A)*%
X21177500Y99580000D02*
X24832500Y103235000D01*
%TO.N,Col0 R*%
X189788750Y137505000D02*
X189788750Y134380000D01*
%TO.N,Col2 L*%
X50963750Y85830000D02*
X50963750Y90805000D01*
%TO.N,Net-(D25-A)*%
X24832500Y112405000D02*
X22957500Y114280000D01*
%TO.N,Col0 R*%
X168541164Y89317367D02*
X167787675Y90070856D01*
%TO.N,Col2 L*%
X50963750Y123930000D02*
X50963750Y119398300D01*
%TO.N,Net-(D25-A)*%
X24832500Y103830000D02*
X24832500Y112405000D01*
%TO.N,Col0 R*%
X184313750Y109855000D02*
X184313750Y104880000D01*
%TO.N,Col2 L*%
X55032050Y115330000D02*
X56438750Y115330000D01*
%TO.N,Col4 R*%
X260513750Y104880000D02*
X265988750Y99405000D01*
X260513750Y128905000D02*
X265988750Y134380000D01*
%TO.N,Col5 L*%
X113588750Y115330000D02*
X108113750Y109855000D01*
%TO.N,Col1 L*%
X37388750Y96280000D02*
X37388750Y99405000D01*
X31913750Y123930000D02*
X31913750Y128905000D01*
%TO.N,Net-(D26-A)*%
X46263750Y112405000D02*
X46263750Y103830000D01*
X46263750Y103235000D02*
X46263750Y103830000D01*
%TO.N,Net-(D29-A)*%
X103413750Y103235000D02*
X103413750Y103830000D01*
%TO.N,Net-(D30-A)*%
X122463750Y112405000D02*
X122463750Y103830000D01*
%TO.N,Col3 R*%
X241463750Y142980000D02*
X246938750Y137505000D01*
%TO.N,Net-(D30-A)*%
X118808750Y99580000D02*
X122463750Y103235000D01*
%TO.N,Net-(D31-A)*%
X198663750Y103830000D02*
X198663750Y103235000D01*
X196788750Y114280000D02*
X196788750Y105705000D01*
%TO.N,Col3 L*%
X75488750Y118455000D02*
X75488750Y115330000D01*
%TO.N,Col2 R*%
X222413750Y147955000D02*
X222413750Y142980000D01*
%TO.N,Col3 L*%
X70013750Y147955000D02*
X70013750Y142980000D01*
%TO.N,Col2 R*%
X227888750Y137505000D02*
X222413750Y142980000D01*
%TO.N,Col3 L*%
X75488750Y137505000D02*
X75488750Y134380000D01*
%TO.N,Col2 R*%
X222413750Y109855000D02*
X227888750Y115330000D01*
%TO.N,Col3 L*%
X75488750Y134380000D02*
X70013750Y128905000D01*
%TO.N,Col2 R*%
X222413750Y104880000D02*
X227888750Y99405000D01*
X227888750Y153430000D02*
X222413750Y147955000D01*
X222413750Y90805000D02*
X227888750Y96280000D01*
%TO.N,Col4 L*%
X89063750Y104880000D02*
X97663750Y96280000D01*
X94538750Y137505000D02*
X94538750Y134380000D01*
%TO.N,Col3 R*%
X246938750Y134380000D02*
X241463750Y128905000D01*
%TO.N,Col4 L*%
X94538750Y153430000D02*
X89063750Y147955000D01*
%TO.N,Net-(BT1-+)*%
X146941120Y124980000D02*
X148018750Y124980000D01*
%TO.N,Col3 R*%
X241463750Y123930000D02*
X246938750Y118455000D01*
%TO.N,Col4 L*%
X89063750Y123930000D02*
X94538750Y118455000D01*
%TO.N,Net-(D35-A)*%
X272988750Y105705000D02*
X274863750Y103830000D01*
%TO.N,Col3 R*%
X246938750Y99405000D02*
X246938750Y96280000D01*
%TO.N,Col4 L*%
X89063750Y147955000D02*
X89063750Y142980000D01*
%TO.N,GNDR*%
X163866450Y137886700D02*
X163866450Y125875610D01*
%TO.N,Net-(D36-A)*%
X294420000Y114280000D02*
X294420000Y105705000D01*
%TO.N,Col3 R*%
X246938750Y118455000D02*
X246938750Y115330000D01*
%TO.N,Col4 L*%
X94538750Y115330000D02*
X89063750Y109855000D01*
%TO.N,Net-(D36-A)*%
X296295000Y103235000D02*
X296295000Y103830000D01*
%TO.N,Col3 R*%
X241463750Y90805000D02*
X246938750Y96280000D01*
%TO.N,Col4 L*%
X104063750Y96280000D02*
X98588750Y90805000D01*
%TO.N,Net-(D36-A)*%
X292640000Y99580000D02*
X296295000Y103235000D01*
%TO.N,Col4 L*%
X89063750Y109855000D02*
X89063750Y104880000D01*
%TO.N,Net-(D37-A)*%
X21177500Y80530000D02*
X21177500Y81125000D01*
%TO.N,Col3 R*%
X246938750Y153430000D02*
X241463750Y147955000D01*
%TO.N,Col4 L*%
X98588750Y90805000D02*
X98588750Y85830000D01*
%TO.N,Net-(D37-A)*%
X24832500Y84911250D02*
X24538750Y85205000D01*
%TO.N,Col4 L*%
X89063750Y142980000D02*
X94538750Y137505000D01*
%TO.N,Net-(D37-A)*%
X21177500Y81125000D02*
X24832500Y84780000D01*
X24832500Y93355000D02*
X22957500Y95230000D01*
X24832500Y84780000D02*
X24832500Y93355000D01*
%TO.N,Net-(D38-A)*%
X42608750Y80530000D02*
X46263750Y84185000D01*
X46263750Y84185000D02*
X46263750Y84780000D01*
X46263750Y93355000D02*
X46263750Y84780000D01*
X44388750Y95230000D02*
X46263750Y93355000D01*
%TO.N,raw1 R*%
X187388750Y118630000D02*
X180573750Y118630000D01*
X180573750Y118630000D02*
X165043750Y134160000D01*
%TO.N,Net-(D39-A)*%
X61658750Y80530000D02*
X65313750Y84185000D01*
%TO.N,Net-(D40-A)*%
X82488750Y86655000D02*
X84363750Y84780000D01*
X80708750Y80530000D02*
X84363750Y84185000D01*
%TO.N,Col5 L*%
X113588750Y134380000D02*
X108113750Y128905000D01*
%TO.N,Net-(D40-A)*%
X84363750Y84185000D02*
X84363750Y84780000D01*
X82488750Y95230000D02*
X82488750Y86655000D01*
%TO.N,Col5 L*%
X113588750Y118455000D02*
X113588750Y115330000D01*
X127773907Y83423612D02*
X127773907Y82739824D01*
%TO.N,Net-(D41-A)*%
X109283750Y80530000D02*
X112938750Y84185000D01*
X112938750Y84780000D02*
X112938750Y93355000D01*
%TO.N,Net-(D42-A)*%
X141363183Y87697212D02*
X142256731Y88590760D01*
X141363183Y78011549D02*
X141363183Y87697212D01*
%TO.N,Net-(D43-A)*%
X179336686Y81259728D02*
X183801522Y81259728D01*
%TO.N,Net-(D44-A)*%
X208188750Y93355000D02*
X206313750Y95230000D01*
%TO.N,Col4 R*%
X265988750Y115330000D02*
X265988750Y118455000D01*
%TO.N,Net-(D44-A)*%
X208188750Y84780000D02*
X208188750Y93355000D01*
X206438750Y83030000D02*
X208188750Y84780000D01*
X206438750Y80530000D02*
X206438750Y83030000D01*
%TO.N,Net-(D45-A)*%
X236763750Y84185000D02*
X236763750Y84780000D01*
X233108750Y80530000D02*
X236763750Y84185000D01*
%TO.N,raw0 L*%
X129518750Y136700000D02*
X125668750Y136700000D01*
%TO.N,Net-(D45-A)*%
X234888750Y86655000D02*
X236763750Y84780000D01*
%TO.N,raw0 L*%
X112946304Y154981000D02*
X106562750Y148597446D01*
%TO.N,Net-(D45-A)*%
X234888750Y95230000D02*
X234888750Y86655000D01*
%TO.N,raw0 L*%
X125668750Y136700000D02*
X124491450Y137877300D01*
%TO.N,Net-(D46-A)*%
X252158750Y80530000D02*
X255813750Y84185000D01*
%TO.N,raw0 L*%
X124491450Y150670746D02*
X120181196Y154981000D01*
%TO.N,Net-(D46-A)*%
X255813750Y84185000D02*
X255813750Y84780000D01*
X255813750Y84780000D02*
X255813750Y93355000D01*
%TO.N,Col5 R*%
X287420000Y96280000D02*
X281945000Y90805000D01*
%TO.N,Col0 R*%
X184313750Y96505000D02*
X177126117Y89317367D01*
X184313750Y123930000D02*
X189788750Y118455000D01*
X184313750Y104880000D02*
X184313750Y96505000D01*
%TO.N,Col1 R*%
X208838750Y134380000D02*
X208838750Y137505000D01*
%TO.N,Net-(D3-A)*%
X65313750Y141930000D02*
X65313750Y141335000D01*
%TO.N,Col1 R*%
X203363750Y128905000D02*
X208838750Y134380000D01*
%TO.N,Net-(D4-A)*%
X84363750Y141335000D02*
X80708750Y137680000D01*
%TO.N,Col1 R*%
X203363750Y109855000D02*
X208838750Y115330000D01*
X199313750Y96280000D02*
X199313750Y100830000D01*
X203363750Y147955000D02*
X203363750Y142980000D01*
X208838750Y115330000D02*
X208838750Y118455000D01*
X199313750Y100830000D02*
X203363750Y104880000D01*
X203363750Y104880000D02*
X203363750Y109855000D01*
%TO.N,Col2 R*%
X227888750Y134380000D02*
X227888750Y137505000D01*
X222413750Y104880000D02*
X222413750Y109855000D01*
X222413750Y128905000D02*
X227888750Y134380000D01*
%TO.N,Col4 R*%
X265988750Y137505000D02*
X265988750Y134380000D01*
X260513750Y90805000D02*
X260513750Y85829999D01*
X265988750Y153430000D02*
X260513750Y147955000D01*
X260513750Y109855000D02*
X260513750Y104880000D01*
X265988750Y99405000D02*
X265988750Y96280000D01*
X265988750Y118455000D02*
X260513750Y123930000D01*
X265988750Y115330000D02*
X260513750Y109855000D01*
X260513750Y123930000D02*
X260513750Y128905000D01*
%TO.N,Col5 R*%
X287420000Y137505000D02*
X287420000Y134380000D01*
X281945000Y109855000D02*
X281945000Y104880000D01*
X287420000Y99405000D02*
X281945000Y104880000D01*
%TO.N,raw1 L*%
X125151996Y150577300D02*
X120347296Y155382000D01*
X129031096Y142957300D02*
X130006404Y142957300D01*
%TO.N,Col5 R*%
X287420000Y115330000D02*
X281945000Y109855000D01*
X287420000Y153430000D02*
X281945000Y147955000D01*
%TO.N,raw1 L*%
X112780204Y155382000D02*
X106161750Y148763546D01*
%TO.N,Col5 R*%
X287420000Y118455000D02*
X287420000Y115330000D01*
X287420000Y134380000D02*
X281945000Y128905000D01*
X281945000Y123930000D02*
X287420000Y118455000D01*
X281945000Y147955000D02*
X281945000Y142980000D01*
X281945000Y90805000D02*
X281945000Y85830000D01*
%TO.N,Col5 L*%
X113588750Y153430000D02*
X108113750Y147955000D01*
X108113750Y109855000D02*
X108113750Y104880000D01*
X135767010Y91416715D02*
X127773907Y83423612D01*
%TO.N,Net-(D47-A)*%
X272988750Y95230000D02*
X272988750Y86655000D01*
%TO.N,GNDL*%
X141041450Y129417300D02*
X148018750Y122440000D01*
%TO.N,GNDR*%
X166406450Y138062700D02*
X164042450Y138062700D01*
%TO.N,GNDL*%
X141041450Y142957300D02*
X141041450Y129417300D01*
%TO.N,GNDR*%
X164042450Y138062700D02*
X163866450Y137886700D01*
%TO.N,GNDL*%
X129518750Y154480000D02*
X141041450Y142957300D01*
%TO.N,Net-(BT2-+)*%
X165043750Y157020000D02*
X163258750Y155235000D01*
%TO.N,GNDR*%
X164321750Y125420310D02*
X164321750Y123503000D01*
%TO.N,Net-(BT1-+)*%
X143581450Y142957300D02*
X143581450Y128339670D01*
%TO.N,GNDR*%
X180283750Y151940000D02*
X166406450Y138062700D01*
%TO.N,Net-(BT1-+)*%
X143581450Y128339670D02*
X146941120Y124980000D01*
%TD*%
M02*
